<svg width="2198" height="949" viewBox="0 0 2198 949" fill="none" xmlns="http://www.w3.org/2000/svg">
<path d="M2170.82 270.375L77.8718 270.375L217.962 806.919L1972.07 695.458L2170.82 270.375Z" fill="#4895EF"/>
<path d="M2096.91 176.799L-0.000598381 346.275L422.262 895.181L2052.03 622.192L2096.91 176.799Z" fill="#F72586"/>
<path d="M1745.21 479.752C1733.21 480.473 1721.4 479.746 1709.78 477.571C1698.14 475.216 1688.78 472.006 1681.71 467.941L1693.87 437.031C1700.56 440.76 1708.55 443.693 1717.84 445.829C1727.12 447.786 1736.14 448.501 1744.91 447.974C1762.63 446.908 1771.23 441.99 1770.7 433.22C1770.46 429.103 1767.86 426.295 1762.92 424.795C1757.98 423.296 1750.46 422.221 1740.36 421.571C1728.44 420.491 1718.56 419.019 1710.73 417.155C1702.89 415.291 1695.93 411.577 1689.85 406.015C1683.94 400.442 1680.66 392.196 1680.01 381.278C1679.46 372.149 1681.57 363.938 1686.34 356.646C1691.28 349.163 1698.64 343.152 1708.43 338.611C1718.39 334.06 1730.27 331.37 1744.05 330.542C1754.25 329.928 1764.44 330.484 1774.6 332.208C1784.93 333.743 1793.53 336.28 1800.39 339.819L1788.22 370.461C1775.08 364.065 1760.99 361.319 1745.96 362.223C1737.01 362.761 1730.37 364.418 1726.04 367.193C1721.72 369.967 1719.68 373.324 1719.91 377.262C1720.18 381.736 1722.79 384.724 1727.73 386.223C1732.67 387.722 1740.47 388.96 1751.12 389.936C1763.06 391.195 1772.85 392.762 1780.51 394.637C1788.16 396.332 1794.93 399.967 1800.83 405.54C1806.74 411.113 1810.01 419.18 1810.64 429.741C1811.18 438.69 1808.97 446.817 1804.02 454.12C1799.07 461.424 1791.53 467.357 1781.38 471.919C1771.41 476.291 1759.35 478.902 1745.21 479.752Z" fill="white"/>
<path d="M1582.91 340.23C1605.28 338.885 1622.79 343.222 1635.43 353.241C1648.05 363.08 1655.01 378.739 1656.31 400.218L1661.26 482.644L1622.06 485.001L1620.98 467.012C1613.91 480.91 1599.64 488.505 1578.16 489.796C1567.06 490.463 1557.28 489.165 1548.82 485.901C1540.54 482.626 1534.05 477.807 1529.36 471.442C1524.67 465.078 1522.07 457.689 1521.56 449.277C1520.75 435.852 1525.13 424.99 1534.69 416.691C1544.43 408.381 1559.86 403.591 1580.98 402.322L1614.28 400.32C1613.73 391.191 1610.53 384.378 1604.69 379.878C1598.84 375.2 1590.37 373.195 1579.27 373.862C1571.58 374.324 1564.04 376.035 1556.68 378.993C1549.48 381.761 1543.41 385.359 1538.46 389.788L1521.67 361.427C1529.21 355.405 1538.35 350.544 1549.09 346.845C1560 343.134 1571.27 340.93 1582.91 340.23ZM1586.93 460.975C1594.09 460.545 1600.35 458.552 1605.71 454.996C1611.05 451.262 1614.69 446.103 1616.63 439.519L1615.74 424.752L1587.02 426.48C1569.83 427.513 1561.58 433.667 1562.26 444.944C1562.58 450.314 1564.9 454.486 1569.21 457.46C1573.69 460.245 1579.6 461.416 1586.93 460.975Z" fill="white"/>
<path d="M1442.24 497.967C1430.24 498.688 1418.43 497.961 1406.8 495.785C1395.17 493.431 1385.81 490.221 1378.74 486.155L1390.89 455.245C1397.59 458.975 1405.58 461.908 1414.87 464.044C1424.15 466.001 1433.17 466.716 1441.94 466.188C1459.66 465.123 1468.26 460.205 1467.73 451.435C1467.48 447.318 1464.89 444.51 1459.95 443.01C1455.01 441.511 1447.49 440.436 1437.39 439.786C1425.47 438.706 1415.59 437.234 1407.75 435.37C1399.92 433.506 1392.96 429.792 1386.87 424.23C1380.97 418.657 1377.69 410.411 1377.03 399.492C1376.49 390.364 1378.6 382.153 1383.37 374.86C1388.31 367.378 1395.67 361.366 1405.46 356.826C1415.42 352.275 1427.3 349.585 1441.08 348.756C1451.28 348.143 1461.46 348.699 1471.63 350.423C1481.96 351.957 1490.56 354.494 1497.41 358.034L1485.25 388.676C1472.11 382.28 1458.02 379.534 1442.98 380.438C1434.03 380.976 1427.4 382.632 1423.07 385.407C1418.75 388.182 1416.71 391.539 1416.94 395.476C1417.21 399.951 1419.82 402.938 1424.76 404.438C1429.7 405.937 1437.5 407.175 1448.15 408.151C1460.08 409.41 1469.88 410.976 1477.54 412.851C1485.18 414.547 1491.96 418.182 1497.86 423.755C1503.77 429.328 1507.04 437.395 1507.67 447.956C1508.21 456.905 1506 465.032 1501.05 472.335C1496.1 479.639 1488.56 485.571 1478.41 490.133C1468.43 494.506 1456.38 497.117 1442.24 497.967Z" fill="white"/>
<path d="M1364 428.57C1364.03 429.107 1363.99 432.882 1363.87 439.895L1254.6 446.464C1257.11 455.295 1262.19 462.086 1269.84 466.835C1277.49 471.585 1286.77 473.631 1297.69 472.975C1305.21 472.523 1311.77 471.051 1317.36 468.559C1323.13 465.877 1328.38 461.969 1333.1 456.835L1356.83 479.659C1344.17 496.049 1324.77 505.029 1298.63 506.601C1282.35 507.58 1267.75 505.314 1254.84 499.802C1241.93 494.112 1231.73 485.833 1224.25 474.965C1216.77 464.097 1212.6 451.504 1211.74 437.185C1210.89 423.044 1213.43 410.137 1219.38 398.462C1225.49 386.598 1234.18 377.183 1245.44 370.219C1256.86 363.065 1269.82 359.053 1284.32 358.181C1298.46 357.331 1311.44 359.604 1323.26 365.001C1335.09 370.398 1344.56 378.631 1351.69 389.699C1359 400.577 1363.1 413.534 1364 428.57ZM1286.49 389.846C1277.01 390.417 1269.2 393.58 1263.08 399.338C1256.96 405.095 1253.47 412.67 1252.59 422.064L1323.74 417.786C1321.76 408.744 1317.39 401.732 1310.62 396.749C1303.84 391.588 1295.8 389.287 1286.49 389.846Z" fill="white"/>
<path d="M1148.7 387.619C1153.29 380.337 1159.69 374.653 1167.89 370.568C1176.26 366.471 1186 364.09 1197.1 363.422L1199.42 402.085C1194.74 402.006 1191.6 402.016 1189.99 402.113C1178 402.834 1168.81 406.799 1162.41 414.01C1156.01 421.042 1153.21 431.27 1154.02 444.694L1158.12 512.89L1116.23 515.408L1107.55 370.961L1147.55 368.556L1148.7 387.619Z" fill="white"/>
<path d="M1010.11 374.664C1023.54 373.857 1035.9 376.258 1047.19 381.866C1058.65 387.284 1067.86 395.444 1074.8 406.344C1081.73 417.064 1085.64 429.853 1086.54 444.709C1087.43 459.566 1085.08 472.82 1079.5 484.474C1073.9 495.948 1065.74 505.151 1055.02 512.083C1044.47 518.825 1032.48 522.599 1019.05 523.406C1000.62 524.515 985.769 519.569 974.509 508.569L978.561 575.96L936.677 578.478L924.862 381.945L964.866 379.54L965.867 396.186C975.495 383.032 990.243 375.858 1010.11 374.664ZM1009.74 489.476C1020.48 488.83 1029.03 484.723 1035.4 477.154C1041.94 469.396 1044.85 459.431 1044.12 447.26C1043.38 435.088 1039.31 425.632 1031.9 418.892C1024.66 411.963 1015.67 408.821 1004.93 409.466C994.189 410.112 985.549 414.314 979.01 422.072C972.639 429.641 969.819 439.511 970.551 451.682C971.282 463.854 975.27 473.404 982.513 480.334C989.924 487.074 998.999 490.121 1009.74 489.476Z" fill="white"/>
<path d="M830.808 385.445C848.886 384.358 863.528 388.867 874.734 398.972C886.108 408.887 892.436 424.494 893.716 445.794L898.688 528.489L856.804 531.007L852.22 454.756C851.531 443.301 848.604 434.944 843.437 429.686C838.439 424.238 831.555 421.777 822.784 422.304C812.939 422.896 805.347 426.586 800.007 433.374C794.656 439.983 792.357 449.553 793.11 462.082L797.468 534.574L755.584 537.092L751 460.841C749.633 438.109 739.821 427.292 721.564 428.39C711.899 428.971 704.396 432.655 699.055 439.443C693.704 446.052 691.405 455.622 692.158 468.151L696.516 540.643L654.632 543.161L645.948 398.714L685.953 396.309L686.954 412.956C691.958 406.547 698.211 401.5 705.714 397.816C713.396 394.121 721.891 391.993 731.199 391.434C741.401 390.82 750.743 392.324 759.224 395.946C767.694 399.389 774.667 404.808 780.141 412.204C785.596 404.331 792.675 398.067 801.377 393.412C810.258 388.747 820.068 386.091 830.808 385.445Z" fill="white"/>
<path d="M625.123 472.988C625.155 473.525 625.113 477.3 624.995 484.313L515.721 490.882C518.228 499.713 523.306 506.504 530.957 511.253C538.608 516.003 547.892 518.049 558.811 517.393C566.329 516.941 572.887 515.469 578.485 512.977C584.252 510.295 589.496 506.387 594.218 501.253L617.955 524.077C605.287 540.467 585.887 549.447 559.755 551.018C543.466 551.998 528.869 549.732 515.963 544.22C503.046 538.53 492.848 530.251 485.368 519.383C477.889 508.515 473.719 495.922 472.858 481.603C472.008 467.462 474.555 454.555 480.5 442.88C486.613 431.016 495.298 421.601 506.556 414.637C517.982 407.483 530.944 403.471 545.443 402.599C559.583 401.749 572.564 404.022 584.385 409.419C596.207 414.816 605.684 423.049 612.816 434.117C620.117 444.995 624.219 457.952 625.123 472.988ZM547.616 434.264C538.129 434.835 530.326 437.998 524.205 443.756C518.084 449.513 514.587 457.088 513.715 466.482L584.864 462.204C582.883 453.162 578.51 446.15 571.743 441.167C564.966 436.006 556.923 433.705 547.616 434.264Z" fill="white"/>
<path d="M1885.43 577.543C1885.71 581.509 1885.36 585.156 1884.35 588.484C1883.35 591.813 1881.81 594.741 1879.72 597.27C1877.67 599.76 1875.11 601.774 1872.04 603.314C1868.97 604.854 1865.47 605.766 1861.54 606.051C1858.85 606.247 1856.19 605.946 1853.58 605.148C1850.99 604.348 1848.54 603.063 1846.22 601.293L1848.03 626.235L1840.55 626.778L1835.38 555.552L1842.86 555.01L1843.2 559.703C1847.54 555.438 1852.36 553.113 1857.67 552.728C1861.6 552.442 1865.2 552.84 1868.46 553.92C1871.72 554.964 1874.54 556.606 1876.94 558.846C1879.36 561.048 1881.32 563.759 1882.79 566.98C1884.27 570.165 1885.15 573.686 1885.43 577.543ZM1877.95 578.086C1877.74 575.248 1877.15 572.621 1876.17 570.204C1875.22 567.749 1873.9 565.669 1872.2 563.963C1870.51 562.257 1868.47 560.96 1866.11 560.071C1863.77 559.18 1861.12 558.842 1858.13 559.059C1855.29 559.265 1852.68 559.985 1850.28 561.22C1847.92 562.452 1845.73 564.33 1843.72 566.853L1845.7 594.143C1848.05 596.35 1850.49 597.874 1853 598.716C1855.55 599.555 1858.24 599.872 1861.08 599.666C1864.06 599.449 1866.64 598.731 1868.82 597.512C1871.04 596.291 1872.86 594.714 1874.3 592.781C1875.73 590.848 1876.74 588.635 1877.33 586.141C1877.95 583.609 1878.15 580.924 1877.95 578.086Z" fill="white"/>
<path d="M1827.37 607.27L1819.89 607.813L1817.24 571.245C1817.02 568.334 1816.35 566.115 1815.22 564.588C1814.08 563.061 1812.55 562.368 1810.62 562.507C1807.78 562.713 1805.8 564.357 1804.67 567.438C1803.58 570.517 1803.22 574.749 1803.61 580.134L1805.7 608.843L1798.17 609.389L1795.51 572.821C1795.3 569.911 1794.61 567.693 1793.44 566.169C1792.3 564.642 1790.77 563.948 1788.84 564.088C1787.06 564.217 1785.68 564.848 1784.7 565.98C1783.72 567.111 1782.98 568.518 1782.48 570.201C1782.02 571.88 1781.77 573.727 1781.73 575.742C1781.7 577.756 1781.75 579.746 1781.89 581.711L1783.98 610.419L1776.5 610.962L1772.81 560.094L1780.28 559.552L1780.82 566.92C1781.97 561.094 1785.16 557.99 1790.4 557.61C1795.39 557.248 1798.95 559.495 1801.1 564.351C1803.21 559.186 1806.52 556.44 1811.03 556.113C1815.36 555.799 1818.62 556.861 1820.81 559.299C1823.03 561.698 1824.33 565.499 1824.71 570.702L1827.37 607.27Z" fill="white"/>
<path d="M1766.94 586.253C1767.23 590.219 1766.85 593.867 1765.81 597.198C1764.81 600.526 1763.21 603.44 1761.02 605.941C1758.85 608.402 1756.18 610.406 1753 611.954C1749.82 613.502 1746.21 614.422 1742.18 614.715C1738.21 615.003 1734.54 614.611 1731.17 613.538C1727.8 612.466 1724.85 610.87 1722.32 608.749C1719.82 606.589 1717.82 603.937 1716.31 600.791C1714.84 597.642 1713.96 594.085 1713.67 590.119C1713.39 586.262 1713.75 582.633 1714.75 579.232C1715.78 575.792 1717.37 572.823 1719.53 570.325C1721.72 567.789 1724.41 565.747 1727.59 564.199C1730.77 562.615 1734.34 561.679 1738.31 561.391C1742.34 561.098 1746.05 561.506 1749.42 562.615C1752.79 563.687 1755.73 565.321 1758.23 567.517C1760.76 569.674 1762.77 572.382 1764.25 575.639C1765.76 578.858 1766.66 582.396 1766.94 586.253ZM1759.46 586.795C1759.25 583.884 1758.62 581.242 1757.57 578.867C1756.55 576.454 1755.14 574.38 1753.33 572.646C1751.52 570.911 1749.38 569.604 1746.9 568.723C1744.46 567.839 1741.75 567.506 1738.77 567.722C1735.78 567.939 1733.13 568.662 1730.8 569.891C1728.51 571.118 1726.62 572.719 1725.12 574.694C1723.61 576.668 1722.51 578.924 1721.82 581.462C1721.16 583.96 1720.94 586.665 1721.15 589.576C1721.36 592.487 1721.97 595.149 1722.99 597.563C1724.04 599.937 1725.45 601.956 1727.21 603.62C1728.98 605.285 1731.08 606.54 1733.52 607.387C1736 608.232 1738.73 608.546 1741.71 608.329C1744.7 608.113 1747.33 607.409 1749.62 606.219C1751.95 605.026 1753.89 603.477 1755.43 601.573C1756.98 599.668 1758.08 597.467 1758.74 594.968C1759.43 592.43 1759.67 589.706 1759.46 586.795Z" fill="white"/>
<path d="M1704.95 606.389C1703.04 609.893 1700.29 612.781 1696.69 615.054C1693.12 617.288 1688.77 618.591 1683.64 618.964C1679.67 619.252 1675.99 618.861 1672.58 617.791C1669.17 616.722 1666.2 615.108 1663.67 612.951C1661.17 610.755 1659.15 608.085 1657.6 604.942C1656.06 601.799 1655.14 598.244 1654.85 594.278C1654.57 590.421 1654.91 586.812 1655.88 583.45C1656.84 580.052 1658.34 577.108 1660.39 574.618C1662.44 572.092 1665.02 570.057 1668.13 568.515C1671.27 566.934 1674.8 566 1678.73 565.715C1680.3 565.602 1681.91 565.667 1683.57 565.913C1685.24 566.158 1686.82 566.609 1688.34 567.268C1689.84 567.89 1691.22 568.686 1692.46 569.657C1693.7 570.591 1694.66 571.747 1695.34 573.124L1694.81 565.755L1701.52 565.268L1703 585.626L1696.29 586.113C1696.12 583.858 1695.56 581.832 1694.58 580.037C1693.65 578.24 1692.42 576.719 1690.91 575.476C1689.39 574.232 1687.62 573.318 1685.6 572.733C1683.58 572.112 1681.45 571.883 1679.19 572.046C1676.13 572.268 1673.5 572.99 1671.28 574.212C1669.1 575.43 1667.32 577.005 1665.92 578.935C1664.52 580.865 1663.51 583.097 1662.89 585.629C1662.31 588.122 1662.12 590.824 1662.33 593.735C1662.54 596.646 1663.17 599.307 1664.23 601.718C1665.31 604.09 1666.76 606.107 1668.56 607.768C1670.4 609.427 1672.54 610.698 1674.98 611.581C1677.46 612.462 1680.19 612.795 1683.17 612.578C1686.96 612.303 1690.27 611.313 1693.11 609.608C1695.95 607.902 1698.06 605.755 1699.45 603.167L1704.95 606.389Z" fill="white"/>
<path d="M1645.27 606.329C1645.49 609.313 1644.92 611.841 1643.58 613.915C1642.23 615.988 1640.41 617.692 1638.13 619.028C1635.89 620.362 1633.33 621.37 1630.45 622.055C1627.61 622.773 1624.81 623.232 1622.05 623.433C1617.42 623.768 1612.77 623.429 1608.09 622.415C1603.41 621.402 1599.31 619.925 1595.81 617.985L1598.67 611.303C1602.59 613.396 1606.41 614.947 1610.15 615.957C1613.88 616.966 1617.69 617.33 1621.58 617.047C1632.83 616.231 1638.24 612.912 1637.81 607.09C1637.71 605.671 1637.15 604.559 1636.14 603.755C1635.17 602.911 1633.88 602.273 1632.27 601.841C1630.67 601.372 1628.83 601.048 1626.77 600.869C1624.75 600.686 1622.61 600.53 1620.37 600.4C1617.51 600.206 1614.65 599.938 1611.81 599.595C1608.97 599.253 1606.35 598.62 1603.94 597.698C1601.57 596.772 1599.6 595.452 1598.05 593.735C1596.54 592.016 1595.67 589.665 1595.46 586.681C1595.27 584.134 1595.75 581.887 1596.89 579.939C1598.06 577.988 1599.68 576.316 1601.74 574.923C1603.83 573.528 1606.31 572.433 1609.18 571.64C1612.05 570.846 1615.05 570.336 1618.18 570.109C1622.65 569.784 1626.69 570.021 1630.3 570.82C1633.9 571.583 1637.19 572.826 1640.17 574.548L1637.59 580.606C1634.53 578.78 1631.48 577.574 1628.44 576.99C1625.4 576.37 1622.13 576.187 1618.63 576.44C1617.07 576.554 1615.33 576.826 1613.43 577.257C1611.55 577.649 1609.82 578.25 1608.24 579.06C1606.65 579.834 1605.33 580.808 1604.28 581.981C1603.26 583.116 1602.81 584.501 1602.93 586.139C1603.04 587.558 1603.57 588.671 1604.55 589.478C1605.55 590.247 1606.86 590.865 1608.47 591.334C1610.07 591.766 1611.89 592.073 1613.91 592.255C1615.97 592.435 1618.12 592.59 1620.37 592.72C1623.16 592.919 1625.98 593.19 1628.82 593.533C1631.7 593.873 1634.32 594.487 1636.69 595.376C1639.09 596.262 1641.07 597.563 1642.62 599.279C1644.17 600.996 1645.06 603.346 1645.27 606.329Z" fill="white"/>
<path d="M1542.71 604.994C1543.65 610.339 1545.92 614.49 1549.54 617.447C1553.16 620.403 1557.68 621.684 1563.1 621.291C1566.92 621.014 1570.26 619.985 1573.13 618.203C1576 616.422 1578.1 614.313 1579.42 611.876L1584.92 615.098C1582.64 618.849 1579.8 621.798 1576.4 623.947C1573.01 626.058 1568.73 627.302 1563.56 627.677C1559.63 627.962 1555.98 627.568 1552.61 626.496C1549.24 625.424 1546.27 623.811 1543.7 621.656C1541.16 619.463 1539.12 616.794 1537.58 613.651C1536.03 610.508 1535.12 606.953 1534.83 602.987C1534.55 599.13 1534.87 595.54 1535.8 592.217C1536.77 588.855 1538.27 585.911 1540.32 583.385C1542.4 580.82 1545 578.766 1548.1 577.224C1551.21 575.645 1554.74 574.712 1558.71 574.424C1563.04 574.11 1566.88 574.563 1570.22 575.784C1573.56 577.004 1576.4 578.828 1578.74 581.256C1581.1 583.644 1582.93 586.584 1584.21 590.076C1585.52 593.566 1586.33 597.475 1586.65 601.805L1542.71 604.994ZM1578.27 595.994C1577.03 590.487 1574.71 586.486 1571.31 583.989C1567.91 581.493 1563.86 580.415 1559.17 580.755C1556.77 580.93 1554.58 581.491 1552.6 582.439C1550.61 583.351 1548.89 584.592 1547.43 586.161C1545.98 587.73 1544.79 589.59 1543.89 591.74C1542.98 593.854 1542.47 596.141 1542.36 598.6L1578.27 595.994Z" fill="white"/>
<path d="M1525.47 615.025C1525.69 618.008 1525.12 620.537 1523.77 622.61C1522.42 624.683 1520.61 626.388 1518.33 627.724C1516.08 629.057 1513.52 630.066 1510.65 630.75C1507.81 631.468 1505.01 631.927 1502.24 632.128C1497.62 632.463 1492.97 632.124 1488.29 631.111C1483.6 630.097 1479.51 628.62 1476 626.68L1478.87 619.998C1482.78 622.091 1486.61 623.643 1490.34 624.652C1494.07 625.661 1497.88 626.025 1501.78 625.742C1513.02 624.926 1518.43 621.607 1518.01 615.786C1517.91 614.367 1517.35 613.255 1516.34 612.45C1515.36 611.607 1514.07 610.969 1512.47 610.536C1510.86 610.068 1509.03 609.744 1506.97 609.564C1504.94 609.382 1502.81 609.226 1500.57 609.096C1497.7 608.901 1494.85 608.633 1492.01 608.291C1489.17 607.948 1486.54 607.316 1484.13 606.393C1481.76 605.468 1479.8 604.147 1478.25 602.431C1476.73 600.712 1475.87 598.36 1475.65 595.377C1475.47 592.83 1475.94 590.582 1477.08 588.634C1478.26 586.683 1479.87 585.011 1481.93 583.619C1484.02 582.223 1486.51 581.129 1489.37 580.335C1492.24 579.542 1495.24 579.031 1498.37 578.804C1502.85 578.479 1506.89 578.717 1510.49 579.516C1514.1 580.278 1517.39 581.521 1520.37 583.243L1517.79 589.301C1514.73 587.475 1511.68 586.27 1508.64 585.686C1505.59 585.065 1502.32 584.882 1498.83 585.135C1497.27 585.249 1495.53 585.521 1493.62 585.952C1491.75 586.344 1490.02 586.945 1488.43 587.756C1486.84 588.529 1485.52 589.503 1484.47 590.676C1483.46 591.811 1483.01 593.197 1483.13 594.834C1483.23 596.253 1483.77 597.366 1484.74 598.174C1485.75 598.942 1487.06 599.56 1488.66 600.029C1490.27 600.461 1492.08 600.768 1494.11 600.951C1496.17 601.13 1498.32 601.285 1500.56 601.415C1503.35 601.615 1506.17 601.886 1509.01 602.228C1511.89 602.568 1514.52 603.182 1516.88 604.071C1519.29 604.957 1521.27 606.258 1522.82 607.975C1524.37 609.691 1525.25 612.041 1525.47 615.025Z" fill="white"/>
<path d="M1356.08 627.648C1355.85 624.446 1356.45 621.713 1357.9 619.45C1359.34 617.151 1361.31 615.289 1363.8 613.864C1366.33 612.401 1369.25 611.274 1372.55 610.486C1375.9 609.658 1379.31 609.117 1382.81 608.864C1384.15 608.766 1385.36 608.697 1386.41 608.657C1387.51 608.614 1388.53 608.595 1389.48 608.599C1390.47 608.6 1391.46 608.62 1392.45 608.658C1393.44 608.696 1394.52 608.745 1395.7 608.806L1395.43 605.149C1395.25 602.675 1394.56 600.677 1393.35 599.155C1392.18 597.631 1390.78 596.471 1389.15 595.675C1387.51 594.842 1385.83 594.306 1384.09 594.066C1382.35 593.79 1380.88 593.696 1379.68 593.783C1375.9 594.057 1372.44 594.82 1369.31 596.071C1366.19 597.323 1363.3 598.904 1360.66 600.814L1356.87 595.438C1359.79 593.361 1363.1 591.603 1366.8 590.164C1370.53 588.686 1374.67 587.782 1379.22 587.452C1381.99 587.251 1384.73 587.418 1387.43 587.953C1390.18 588.449 1392.66 589.366 1394.88 590.705C1397.13 592.004 1398.98 593.809 1400.43 596.118C1401.87 598.427 1402.72 601.255 1402.96 604.603L1405.38 637.896L1397.85 638.443L1397.23 629.928C1396.04 631.661 1394.65 633.206 1393.07 634.565C1391.52 635.921 1389.86 637.065 1388.1 637.998C1386.34 638.894 1384.56 639.608 1382.77 640.14C1380.98 640.709 1379.27 641.053 1377.63 641.171C1370.9 641.66 1365.72 640.738 1362.07 638.405C1358.43 636.073 1356.43 632.487 1356.08 627.648ZM1377.17 634.786C1380.3 634.559 1383.07 633.9 1385.48 632.811C1387.92 631.683 1389.96 630.364 1391.61 628.855C1393.26 627.345 1394.5 625.774 1395.33 624.141C1396.2 622.505 1396.59 621.05 1396.49 619.777L1396.14 614.974C1393.68 614.787 1391.32 614.757 1389.06 614.884C1386.84 615.009 1384.91 615.131 1383.27 615.249C1380.58 615.445 1377.99 615.816 1375.51 616.362C1373.06 616.905 1370.94 617.663 1369.14 618.634C1367.34 619.569 1365.93 620.733 1364.9 622.125C1363.86 623.516 1363.42 625.176 1363.56 627.105C1363.71 629.252 1364.89 631.159 1367.1 632.828C1369.34 634.458 1372.7 635.11 1377.17 634.786Z" fill="white"/>
<path d="M1288.25 646.396L1280.77 646.939L1278.12 610.371C1277.91 607.46 1277.23 605.241 1276.1 603.714C1274.96 602.187 1273.43 601.493 1271.5 601.633C1268.67 601.839 1266.68 603.483 1265.55 606.564C1264.46 609.643 1264.11 613.875 1264.5 619.26L1266.58 647.969L1259.05 648.515L1256.4 611.947C1256.19 609.037 1255.49 606.819 1254.32 605.295C1253.19 603.767 1251.66 603.074 1249.73 603.214C1247.94 603.343 1246.56 603.974 1245.58 605.106C1244.61 606.237 1243.87 607.644 1243.37 609.327C1242.9 611.006 1242.65 612.853 1242.62 614.868C1242.58 616.882 1242.63 618.872 1242.78 620.837L1244.86 649.545L1237.38 650.088L1233.69 599.22L1241.17 598.678L1241.7 606.046C1242.85 600.22 1246.05 597.116 1251.29 596.736C1256.27 596.374 1259.84 598.621 1261.98 603.477C1264.09 598.312 1267.41 595.566 1271.92 595.239C1276.25 594.925 1279.51 595.987 1281.7 598.425C1283.92 600.824 1285.22 604.625 1285.6 609.828L1288.25 646.396Z" fill="white"/>
<path d="M1176.37 640.688C1176.14 637.486 1176.75 634.753 1178.19 632.49C1179.63 630.191 1181.6 628.329 1184.1 626.904C1186.62 625.441 1189.54 624.314 1192.85 623.526C1196.19 622.698 1199.61 622.157 1203.1 621.904C1204.45 621.806 1205.65 621.737 1206.71 621.697C1207.8 621.654 1208.82 621.635 1209.78 621.639C1210.76 621.64 1211.75 621.66 1212.74 621.698C1213.73 621.736 1214.82 621.785 1215.99 621.846L1215.72 618.189C1215.55 615.715 1214.85 613.717 1213.64 612.195C1212.47 610.671 1211.07 609.511 1209.44 608.715C1207.81 607.882 1206.12 607.346 1204.39 607.106C1202.65 606.83 1201.18 606.736 1199.98 606.823C1196.19 607.097 1192.74 607.86 1189.61 609.111C1186.48 610.363 1183.6 611.944 1180.95 613.855L1177.16 608.478C1180.08 606.401 1183.39 604.643 1187.09 603.204C1190.83 601.726 1194.97 600.822 1199.52 600.492C1202.28 600.291 1205.02 600.458 1207.73 600.993C1210.47 601.489 1212.95 602.406 1215.17 603.745C1217.42 605.044 1219.27 606.849 1220.72 609.158C1222.17 611.467 1223.01 614.295 1223.26 617.643L1225.67 650.936L1218.14 651.483L1217.52 642.968C1216.33 644.701 1214.94 646.246 1213.36 647.605C1211.81 648.961 1210.16 650.105 1208.4 651.038C1206.63 651.934 1204.86 652.648 1203.07 653.18C1201.28 653.749 1199.57 654.093 1197.93 654.211C1191.2 654.7 1186.01 653.778 1182.37 651.445C1178.72 649.113 1176.72 645.527 1176.37 640.688ZM1197.47 647.826C1200.59 647.599 1203.36 646.94 1205.77 645.851C1208.21 644.723 1210.26 643.404 1211.9 641.895C1213.55 640.385 1214.79 638.814 1215.62 637.181C1216.49 635.545 1216.88 634.09 1216.79 632.817L1216.44 628.014C1213.97 627.827 1211.61 627.797 1209.35 627.924C1207.13 628.049 1205.2 628.171 1203.56 628.289C1200.87 628.485 1198.28 628.856 1195.8 629.402C1193.35 629.945 1191.23 630.703 1189.43 631.674C1187.64 632.609 1186.22 633.773 1185.19 635.165C1184.16 636.556 1183.71 638.216 1183.85 640.145C1184.01 642.292 1185.19 644.199 1187.39 645.868C1189.63 647.498 1192.99 648.15 1197.47 647.826Z" fill="white"/>
<path d="M1162.49 611.574C1159.7 610.423 1156.45 609.982 1152.74 610.252C1149.68 610.473 1147 611.326 1144.7 612.811C1142.39 614.295 1140.48 616.171 1138.96 618.439C1137.44 620.671 1136.32 623.203 1135.61 626.034C1134.94 628.826 1134.71 631.678 1134.92 634.589L1136.11 651.017L1147.63 650.181L1148.09 656.567L1117.58 658.781L1117.12 652.396L1128.63 651.56L1125.87 613.464L1114.35 614.299L1113.89 607.914L1132.88 606.535L1133.81 619.307C1136.55 609.744 1142.71 604.615 1152.28 603.92C1154.86 603.733 1157.11 603.734 1159.03 603.924C1160.98 604.112 1162.81 604.565 1164.5 605.283L1162.49 611.574Z" fill="white"/>
<path d="M1056.57 649.383C1056.34 646.181 1056.94 643.448 1058.39 641.185C1059.83 638.886 1061.8 637.024 1064.29 635.6C1066.82 634.136 1069.74 633.01 1073.05 632.221C1076.39 631.393 1079.81 630.853 1083.3 630.599C1084.65 630.501 1085.85 630.432 1086.91 630.392C1088 630.349 1089.02 630.33 1089.97 630.334C1090.96 630.336 1091.95 630.355 1092.94 630.393C1093.93 630.431 1095.01 630.48 1096.19 630.541L1095.92 626.885C1095.74 624.41 1095.05 622.412 1093.84 620.891C1092.67 619.366 1091.27 618.206 1089.64 617.41C1088.01 616.577 1086.32 616.041 1084.58 615.802C1082.85 615.525 1081.38 615.431 1080.17 615.518C1076.39 615.793 1072.93 616.556 1069.81 617.807C1066.68 619.058 1063.79 620.639 1061.15 622.55L1057.36 617.174C1060.28 615.096 1063.59 613.338 1067.29 611.899C1071.03 610.421 1075.17 609.517 1079.72 609.187C1082.48 608.986 1085.22 609.153 1087.93 609.688C1090.67 610.184 1093.15 611.101 1095.37 612.44C1097.62 613.74 1099.47 615.544 1100.92 617.853C1102.37 620.162 1103.21 622.991 1103.46 626.338L1105.87 659.631L1098.34 660.178L1097.72 651.664C1096.53 653.396 1095.14 654.942 1093.56 656.3C1092.01 657.656 1090.36 658.8 1088.6 659.733C1086.83 660.629 1085.05 661.343 1083.26 661.876C1081.48 662.444 1079.76 662.788 1078.13 662.907C1071.4 663.395 1066.21 662.473 1062.56 660.141C1058.92 657.808 1056.92 654.222 1056.57 649.383ZM1077.66 656.521C1080.79 656.294 1083.56 655.636 1085.97 654.547C1088.41 653.418 1090.46 652.099 1092.1 650.59C1093.75 649.081 1094.99 647.509 1095.82 645.876C1096.69 644.24 1097.08 642.785 1096.98 641.512L1096.64 636.709C1094.17 636.522 1091.81 636.492 1089.55 636.62C1087.33 636.744 1085.4 636.866 1083.76 636.985C1081.07 637.18 1078.48 637.551 1076 638.097C1073.55 638.64 1071.43 639.398 1069.63 640.369C1067.84 641.305 1066.42 642.468 1065.39 643.86C1064.35 645.252 1063.91 646.912 1064.05 648.84C1064.2 650.987 1065.38 652.895 1067.59 654.564C1069.83 656.193 1073.19 656.846 1077.66 656.521Z" fill="white"/>
<path d="M1023.86 604.242L1013.71 604.979L1012.97 594.773L1023.12 594.036L1023.86 604.242ZM1038.44 664.525L1007.93 666.739L1007.46 660.354L1018.98 659.518L1016.22 621.422L1004.7 622.257L1004.24 615.872L1023.28 614.489L1026.51 658.971L1037.97 658.139L1038.44 664.525Z" fill="white"/>
<path d="M988.218 642.767C988.506 646.733 988.13 650.382 987.092 653.713C986.09 657.041 984.491 659.955 982.295 662.455C980.132 664.917 977.461 666.921 974.282 668.469C971.102 670.016 967.493 670.937 963.454 671.23C959.488 671.518 955.82 671.125 952.45 670.053C949.08 668.981 946.13 667.384 943.598 665.264C941.1 663.104 939.097 660.451 937.589 657.305C936.117 654.157 935.237 650.599 934.949 646.633C934.669 642.776 935.027 639.147 936.024 635.747C937.055 632.307 938.65 629.338 940.81 626.84C943.003 624.303 945.69 622.261 948.869 620.714C952.046 619.13 955.618 618.194 959.584 617.906C963.623 617.613 967.328 618.021 970.701 619.129C974.071 620.201 977.006 621.836 979.506 624.032C982.04 626.189 984.047 628.896 985.527 632.154C987.041 635.373 987.938 638.91 988.218 642.767ZM980.741 643.31C980.529 640.399 979.899 637.756 978.848 635.382C977.832 632.968 976.42 630.895 974.611 629.16C972.803 627.426 970.659 626.119 968.181 625.238C965.74 624.354 963.027 624.021 960.043 624.237C957.06 624.454 954.405 625.177 952.081 626.406C949.792 627.633 947.896 629.234 946.394 631.208C944.891 633.183 943.793 635.439 943.099 637.976C942.439 640.475 942.215 643.18 942.426 646.091C942.637 649.002 943.251 651.664 944.268 654.077C945.318 656.452 946.726 658.471 948.493 660.135C950.26 661.799 952.363 663.055 954.802 663.902C957.277 664.747 960.007 665.06 962.99 664.844C965.974 664.627 968.611 663.924 970.903 662.733C973.23 661.54 975.166 659.992 976.71 658.087C978.255 656.183 979.357 653.981 980.017 651.483C980.711 648.945 980.952 646.221 980.741 643.31Z" fill="white"/>
<path d="M926.999 647.101C927.287 651.067 926.93 654.714 925.928 658.042C924.926 661.37 923.383 664.299 921.298 666.828C919.248 669.317 916.687 671.332 913.617 672.872C910.546 674.411 907.046 675.324 903.116 675.609C900.424 675.804 897.768 675.503 895.15 674.706C892.568 673.905 890.116 672.62 887.793 670.85L889.603 695.793L882.125 696.336L876.956 625.11L884.434 624.567L884.774 629.261C889.11 624.996 893.934 622.671 899.247 622.285C903.176 622 906.771 622.397 910.032 623.478C913.29 624.521 916.116 626.163 918.51 628.404C920.937 630.605 922.89 633.317 924.367 636.538C925.842 639.723 926.72 643.244 926.999 647.101ZM919.522 647.643C919.316 644.805 918.723 642.178 917.743 639.762C916.797 637.307 915.475 635.226 913.779 633.521C912.082 631.815 910.049 630.518 907.68 629.629C905.348 628.737 902.69 628.4 899.706 628.616C896.868 628.822 894.25 629.543 891.852 630.777C889.491 632.01 887.305 633.887 885.293 636.411L887.274 663.7C889.628 665.907 892.062 667.431 894.574 668.273C897.122 669.113 899.815 669.429 902.653 669.223C905.637 669.007 908.218 668.289 910.398 667.07C912.613 665.848 914.437 664.271 915.87 662.338C917.303 660.406 918.312 658.192 918.9 655.699C919.521 653.167 919.728 650.482 919.522 647.643Z" fill="white"/>
<path d="M816.962 666.774C816.73 663.572 817.336 660.839 818.781 658.576C820.224 656.277 822.192 654.415 824.686 652.99C827.213 651.527 830.131 650.4 833.439 649.612C836.78 648.784 840.198 648.243 843.691 647.99C845.037 647.892 846.239 647.823 847.297 647.783C848.391 647.74 849.414 647.721 850.365 647.725C851.353 647.726 852.342 647.746 853.332 647.784C854.323 647.822 855.405 647.871 856.58 647.932L856.315 644.275C856.135 641.801 855.442 639.803 854.234 638.281C853.062 636.757 851.661 635.597 850.031 634.801C848.398 633.968 846.713 633.432 844.976 633.192C843.237 632.916 841.767 632.822 840.566 632.909C836.782 633.183 833.326 633.946 830.198 635.197C827.07 636.449 824.185 638.03 821.544 639.94L817.752 634.564C820.674 632.487 823.985 630.729 827.684 629.29C831.418 627.812 835.558 626.908 840.107 626.577C842.872 626.377 845.609 626.544 848.318 627.079C851.061 627.575 853.542 628.492 855.76 629.831C858.013 631.13 859.863 632.935 861.311 635.244C862.758 637.553 863.604 640.381 863.847 643.729L866.263 677.022L858.731 677.569L858.113 669.054C856.922 670.787 855.535 672.332 853.951 673.691C852.403 675.047 850.749 676.191 848.987 677.123C847.224 678.02 845.446 678.734 843.656 679.266C841.869 679.835 840.156 680.179 838.519 680.297C831.787 680.786 826.6 679.864 822.955 677.531C819.311 675.199 817.313 671.613 816.962 666.774ZM838.055 673.912C841.184 673.685 843.953 673.026 846.361 671.937C848.803 670.809 850.848 669.49 852.494 667.981C854.14 666.471 855.379 664.9 856.212 663.267C857.081 661.631 857.469 660.176 857.376 658.902L857.028 654.1C854.564 653.913 852.202 653.883 849.944 654.01C847.721 654.135 845.792 654.257 844.154 654.375C841.462 654.571 838.873 654.942 836.389 655.488C833.941 656.031 831.82 656.789 830.025 657.76C828.227 658.695 826.812 659.859 825.779 661.251C824.746 662.642 824.3 664.302 824.44 666.231C824.595 668.378 825.776 670.285 827.982 671.954C830.222 673.584 833.58 674.236 838.055 673.912Z" fill="white"/>
<path d="M697.27 675.46C697.037 672.258 697.644 669.525 699.089 667.262C700.532 664.963 702.5 663.101 704.993 661.676C707.521 660.213 710.438 659.086 713.746 658.298C717.088 657.47 720.505 656.929 723.998 656.676C725.345 656.578 726.547 656.509 727.604 656.469C728.699 656.426 729.721 656.407 730.673 656.411C731.661 656.412 732.65 656.432 733.64 656.47C734.63 656.508 735.713 656.557 736.888 656.618L736.622 652.961C736.443 650.487 735.749 648.489 734.541 646.967C733.37 645.443 731.969 644.283 730.338 643.487C728.705 642.654 727.02 642.118 725.284 641.878C723.544 641.602 722.074 641.508 720.874 641.595C717.09 641.869 713.634 642.632 710.505 643.884C707.377 645.135 704.493 646.716 701.852 648.627L698.06 643.251C700.981 641.173 704.292 639.415 707.992 637.976C711.725 636.498 715.866 635.594 720.414 635.264C723.18 635.063 725.917 635.23 728.626 635.765C731.369 636.261 733.849 637.178 736.068 638.517C738.32 639.817 740.17 641.621 741.618 643.93C743.066 646.239 743.911 649.067 744.154 652.415L746.571 685.708L739.039 686.255L738.421 677.74C737.23 679.473 735.842 681.018 734.258 682.377C732.711 683.733 731.056 684.877 729.295 685.81C727.531 686.706 725.754 687.42 723.964 687.952C722.176 688.521 720.464 688.865 718.826 688.983C712.095 689.472 706.907 688.55 703.263 686.217C699.619 683.885 697.621 680.299 697.27 675.46ZM718.363 682.598C721.492 682.371 724.261 681.712 726.669 680.623C729.111 679.495 731.155 678.176 732.801 676.667C734.447 675.157 735.687 673.586 736.519 671.953C737.388 670.317 737.776 668.862 737.684 667.589L737.335 662.786C734.871 662.599 732.51 662.569 730.251 662.696C728.029 662.821 726.099 662.943 724.462 663.062C721.769 663.257 719.181 663.628 716.697 664.174C714.249 664.717 712.127 665.475 710.332 666.446C708.535 667.381 707.12 668.545 706.087 669.937C705.054 671.328 704.607 672.989 704.747 674.917C704.903 677.064 706.084 678.972 708.29 680.64C710.53 682.27 713.887 682.923 718.363 682.598ZM732.107 617.955L709.491 632.929L707.214 629.528L728.073 612.267L732.107 617.955Z" fill="white"/>
<path d="M674.6 629.591L664.448 630.327L663.707 620.121L673.859 619.384L674.6 629.591ZM658.925 713.741C649.974 714.391 643.449 711.17 639.35 704.079L644.795 699.733C646.306 702.403 648.17 704.408 650.389 705.747C652.644 707.083 655.336 707.637 658.465 707.41C660.94 707.23 662.987 706.716 664.608 705.867C666.232 705.054 667.469 703.958 668.32 702.58C669.207 701.199 669.784 699.566 670.05 697.681C670.351 695.794 670.415 693.649 670.241 691.248L667.013 646.766L655.497 647.601L655.033 641.216L674.027 639.837L677.718 690.705C678.194 697.254 676.844 702.601 673.67 706.745C670.535 710.923 665.62 713.255 658.925 713.741Z" fill="white"/>
<path d="M524.383 678.899C525.32 684.245 527.596 688.395 531.213 691.352C534.829 694.308 539.348 695.59 544.769 695.196C548.59 694.919 551.935 693.89 554.805 692.109C557.675 690.328 559.772 688.218 561.095 685.781L566.596 689.003C564.307 692.754 561.467 695.704 558.075 697.852C554.68 699.964 550.4 701.207 545.233 701.582C541.303 701.867 537.653 701.474 534.283 700.401C530.914 699.329 527.943 697.716 525.373 695.561C522.836 693.368 520.795 690.7 519.251 687.556C517.706 684.413 516.789 680.858 516.501 676.892C516.221 673.035 516.546 669.445 517.476 666.123C518.439 662.761 519.944 659.817 521.992 657.291C524.074 654.725 526.668 652.672 529.775 651.129C532.879 649.551 536.414 648.617 540.38 648.33C544.71 648.015 548.547 648.468 551.891 649.689C555.235 650.909 558.074 652.733 560.409 655.161C562.777 657.549 564.599 660.49 565.877 663.982C567.191 667.471 568.005 671.38 568.319 675.71L524.383 678.899ZM559.942 669.899C558.701 664.393 556.381 660.391 552.981 657.895C549.581 655.398 545.534 654.32 540.84 654.661C538.438 654.835 536.248 655.396 534.268 656.345C532.286 657.257 530.566 658.497 529.107 660.066C527.648 661.635 526.466 663.495 525.561 665.646C524.654 667.76 524.143 670.046 524.029 672.505L559.942 669.899Z" fill="white"/>
<path d="M457.645 655.541L465.122 654.998L467.403 686.436C467.734 690.984 468.972 694.442 471.119 696.81C473.3 699.139 476.592 700.144 480.994 699.825C483.76 699.624 486.206 698.806 488.333 697.372C490.46 695.937 492.23 694.108 493.641 691.884C495.05 689.624 496.055 687.1 496.658 684.313C497.294 681.487 497.504 678.582 497.287 675.598L495.632 652.784L503.163 652.238L506.855 703.105L499.323 703.652L498.4 690.935C495.511 700.509 489.445 705.631 480.203 706.301C467.686 707.21 460.927 700.769 459.926 686.979L457.645 655.541Z" fill="white"/>
<path d="M396.918 685.571C396.638 681.714 396.998 678.103 397.998 674.739C398.995 671.338 400.517 668.374 402.565 665.848C404.61 663.286 407.169 661.253 410.242 659.749C413.349 658.207 416.868 657.293 420.797 657.008C426.073 656.625 431.164 658.231 436.071 661.825L435.73 657.132L443.262 656.585L448.431 727.811L440.899 728.357L439.089 703.415C437.082 705.499 434.841 707.125 432.365 708.292C429.926 709.457 427.36 710.137 424.667 710.332C420.738 710.617 417.124 710.221 413.827 709.144C410.567 708.063 407.742 706.44 405.353 704.272C402.962 702.068 401.031 699.392 399.558 696.243C398.086 693.094 397.206 689.537 396.918 685.571ZM404.396 685.028C404.602 687.866 405.177 690.495 406.12 692.914C407.098 695.293 408.435 697.336 410.131 699.042C411.828 700.748 413.842 702.046 416.175 702.938C418.544 703.827 421.22 704.163 424.204 703.946C427.042 703.74 429.643 703.039 432.007 701.844C434.407 700.645 436.595 698.786 438.57 696.265L436.59 668.975C434.271 666.766 431.837 665.224 429.286 664.348C426.771 663.47 424.095 663.133 421.257 663.339C418.273 663.556 415.673 664.275 413.458 665.497C411.278 666.716 409.472 668.291 408.04 670.224C406.607 672.157 405.582 674.408 404.964 676.977C404.379 679.506 404.19 682.19 404.396 685.028Z" fill="white"/>
</svg>
