<svg width="1137" height="1084" viewBox="0 0 1137 1084" fill="none" xmlns="http://www.w3.org/2000/svg">
<path d="M1083.42 522C1083.42 810.293 849.716 1044 561.424 1044C273.131 1044 39.4238 810.293 39.4238 522C39.4238 233.707 273.131 0 561.424 0C849.716 0 1083.42 233.707 1083.42 522Z" fill="#4460EF"/>
<path d="M830.474 464.157L768.152 468.918L772.803 529.807L726.599 533.336L721.948 472.447L659.984 477.18L656.647 433.483L718.61 428.75L713.96 367.861L760.164 364.332L764.814 425.221L827.136 420.461L830.474 464.157Z" fill="white"/>
<path d="M525.016 515.589L500.178 544.145L503.926 593.215L448.051 597.482L427.752 331.72L483.627 327.452L495.117 477.884L570.87 394.281L637.49 389.193L563.497 476.984L659.372 581.342L591.678 586.512L525.016 515.589Z" fill="white"/>
<path d="M377.107 350.719L396.257 601.438L338.234 605.87L322.64 401.713L272.496 405.543L268.939 358.98L377.107 350.719Z" fill="white"/>
<path d="M1098.8 679.361L-0.000146543 768.168L221.269 1055.8L1075.28 912.75L1098.8 679.361Z" fill="#F72586"/>
<path d="M827.382 862.036C821.704 862.581 816.087 862.437 810.532 861.602C804.969 860.682 800.476 859.318 797.051 857.508L802.294 842.634C805.533 844.29 809.374 845.546 813.819 846.402C818.256 847.173 822.551 847.36 826.704 846.96C835.095 846.154 839.09 843.675 838.691 839.521C838.504 837.572 837.225 836.284 834.856 835.656C832.486 835.028 828.899 834.646 824.096 834.508C818.42 834.198 813.707 833.668 809.957 832.916C806.207 832.164 802.841 830.52 799.86 827.984C796.964 825.439 795.267 821.582 794.771 816.412C794.355 812.089 795.218 808.157 797.358 804.615C799.575 800.981 802.967 798.003 807.534 795.683C812.186 793.354 817.775 791.876 824.302 791.249C829.133 790.784 833.974 790.875 838.827 791.521C843.755 792.074 847.877 793.132 851.193 794.695L845.938 809.443C839.594 806.63 832.863 805.566 825.743 806.251C821.505 806.658 818.384 807.556 816.379 808.947C814.374 810.337 813.461 811.964 813.64 813.829C813.844 815.948 815.131 817.321 817.501 817.949C819.87 818.576 823.592 819.031 828.666 819.314C834.35 819.709 839.024 820.286 842.69 821.046C846.348 821.721 849.624 823.331 852.521 825.875C855.417 828.42 857.105 832.192 857.586 837.193C857.993 841.431 857.084 845.324 854.859 848.874C852.634 852.424 849.153 855.368 844.416 857.705C839.756 859.949 834.078 861.392 827.382 862.036Z" fill="white"/>
<path d="M754.88 869.003C747.676 869.696 741.049 868.835 735.001 866.423C729.029 863.917 724.176 860.149 720.442 855.119C716.708 850.089 714.516 844.183 713.864 837.403C713.213 830.622 714.241 824.408 716.949 818.758C719.656 813.109 723.707 808.529 729.101 805.016C734.571 801.411 740.908 799.263 748.112 798.571C755.317 797.878 761.905 798.785 767.877 801.291C773.84 803.711 778.689 807.437 782.423 812.467C786.157 817.497 788.35 823.403 789.001 830.183C789.653 836.964 788.625 843.179 785.917 848.828C783.209 854.477 779.163 859.1 773.777 862.697C768.383 866.209 762.084 868.311 754.88 869.003ZM753.316 852.73C758.402 852.241 762.392 850.147 765.287 846.448C768.259 842.655 769.468 837.877 768.914 832.113C768.36 826.35 766.267 821.932 762.636 818.859C759.082 815.694 754.761 814.355 749.676 814.844C744.591 815.333 740.562 817.473 737.591 821.266C734.611 824.974 733.398 829.709 733.952 835.473C734.505 841.236 736.602 845.697 740.241 848.854C743.873 851.927 748.231 853.219 753.316 852.73Z" fill="white"/>
<path d="M714.166 868.551C712.355 870.179 710.045 871.513 707.237 872.553C704.505 873.5 701.571 874.124 698.435 874.425C690.298 875.207 683.785 873.737 678.893 870.016C674.087 866.286 671.297 860.395 670.523 852.343L667.824 824.247L657.271 825.26L655.805 810.004L666.358 808.99L664.757 792.336L684.59 790.43L686.191 807.085L703.227 805.448L704.693 820.704L687.657 822.341L690.332 850.183C690.609 853.065 691.545 855.242 693.141 856.714C694.813 858.093 697.005 858.652 699.717 858.392C702.853 858.09 705.442 856.986 707.482 855.079L714.166 868.551Z" fill="white"/>
<path d="M626.828 811.25L646.661 809.344L653.234 877.743L633.401 879.648L626.828 811.25ZM635.829 800.762C632.184 801.112 629.116 800.338 626.624 798.438C624.132 796.539 622.735 794.022 622.434 790.886C622.133 787.75 623.024 785.013 625.109 782.674C627.194 780.335 630.059 778.99 633.703 778.64C637.348 778.29 640.412 779.022 642.896 780.836C645.38 782.651 646.768 785.083 647.061 788.135C647.379 791.44 646.5 794.305 644.423 796.728C642.338 799.067 639.473 800.412 635.829 800.762Z" fill="white"/>
<path d="M593.654 823.547C595.71 820.013 598.648 817.207 602.469 815.13C606.374 813.044 610.954 811.748 616.209 811.243L617.968 829.551C615.748 829.593 614.257 829.651 613.494 829.724C607.815 830.269 603.52 832.307 600.609 835.838C597.69 839.283 596.535 844.184 597.146 850.541L600.249 882.833L580.416 884.739L573.844 816.34L592.787 814.52L593.654 823.547Z" fill="white"/>
<path d="M539.725 889.676C532.435 890.377 525.724 889.525 519.591 887.12C513.534 884.623 508.597 880.863 504.778 875.841C501.044 870.811 498.852 864.905 498.2 858.125C497.549 851.344 498.577 845.129 501.284 839.48C504.077 833.823 508.212 829.234 513.691 825.714C519.246 822.101 525.668 819.944 532.957 819.243C540.161 818.551 546.58 819.474 552.213 822.012C557.922 824.458 562.275 828.359 565.27 833.717L550.681 843.459C546.518 837.529 541.089 834.886 534.393 835.529C529.223 836.026 525.106 838.132 522.041 841.848C518.977 845.564 517.726 850.346 518.288 856.194C518.85 862.043 520.988 866.499 524.705 869.564C528.421 872.628 532.864 873.912 538.034 873.415C544.814 872.764 549.641 869.135 552.513 862.529L568.703 869.442C566.766 875.102 563.232 879.719 558.101 883.291C553.054 886.856 546.929 888.984 539.725 889.676Z" fill="white"/>
<path d="M463.414 897.008C457.735 897.554 452.118 897.409 446.563 896.574C441.001 895.655 436.507 894.29 433.083 892.481L438.325 877.606C441.564 879.263 445.406 880.519 449.85 881.375C454.287 882.146 458.582 882.332 462.735 881.933C471.126 881.127 475.122 878.647 474.723 874.494C474.535 872.545 473.257 871.256 470.887 870.629C468.517 870.001 464.93 869.618 460.127 869.481C454.452 869.171 449.739 868.64 445.988 867.889C442.238 867.137 438.872 865.493 435.891 862.957C432.995 860.412 431.299 856.555 430.802 851.385C430.386 847.062 431.249 843.13 433.389 839.588C435.606 835.954 438.998 832.976 443.565 830.655C448.217 828.326 453.807 826.848 460.333 826.221C465.164 825.757 470.006 825.848 474.858 826.494C479.787 827.047 483.909 828.105 487.224 829.668L481.969 844.415C475.625 841.603 468.894 840.539 461.774 841.223C457.536 841.63 454.415 842.529 452.41 843.919C450.405 845.31 449.492 846.937 449.672 848.802C449.875 850.92 451.162 852.294 453.532 852.921C455.902 853.549 459.624 854.004 464.698 854.286C470.381 854.681 475.056 855.259 478.721 856.018C482.379 856.693 485.656 858.303 488.552 860.848C491.448 863.392 493.136 867.165 493.617 872.165C494.024 876.403 493.115 880.297 490.89 883.847C488.665 887.397 485.184 890.34 480.447 892.677C475.787 894.921 470.109 896.365 463.414 897.008Z" fill="white"/>
<path d="M388.577 833.115C397.053 832.3 404.12 834.187 409.779 838.776C415.522 843.357 418.875 850.647 419.836 860.649L423.598 899.806L403.765 901.712L400.296 865.606C399.774 860.181 398.201 856.269 395.575 853.87C392.942 851.386 389.379 850.359 384.887 850.791C379.886 851.272 376.053 853.222 373.388 856.643C370.715 859.98 369.671 864.699 370.257 870.801L373.507 904.619L353.674 906.525L347.102 838.126L366.045 836.306L366.814 844.316C369.165 841.182 372.216 838.664 375.969 836.764C379.713 834.779 383.915 833.563 388.577 833.115Z" fill="white"/>
<path d="M310.131 841.679L329.964 839.774L336.536 908.172L316.703 910.078L310.131 841.679ZM319.132 831.191C315.487 831.542 312.419 830.767 309.927 828.868C307.435 826.969 306.038 824.452 305.737 821.316C305.435 818.18 306.327 815.442 308.412 813.103C310.497 810.765 313.361 809.42 317.006 809.07C320.65 808.72 323.715 809.452 326.199 811.266C328.682 813.08 330.071 815.513 330.364 818.564C330.682 821.87 329.802 824.734 327.726 827.158C325.641 829.497 322.776 830.841 319.132 831.191Z" fill="white"/>
</svg>
