<svg width="2122" height="637" viewBox="0 0 2122 637" fill="none" xmlns="http://www.w3.org/2000/svg">
<path d="M-7.8011e-06 185.093L2122 0L1792.19 631L119.292 631L-7.8011e-06 185.093Z" fill="#F72585"/>
<path d="M1581.96 168.058C1582.19 171.236 1581.89 174.159 1581.05 176.828C1580.25 179.495 1578.97 181.844 1577.21 183.877C1575.48 185.878 1573.34 187.498 1570.8 188.738C1568.25 189.978 1565.36 190.715 1562.12 190.95C1558.94 191.181 1556 190.866 1553.3 190.007C1550.6 189.148 1548.24 187.854 1546.21 186.125C1544.2 184.366 1542.6 182.226 1541.39 179.705C1540.21 177.182 1539.51 174.332 1539.27 171.154C1539.05 168.064 1539.34 165.171 1540.14 162.475C1540.97 159.748 1542.25 157.369 1543.97 155.339C1545.73 153.277 1547.88 151.641 1550.43 150.43C1552.98 149.191 1555.84 148.455 1559.02 148.225C1562.26 147.99 1565.22 148.302 1567.92 149.162C1570.62 149.992 1572.97 151.301 1574.98 153.09C1577.01 154.848 1578.62 157.017 1579.8 159.598C1581.01 162.148 1581.73 164.968 1581.96 168.058ZM1572.95 168.712C1572.81 166.875 1572.4 165.162 1571.7 163.571C1571.02 161.95 1570.1 160.595 1568.94 159.507C1567.78 158.419 1566.4 157.596 1564.8 157.037C1563.24 156.448 1561.51 156.221 1559.61 156.359C1557.69 156.498 1555.99 156.973 1554.53 157.783C1553.06 158.563 1551.84 159.575 1550.88 160.817C1549.91 162.059 1549.2 163.532 1548.74 165.236C1548.3 166.909 1548.15 168.664 1548.28 170.501C1548.42 172.425 1548.83 174.154 1549.49 175.688C1550.19 177.22 1551.11 178.546 1552.24 179.665C1553.38 180.784 1554.73 181.624 1556.3 182.185C1557.86 182.716 1559.6 182.912 1561.53 182.772C1563.42 182.635 1565.1 182.191 1566.57 181.439C1568.07 180.657 1569.31 179.629 1570.31 178.355C1571.3 177.081 1572.01 175.637 1572.45 174.023C1572.92 172.406 1573.09 170.636 1572.95 168.712Z" fill="white"/>
<path d="M1532.25 192.105L1523.19 192.761L1522.92 189C1521.28 190.672 1519.61 191.981 1517.89 192.926C1516.17 193.872 1514.17 194.427 1511.9 194.592C1509.27 194.782 1506.8 194.434 1504.48 193.547C1502.16 192.66 1500.12 191.343 1498.35 189.596C1496.61 187.817 1495.17 185.65 1494.05 183.093C1492.96 180.535 1492.3 177.696 1492.07 174.577C1491.85 171.486 1492.09 168.597 1492.8 165.907C1493.54 163.187 1494.65 160.835 1496.12 158.853C1497.61 156.84 1499.44 155.227 1501.61 154.014C1503.78 152.773 1506.18 152.057 1508.8 151.867C1511.07 151.702 1513.13 151.948 1514.96 152.606C1516.8 153.235 1518.64 154.259 1520.51 155.677L1519.65 143.87L1511.78 144.441L1511.18 136.263L1528.11 135.036L1532.25 192.105ZM1521.03 162.849C1519.86 161.732 1518.4 160.93 1516.63 160.442C1514.89 159.924 1513.25 159.72 1511.71 159.832C1508.3 160.08 1505.6 161.506 1503.62 164.112C1501.67 166.715 1500.84 169.984 1501.12 173.92C1501.41 177.856 1502.7 180.957 1505.01 183.222C1507.34 185.485 1510.21 186.493 1513.62 186.246C1515.17 186.134 1516.76 185.71 1518.41 184.976C1520.08 184.209 1521.42 183.19 1522.41 181.916L1521.03 162.849Z" fill="white"/>
<path d="M1444.61 186.68C1444.44 184.289 1444.93 182.158 1446.08 180.287C1447.23 178.386 1448.8 176.763 1450.78 175.418C1452.8 174.07 1455.12 173.008 1457.76 172.23C1460.43 171.421 1463.16 170.915 1465.96 170.712C1467.51 170.6 1468.84 170.533 1469.95 170.511C1471.06 170.489 1472.19 170.495 1473.33 170.529L1473.22 168.911C1473.06 166.783 1472.12 165.255 1470.38 164.326C1468.67 163.394 1466.47 163.026 1463.79 163.221C1461.34 163.398 1458.88 163.929 1456.39 164.813C1453.9 165.667 1451.57 166.833 1449.39 168.31L1445.2 161.492C1447.77 159.752 1450.56 158.334 1453.55 157.237C1456.58 156.109 1459.8 155.421 1463.21 155.174C1465.42 155.013 1467.61 155.104 1469.78 155.445C1471.97 155.784 1473.95 156.461 1475.73 157.475C1477.53 158.487 1479.01 159.875 1480.16 161.638C1481.31 163.371 1481.99 165.579 1482.18 168.261L1484.16 195.593L1475.2 196.243L1474.76 190.252C1473.5 192.571 1471.51 194.445 1468.8 195.872C1466.12 197.298 1463.17 198.127 1459.97 198.359C1457.98 198.503 1456.08 198.362 1454.26 197.937C1452.48 197.54 1450.9 196.848 1449.54 195.862C1448.18 194.876 1447.05 193.625 1446.15 192.108C1445.27 190.559 1444.76 188.75 1444.61 186.68ZM1461.7 190.101C1463.47 189.972 1465.12 189.633 1466.63 189.083C1468.17 188.503 1469.51 187.775 1470.65 186.902C1471.79 185.999 1472.65 184.954 1473.24 183.769C1473.86 182.581 1474.11 181.302 1474.02 179.932L1473.9 178.401C1472.46 178.271 1471.11 178.237 1469.85 178.299C1468.6 178.361 1467.49 178.427 1466.53 178.497C1462.09 178.818 1458.78 179.644 1456.59 180.975C1454.43 182.304 1453.42 183.829 1453.54 185.549C1453.79 188.96 1456.51 190.477 1461.7 190.101Z" fill="white"/>
<path d="M1438.4 198.913L1429.35 199.569L1427.32 171.625C1427.18 169.701 1426.87 168.302 1426.4 167.428C1425.95 166.522 1425.23 166.105 1424.24 166.177C1422.44 166.308 1421.36 167.412 1421.01 169.489C1420.69 171.535 1420.67 174.496 1420.95 178.373L1422.52 200.064L1413.47 200.721L1411.45 172.777C1411.31 170.852 1411 169.453 1410.53 168.579C1410.05 167.676 1409.3 167.261 1408.28 167.335C1406.5 167.464 1405.45 168.566 1405.14 170.64C1404.85 172.684 1404.84 175.644 1405.12 179.522L1406.69 201.212L1397.64 201.869L1394.69 161.111L1403.83 160.449L1404.25 166.352C1404.73 164.061 1405.56 162.287 1406.73 161.03C1407.89 159.773 1409.53 159.068 1411.63 158.916C1413.38 158.789 1414.87 159.222 1416.12 160.216C1417.39 161.179 1418.31 162.578 1418.88 164.412C1419.76 162.297 1420.7 160.72 1421.71 159.679C1422.74 158.608 1424.4 157.989 1426.67 157.825C1429.47 157.622 1431.69 158.501 1433.32 160.463C1434.99 162.394 1435.97 165.444 1436.27 169.613L1438.4 198.913Z" fill="white"/>
<path d="M1387.14 171.373C1386.03 170.927 1384.89 170.614 1383.74 170.434C1382.61 170.223 1381.31 170.17 1379.86 170.276C1377.84 170.421 1375.97 170.865 1374.24 171.606C1372.53 172.316 1371.08 173.315 1369.88 174.604C1368.69 175.892 1367.79 177.466 1367.19 179.327C1366.62 181.156 1366.42 183.295 1366.6 185.744L1367.34 195.889L1376.48 195.227L1377.07 203.361L1349.65 205.349L1349.06 197.215L1358.29 196.546L1356.51 172.1L1347.28 172.77L1346.69 164.592L1364.97 163.266L1365.71 173.499C1366.9 169.31 1368.88 166.265 1371.65 164.365C1374.44 162.462 1377.83 161.366 1381.83 161.077C1383.08 160.986 1384.4 161.022 1385.79 161.185C1387.18 161.348 1388.55 161.717 1389.91 162.292L1387.14 171.373Z" fill="white"/>
<path d="M1324.2 160.906L1313.18 161.705L1312.38 150.685L1323.4 149.886L1324.2 160.906ZM1335.85 206.352L1308.47 208.337L1307.88 200.203L1316.89 199.55L1315.12 175.105L1306.11 175.758L1305.52 167.58L1323.58 166.27L1325.94 198.894L1335.26 198.218L1335.85 206.352Z" fill="white"/>
<path d="M1292.05 176.776L1276.17 177.928L1277.95 202.373L1287.26 201.698L1287.85 209.832L1260.48 211.817L1259.89 203.683L1268.89 203.03L1267.12 178.584L1258.11 179.238L1257.52 171.06L1266.53 170.406C1266.12 164.809 1267.53 160.413 1270.76 157.219C1273.98 153.996 1278.53 152.172 1284.39 151.747C1285.26 151.683 1286.2 151.659 1287.19 151.675C1288.19 151.69 1289.2 151.72 1290.23 151.762L1290.81 159.721C1289.05 159.673 1287.45 159.701 1286.03 159.805C1283.69 159.974 1281.83 160.285 1280.42 160.738C1279.02 161.163 1277.93 161.784 1277.17 162.601C1276.44 163.387 1275.95 164.374 1275.72 165.564C1275.51 166.751 1275.46 168.146 1275.58 169.75L1291.45 168.599L1292.05 176.776Z" fill="white"/>
<path d="M1244.27 212.991L1235.22 213.648L1233.4 188.502C1233.17 185.325 1232.41 183.167 1231.12 182.029C1229.84 180.891 1228.06 180.405 1225.79 180.57C1222.43 180.813 1219.79 182.367 1217.86 185.233C1215.96 188.097 1215.18 191.919 1215.53 196.7L1216.85 214.98L1207.8 215.636L1204.85 174.879L1213.9 174.223L1214.64 184.456C1215.29 180.862 1216.77 178 1219.07 175.869C1221.38 173.709 1224.32 172.499 1227.91 172.239C1232.08 171.937 1235.44 173.056 1238 175.596C1240.56 178.136 1242.04 182.219 1242.45 187.846L1244.27 212.991Z" fill="white"/>
<path d="M1198 195.908C1198.23 199.086 1197.93 202.009 1197.1 204.678C1196.29 207.344 1195.01 209.694 1193.25 211.726C1191.52 213.727 1189.38 215.348 1186.84 216.588C1184.29 217.828 1181.4 218.565 1178.16 218.8C1174.98 219.03 1172.04 218.716 1169.34 217.857C1166.64 216.997 1164.28 215.703 1162.25 213.975C1160.25 212.215 1158.64 210.075 1157.43 207.554C1156.25 205.032 1155.55 202.181 1155.32 199.004C1155.09 195.913 1155.38 193.02 1156.18 190.324C1157.01 187.597 1158.29 185.219 1160.02 183.188C1161.77 181.127 1163.92 179.491 1166.47 178.28C1169.02 177.04 1171.88 176.305 1175.06 176.075C1178.3 175.84 1181.27 176.152 1183.97 177.011C1186.66 177.841 1189.02 179.151 1191.02 180.94C1193.05 182.697 1194.66 184.867 1195.85 187.448C1197.06 189.998 1197.77 192.818 1198 195.908ZM1188.99 196.561C1188.86 194.725 1188.44 193.011 1187.74 191.421C1187.06 189.799 1186.14 188.444 1184.98 187.357C1183.82 186.269 1182.44 185.445 1180.85 184.887C1179.28 184.297 1177.55 184.071 1175.65 184.208C1173.73 184.348 1172.03 184.823 1170.57 185.632C1169.1 186.413 1167.88 187.424 1166.92 188.666C1165.95 189.909 1165.24 191.382 1164.78 193.086C1164.34 194.759 1164.19 196.514 1164.33 198.35C1164.46 200.274 1164.87 202.004 1165.54 203.538C1166.23 205.07 1167.15 206.395 1168.29 207.514C1169.42 208.634 1170.77 209.474 1172.34 210.034C1173.9 210.566 1175.64 210.762 1177.57 210.622C1179.46 210.485 1181.15 210.04 1182.61 209.289C1184.11 208.506 1185.36 207.478 1186.35 206.205C1187.34 204.931 1188.06 203.487 1188.5 201.873C1188.96 200.256 1189.13 198.486 1188.99 196.561Z" fill="white"/>
<path d="M1148.47 214.094C1146.04 216.908 1143.4 218.902 1140.55 220.076C1137.74 221.247 1134.64 221.956 1131.25 222.201C1127.84 222.448 1124.7 222.163 1121.83 221.346C1118.99 220.526 1116.52 219.269 1114.43 217.574C1112.37 215.848 1110.72 213.711 1109.48 211.163C1108.27 208.613 1107.55 205.72 1107.32 202.484C1107.09 199.394 1107.4 196.5 1108.23 193.802C1109.08 191.073 1110.32 188.712 1111.93 186.719C1113.57 184.695 1115.55 183.072 1117.87 181.849C1120.18 180.597 1122.67 179.873 1125.36 179.679C1128.16 179.476 1130.63 179.882 1132.79 180.898C1134.94 181.914 1136.57 183.511 1137.66 185.688L1137.23 179.784L1145.32 179.198L1146.7 198.177L1138.61 198.764C1138.35 195.178 1137.15 192.393 1135.02 190.408C1132.91 188.392 1130.28 187.499 1127.13 187.727C1125.87 187.818 1124.57 188.177 1123.21 188.803C1121.87 189.398 1120.66 190.277 1119.57 191.44C1118.51 192.601 1117.67 194.04 1117.03 195.757C1116.39 197.474 1116.16 199.498 1116.33 201.831C1116.49 204.105 1117 206.046 1117.85 207.655C1118.69 209.235 1119.74 210.522 1120.98 211.516C1122.26 212.479 1123.71 213.179 1125.36 213.617C1127.03 214.023 1128.72 214.164 1130.44 214.039C1133.39 213.825 1135.91 213.189 1138 212.128C1140.12 211.037 1141.91 209.676 1143.37 208.046L1148.47 214.094Z" fill="white"/>
<path d="M1020.76 212.19C1021.4 214.957 1022.89 217.193 1025.25 218.898C1027.62 220.572 1030.69 221.273 1034.45 221C1037.4 220.786 1039.92 220.149 1042.01 219.089C1044.13 217.998 1045.92 216.637 1047.38 215.007L1052.48 221.055C1050.05 223.869 1047.39 225.864 1044.52 227.04C1041.67 228.213 1038.52 228.926 1035.05 229.178C1031.9 229.406 1028.93 229.094 1026.14 228.241C1023.36 227.388 1020.9 226.1 1018.78 224.378C1016.66 222.627 1014.94 220.495 1013.62 217.983C1012.32 215.469 1011.56 212.623 1011.33 209.445C1011.1 206.355 1011.41 203.475 1012.24 200.806C1013.1 198.106 1014.39 195.741 1016.12 193.711C1017.88 191.649 1020.03 189.999 1022.58 188.759C1025.12 187.49 1027.98 186.74 1031.16 186.51C1034.46 186.271 1037.48 186.622 1040.25 187.565C1043.01 188.478 1045.42 189.93 1047.47 191.921C1049.55 193.91 1051.24 196.41 1052.54 199.422C1053.84 202.405 1054.63 205.835 1054.91 209.713L1020.76 212.19ZM1044.1 202.496C1043.45 199.906 1041.94 197.905 1039.58 196.494C1037.22 195.053 1034.61 194.436 1031.75 194.644C1028.89 194.851 1026.39 195.839 1024.23 197.607C1022.07 199.346 1020.85 201.545 1020.57 204.202L1044.1 202.496Z" fill="white"/>
<path d="M1005.94 217.222C1005.78 221.541 1004.34 225.075 1001.61 227.823C998.903 230.539 995.378 232.055 991.034 232.37C988.644 232.544 986.429 232.309 984.389 231.665C982.35 231.022 980.579 230.051 979.078 228.753C977.578 227.456 976.363 225.859 975.434 223.962C974.532 222.035 973.997 219.905 973.827 217.573L972.549 199.949L963.322 200.618L962.729 192.441L971.956 191.771L970.773 175.46L979.825 174.803L981.008 191.115L998.107 189.875L998.7 198.052L981.602 199.292L982.88 216.916C983.07 219.54 983.853 221.447 985.229 222.636C986.605 223.826 988.342 224.345 990.441 224.193C993.007 224.007 994.863 223.125 996.008 221.547C997.154 219.969 997.767 218.122 997.848 216.006L1005.94 217.222Z" fill="white"/>
<path d="M956.298 233.879L947.246 234.535L945.422 209.39C945.192 206.212 944.434 204.054 943.15 202.917C941.866 201.779 940.087 201.293 937.813 201.457C934.46 201.701 931.818 203.255 929.887 206.121C927.984 208.984 927.206 212.807 927.553 217.588L928.879 235.867L919.827 236.524L916.871 195.767L925.923 195.11L926.665 205.343C927.313 201.75 928.791 198.888 931.098 196.757C933.403 194.597 936.349 193.387 939.934 193.127C944.103 192.824 947.467 193.943 950.025 196.483C952.583 199.023 954.066 203.107 954.474 208.734L956.298 233.879Z" fill="white"/>
<path d="M868.664 228.454C868.491 226.063 868.981 223.932 870.135 222.06C871.286 220.16 872.854 218.537 874.837 217.191C876.849 215.844 879.176 214.781 881.815 214.004C884.482 213.195 887.215 212.689 890.014 212.486C891.559 212.374 892.888 212.307 894 212.285C895.112 212.263 896.241 212.269 897.386 212.303L897.269 210.685C897.114 208.557 896.168 207.028 894.43 206.099C892.722 205.168 890.526 204.8 887.844 204.994C885.395 205.172 882.928 205.702 880.442 206.586C877.954 207.44 875.621 208.606 873.442 210.083L869.255 203.265C871.825 201.525 874.609 200.107 877.607 199.01C880.632 197.883 883.849 197.195 887.26 196.948C889.476 196.787 891.666 196.877 893.83 197.218C896.024 197.558 898.007 198.234 899.78 199.249C901.583 200.261 903.061 201.648 904.215 203.411C905.366 205.145 906.039 207.352 906.234 210.035L908.216 237.366L899.251 238.017L898.817 232.026C897.549 234.345 895.56 236.218 892.85 237.646C890.169 239.071 887.225 239.9 884.018 240.133C882.036 240.276 880.135 240.136 878.317 239.711C876.529 239.313 874.955 238.621 873.594 237.636C872.233 236.65 871.102 235.398 870.201 233.881C869.326 232.333 868.814 230.523 868.664 228.454ZM885.749 231.874C887.528 231.745 889.174 231.406 890.687 230.857C892.227 230.276 893.567 229.549 894.705 228.675C895.841 227.772 896.703 226.728 897.291 225.542C897.909 224.354 898.167 223.075 898.068 221.705L897.957 220.174C896.512 220.045 895.161 220.011 893.905 220.073C892.65 220.134 891.541 220.2 890.579 220.27C886.147 220.591 882.837 221.418 880.647 222.749C878.487 224.078 877.469 225.602 877.594 227.322C877.841 230.733 880.56 232.251 885.749 231.874Z" fill="white"/>
<path d="M859.191 209.664C858.074 209.218 856.938 208.905 855.782 208.725C854.653 208.514 853.36 208.461 851.902 208.567C849.89 208.712 848.017 209.156 846.283 209.897C844.577 210.607 843.125 211.606 841.929 212.895C840.733 214.183 839.836 215.757 839.238 217.618C838.667 219.447 838.471 221.586 838.649 224.035L839.384 234.18L848.524 233.518L849.114 241.652L821.695 243.64L821.105 235.506L830.332 234.837L828.559 210.391L819.332 211.061L818.739 202.883L837.018 201.557L837.76 211.79C838.951 207.601 840.928 204.556 843.692 202.656C846.485 200.753 849.878 199.657 853.872 199.368C855.126 199.277 856.447 199.313 857.837 199.476C859.226 199.639 860.601 200.008 861.961 200.583L859.191 209.664Z" fill="white"/>
<path d="M813.947 231.146C813.792 235.465 812.348 238.999 809.617 241.747C806.912 244.463 803.388 245.979 799.044 246.294C796.654 246.468 794.438 246.233 792.399 245.589C790.359 244.946 788.589 243.975 787.088 242.677C785.587 241.379 784.372 239.782 783.444 237.886C782.542 235.959 782.006 233.829 781.837 231.496L780.559 213.873L771.332 214.542L770.739 206.364L779.966 205.695L778.783 189.384L787.835 188.727L789.018 205.039L806.117 203.798L806.71 211.976L789.611 213.216L790.89 230.84C791.08 233.464 791.863 235.371 793.239 236.56C794.615 237.75 796.352 238.269 798.451 238.117C801.017 237.93 802.872 237.049 804.018 235.471C805.164 233.893 805.777 232.046 805.858 229.93L813.947 231.146Z" fill="white"/>
<path d="M764.483 235.524C764.676 238.177 764.235 240.378 763.16 242.126C762.085 243.875 760.637 245.328 758.816 246.486C757.024 247.641 754.976 248.493 752.671 249.041C750.398 249.617 748.153 249.985 745.937 250.145C742.235 250.414 738.508 250.142 734.756 249.33C731.004 248.517 727.724 247.334 724.915 245.779L728.137 238.072C731.479 239.705 734.505 240.819 737.215 241.414C739.952 241.978 742.662 242.162 745.344 241.968C748.988 241.703 751.614 241.132 753.221 240.253C754.825 239.346 755.578 238.207 755.479 236.837C755.43 236.166 755.157 235.629 754.658 235.225C754.16 234.822 753.359 234.484 752.255 234.213C751.149 233.912 749.694 233.651 747.89 233.43C746.113 233.178 743.898 232.943 741.245 232.725C739.12 232.528 737.093 232.25 735.162 231.892C733.258 231.502 731.558 230.893 730.062 230.064C728.565 229.234 727.328 228.137 726.35 226.772C725.401 225.405 724.848 223.642 724.692 221.485C724.533 219.298 724.949 217.363 725.941 215.679C726.96 213.964 728.335 212.517 730.066 211.336C731.827 210.153 733.827 209.246 736.067 208.615C738.307 207.983 740.564 207.585 742.838 207.42C746.045 207.188 749.181 207.385 752.245 208.013C755.336 208.609 758.075 209.598 760.461 210.978L757.383 218.235C755.005 216.971 752.72 216.17 750.526 215.831C748.36 215.46 745.994 215.368 743.428 215.554C742.35 215.632 741.232 215.772 740.074 215.973C738.916 216.174 737.854 216.486 736.888 216.908C735.921 217.3 735.122 217.812 734.494 218.444C733.893 219.045 733.622 219.753 733.681 220.569C733.759 221.648 734.771 222.468 736.717 223.031C738.69 223.562 742.004 223.995 746.659 224.332C749.191 224.5 751.513 224.786 753.623 225.19C755.731 225.564 757.562 226.164 759.117 226.989C760.669 227.785 761.906 228.882 762.828 230.281C763.777 231.648 764.329 233.396 764.483 235.524Z" fill="white"/>
<path d="M684.789 236.557C685.43 239.324 686.925 241.56 689.276 243.265C691.655 244.939 694.724 245.64 698.485 245.367C701.429 245.154 703.948 244.517 706.039 243.456C708.158 242.365 709.95 241.004 711.414 239.374L716.513 245.422C714.079 248.237 711.425 250.231 708.55 251.407C705.705 252.581 702.547 253.293 699.078 253.545C695.929 253.773 692.961 253.461 690.174 252.608C687.386 251.755 684.934 250.468 682.816 248.746C680.696 246.994 678.974 244.863 677.648 242.35C676.352 239.836 675.589 236.99 675.359 233.812C675.134 230.722 675.438 227.842 676.271 225.174C677.13 222.474 678.424 220.108 680.152 218.078C681.908 216.017 684.059 214.366 686.607 213.126C689.153 211.857 692.014 211.107 695.192 210.877C698.486 210.638 701.516 210.99 704.281 211.932C707.043 212.845 709.449 214.297 711.498 216.288C713.577 218.277 715.268 220.777 716.57 223.789C717.871 226.772 718.662 230.203 718.943 234.08L684.789 236.557ZM708.133 226.863C707.476 224.273 705.968 222.272 703.609 220.861C701.248 219.42 698.639 218.804 695.782 219.011C692.925 219.218 690.418 220.206 688.26 221.974C686.1 223.713 684.882 225.912 684.606 228.57L708.133 226.863Z" fill="white"/>
<path d="M663.998 255.078L636.622 257.063L636.033 248.929L644.954 248.282L641.998 207.525L633.077 208.172L632.483 199.994L650.457 198.691L654.006 247.626L663.408 246.944L663.998 255.078Z" fill="white"/>
<path d="M580.69 249.338C580.517 246.948 581.007 244.817 582.161 242.945C583.313 241.045 584.88 239.422 586.863 238.076C588.876 236.729 591.202 235.666 593.842 234.888C596.509 234.08 599.242 233.574 602.04 233.371C603.586 233.259 604.914 233.192 606.026 233.169C607.138 233.147 608.267 233.153 609.413 233.188L609.295 231.57C609.141 229.441 608.195 227.913 606.457 226.984C604.748 226.053 602.553 225.684 599.87 225.879C597.422 226.056 594.954 226.587 592.469 227.471C589.981 228.325 587.648 229.491 585.469 230.968L581.281 224.15C583.852 222.41 586.635 220.992 589.633 219.895C592.658 218.767 595.876 218.08 599.287 217.832C601.503 217.672 603.692 217.762 605.857 218.103C608.05 218.442 610.033 219.119 611.807 220.133C613.609 221.146 615.087 222.533 616.241 224.296C617.392 226.029 618.066 228.237 618.26 230.919L620.242 258.251L611.278 258.901L610.843 252.91C609.575 255.23 607.586 257.103 604.876 258.53C602.195 259.956 599.252 260.785 596.045 261.017C594.062 261.161 592.162 261.021 590.343 260.596C588.556 260.198 586.982 259.506 585.621 258.52C584.26 257.535 583.128 256.283 582.227 254.766C581.353 253.217 580.841 251.408 580.69 249.338ZM597.776 252.759C599.554 252.63 601.2 252.291 602.713 251.741C604.254 251.161 605.593 250.434 606.731 249.56C607.868 248.657 608.73 247.612 609.318 246.427C609.935 245.239 610.194 243.96 610.094 242.59L609.983 241.059C608.538 240.93 607.187 240.896 605.932 240.957C604.676 241.019 603.567 241.085 602.605 241.155C598.174 241.476 594.863 242.302 592.674 243.633C590.513 244.962 589.496 246.487 589.62 248.207C589.868 251.618 592.586 253.135 597.776 252.759Z" fill="white"/>
<path d="M532.908 223.614L541.96 222.958L542.226 226.631C543.834 224.961 545.486 223.684 547.18 222.799C548.901 221.883 550.899 221.342 553.173 221.177C555.797 220.987 558.27 221.35 560.593 222.266C562.914 223.153 564.945 224.485 566.686 226.264C568.425 228.014 569.857 230.181 570.982 232.766C572.105 235.323 572.779 238.146 573.003 241.236C573.23 244.356 572.971 247.261 572.229 249.953C571.486 252.644 570.382 254.996 568.916 257.007C567.448 258.989 565.629 260.586 563.46 261.799C561.292 263.011 558.895 263.712 556.272 263.903C553.998 264.068 551.942 263.806 550.104 263.119C548.296 262.43 546.475 261.375 544.643 259.954L546.099 280.027L537.047 280.683L532.908 223.614ZM544.123 252.782C545.288 253.899 546.726 254.733 548.437 255.283C550.174 255.802 551.816 256.005 553.361 255.893C556.772 255.646 559.454 254.235 561.406 251.661C563.388 249.085 564.236 245.828 563.951 241.893C563.666 237.957 562.355 234.843 560.02 232.55C557.714 230.256 554.856 229.232 551.445 229.48C549.9 229.592 548.305 230.03 546.661 230.794C545.043 231.526 543.739 232.53 542.747 233.803L544.123 252.782Z" fill="white"/>
<path d="M1966.47 474.012L1963.2 436.439L1958.9 428.521L1953.05 361.249C1952.01 349.321 1947.5 340.339 1939.52 334.304C1931.78 328.248 1920.4 325.874 1905.37 327.183C1895.11 328.076 1885.12 330.629 1875.39 334.841C1865.88 338.794 1857.91 343.815 1851.47 349.904L1828.03 312.646C1837.88 304.336 1850.03 297.51 1864.47 292.167C1878.9 286.823 1893.75 283.487 1909.02 282.157C1938.36 279.602 1961.75 284.536 1979.17 296.96C1996.6 309.383 2006.59 330.266 2009.15 359.608L2018.71 469.462L1966.47 474.012ZM1908.04 481.985C1893.01 483.293 1879.91 481.91 1868.74 477.836C1857.54 473.522 1848.7 467.202 1842.21 458.874C1835.71 450.546 1831.99 440.895 1831.03 429.922C1830.04 418.471 1831.91 408.213 1836.65 399.147C1841.62 390.061 1849.99 382.602 1861.74 376.772C1873.47 370.702 1889.11 366.816 1908.67 365.113L1959.84 360.657L1962.68 393.219L1917.59 397.146C1904.47 398.288 1895.59 401.225 1890.96 405.955C1886.56 410.664 1884.64 416.239 1885.2 422.68C1885.83 429.837 1889.07 435.323 1894.93 439.14C1901.01 442.696 1908.94 444.049 1918.72 443.197C1928.02 442.387 1936.19 439.513 1943.21 434.575C1950.21 429.398 1955 422.371 1957.6 413.492L1968.43 438.508C1965.45 451.266 1958.88 461.333 1948.7 468.709C1938.53 476.084 1924.97 480.51 1908.04 481.985Z" fill="white"/>
<path d="M1775.43 493.531C1752.77 495.504 1734.62 491.316 1720.98 480.967C1707.31 470.378 1699.49 453.634 1697.49 430.733L1682.78 261.836L1738.61 256.975L1753.25 425.156C1753.96 433.267 1756.65 439.401 1761.34 443.56C1766.01 447.48 1772.04 449.118 1779.44 448.474C1788.26 447.705 1795.57 444.666 1801.36 439.354L1819.81 477.407C1814.44 481.961 1807.79 485.665 1799.87 488.518C1792.16 491.112 1784.02 492.783 1775.43 493.531ZM1660.91 354.238L1657.17 311.299L1790.64 299.676L1794.38 342.615L1660.91 354.238Z" fill="white"/>
<path d="M1592.41 506.585L1575.64 314.072L1631.46 309.211L1648.23 501.724L1592.41 506.585ZM1601.22 284.804C1590.96 285.698 1582.35 283.443 1575.39 278.04C1568.43 272.637 1564.56 265.522 1563.79 256.696C1563.03 247.869 1565.6 240.194 1571.52 233.669C1577.45 227.144 1585.54 223.435 1595.79 222.542C1606.05 221.649 1614.65 223.784 1621.59 228.949C1628.51 233.874 1632.35 240.751 1633.12 249.577C1633.93 258.881 1631.39 266.914 1625.48 273.677C1619.8 280.181 1611.71 283.89 1601.22 284.804Z" fill="white"/>
<path d="M1402.5 483.464L1398.01 415.352L1480.41 322.367L1546.96 316.571L1468.36 411.749L1441.43 437.89L1402.5 483.464ZM1359.76 526.845L1336.64 261.335L1392.46 256.474L1415.59 521.984L1359.76 526.845ZM1503.25 514.35L1431.09 439.151L1462.38 392.8L1570.88 508.461L1503.25 514.35Z" fill="white"/>
<path d="M1260.58 535.48L1257.31 497.908L1253.01 489.99L1247.15 422.718C1246.12 410.79 1241.61 401.808 1233.63 395.773C1225.89 389.716 1214.51 387.343 1199.48 388.651C1189.22 389.545 1179.23 392.097 1169.5 396.31C1159.99 400.263 1152.02 405.284 1145.58 411.373L1122.14 374.114C1131.99 365.805 1144.14 358.979 1158.57 353.635C1173.01 348.292 1187.86 344.956 1203.13 343.626C1232.47 341.071 1255.86 346.005 1273.28 358.428C1290.71 370.852 1300.7 391.735 1303.26 421.077L1312.82 530.931L1260.58 535.48ZM1202.15 543.453C1187.12 544.762 1174.02 543.379 1162.85 539.304C1151.65 534.991 1142.81 528.67 1136.32 520.342C1129.82 512.015 1126.1 502.364 1125.14 491.39C1124.14 479.94 1126.02 469.682 1130.75 460.616C1135.73 451.529 1144.1 444.071 1155.85 438.24C1167.58 432.171 1183.22 428.285 1202.78 426.581L1253.95 422.125L1256.79 454.688L1211.7 458.614C1198.58 459.757 1189.7 462.693 1185.07 467.423C1180.67 472.133 1178.75 477.708 1179.31 484.149C1179.94 491.306 1183.18 496.792 1189.04 500.608C1195.12 504.165 1203.05 505.518 1212.83 504.666C1222.13 503.856 1230.29 500.982 1237.32 496.044C1244.32 490.867 1249.11 483.84 1251.7 474.961L1262.54 499.977C1259.56 512.735 1252.99 522.802 1242.81 530.177C1232.64 537.553 1219.08 541.978 1202.15 543.453Z" fill="white"/>
<path d="M905.689 569.271C885.173 571.057 866.55 568.352 849.819 561.156C833.326 553.939 819.784 543.341 809.193 529.361C798.819 515.121 792.801 498.459 791.139 479.375C789.457 460.052 792.504 442.601 800.281 427.021C808.276 411.182 819.782 398.402 834.799 388.682C850.035 378.702 867.91 372.819 888.426 371.032C908.703 369.266 927.207 371.982 943.938 379.178C960.648 386.135 974.18 396.614 984.533 410.615C994.886 424.616 1000.91 441.398 1002.62 460.959C1004.28 480.043 1001.23 497.495 993.476 513.313C985.699 528.893 974.193 541.672 958.957 551.652C943.722 561.632 925.966 567.505 905.689 569.271ZM901.7 523.468C911.004 522.658 919.166 519.784 926.188 514.846C933.209 509.908 938.524 503.316 942.132 495.07C945.72 486.585 947.036 476.856 946.08 465.882C945.104 454.67 942.126 445.315 937.146 437.817C932.167 430.318 925.792 424.744 918.023 421.094C910.254 417.444 901.718 416.024 892.414 416.835C883.111 417.645 874.948 420.519 867.927 425.457C860.906 430.395 855.472 436.997 851.625 445.264C848.016 453.51 846.7 463.24 847.677 474.452C848.632 485.425 851.61 494.78 856.61 502.517C861.828 509.995 868.322 515.558 876.091 519.208C883.86 522.858 892.397 524.278 901.7 523.468Z" fill="white"/>
<path d="M709.784 583.448L693.02 390.935L748.841 386.073L765.606 578.586L709.784 583.448ZM718.593 361.667C708.336 362.56 699.727 360.305 692.766 354.902C685.806 349.499 681.942 342.385 681.173 333.558C680.404 324.732 682.981 317.056 688.902 310.531C694.824 304.006 702.914 300.297 713.171 299.404C723.429 298.511 732.028 300.646 738.968 305.811C745.886 310.737 749.73 317.613 750.499 326.439C751.309 335.743 748.763 343.776 742.863 350.54C737.18 357.044 729.09 360.753 718.593 361.667Z" fill="white"/>
<path d="M580.34 597.603C563.403 599.078 548.54 596.766 535.75 590.669C522.961 584.572 512.712 574.528 505.004 560.537C497.275 546.308 492.434 527.981 490.481 505.557C488.508 482.894 490.227 463.996 495.64 448.863C501.29 433.709 509.887 422.024 521.43 413.807C532.973 405.591 546.856 400.777 563.077 399.364C581.207 397.786 597.782 400.428 612.802 407.293C628.06 414.136 640.508 424.59 650.145 438.653C660.021 452.696 665.842 469.855 667.608 490.132C669.353 510.171 666.575 527.959 659.275 543.497C652.214 559.015 641.771 571.582 627.946 581.198C614.339 590.556 598.471 596.024 580.34 597.603ZM466.301 604.649L443.18 339.139L499.001 334.278L508.755 446.279L510.131 503.485L516.19 560.645L519.618 600.006L466.301 604.649ZM566.69 552.642C575.994 551.831 584.037 548.968 590.82 544.051C597.841 539.113 603.156 532.521 606.764 524.274C610.591 515.769 612.026 506.029 611.07 495.056C610.094 483.844 606.997 474.499 601.779 467.021C596.799 459.523 590.425 453.949 582.656 450.299C575.125 446.628 566.708 445.198 557.405 446.008C548.101 446.818 539.939 449.692 532.917 454.63C525.896 459.568 520.581 466.16 516.973 474.407C513.364 482.653 512.048 492.382 513.025 503.594C513.98 514.567 516.958 523.923 521.958 531.659C526.938 539.158 533.312 544.732 541.081 548.382C548.851 552.032 557.387 553.452 566.69 552.642Z" fill="white"/>
<path d="M367.123 613.288L363.851 575.716L359.556 567.797L353.698 500.525C352.659 488.597 348.151 479.616 340.175 473.58C332.436 467.524 321.053 465.15 306.024 466.459C295.766 467.352 285.773 469.905 276.044 474.117C266.534 478.07 258.558 483.091 252.118 489.18L228.683 451.922C238.535 443.613 250.68 436.786 265.117 431.443C279.555 426.1 294.407 422.763 309.674 421.434C339.016 418.878 362.401 423.813 379.827 436.236C397.254 448.66 407.245 469.542 409.8 498.884L419.366 608.739L367.123 613.288ZM308.688 621.261C293.659 622.57 280.559 621.187 269.388 617.112C258.196 612.799 249.353 606.478 242.859 598.15C236.365 589.822 232.64 580.171 231.685 569.198C230.688 557.747 232.559 547.489 237.297 538.423C242.275 529.337 250.639 521.878 262.39 516.048C274.12 509.979 289.765 506.093 309.327 504.389L360.497 499.933L363.332 532.496L318.246 536.422C305.125 537.564 296.247 540.501 291.611 545.231C287.214 549.941 285.296 555.516 285.857 561.957C286.48 569.113 289.722 574.6 295.583 578.416C301.661 581.973 309.591 583.325 319.372 582.474C328.675 581.663 336.838 578.789 343.859 573.851C350.859 568.675 355.655 561.647 358.247 552.768L369.079 577.784C366.104 590.542 359.529 600.609 349.355 607.985C339.181 615.361 325.625 619.786 308.688 621.261Z" fill="white"/>
<path d="M124.526 634.412L107.387 437.605C105.497 415.896 110.432 398.04 122.192 384.037C133.931 369.794 151.728 361.635 175.584 359.557C183.695 358.851 191.52 359.011 199.061 360.037C206.84 361.042 213.51 363.105 219.069 366.226L207.919 407.939C204.631 406.062 201.027 404.693 197.106 403.833C193.185 402.972 189.078 402.729 184.784 403.103C176.673 403.809 170.559 406.745 166.442 411.911C162.543 416.818 160.998 423.923 161.809 433.226L163.367 451.118L166.886 474.968L180.347 629.551L124.526 634.412ZM82.1744 491.719L78.4351 448.779L211.906 437.156L215.645 480.096L82.1744 491.719Z" fill="white"/>
</svg>
