<svg width="21" height="16" viewBox="0 0 21 16" fill="none" xmlns="http://www.w3.org/2000/svg">
<path d="M12.5206 4.14912C14.1681 5.9266 15.8155 7.70408 17.463 9.48155L17.948 7.64069C15.5546 8.58249 13.3904 9.97081 11.5754 11.8024C10.5775 12.8094 12.1311 14.3678 13.1298 13.36C14.6645 11.8113 16.501 10.5641 18.5324 9.7648C19.3015 9.46218 19.6206 8.57475 19.0174 7.92394C17.3699 6.14646 15.7224 4.36899 14.075 2.59151C13.1101 1.55055 11.5584 3.11099 12.5206 4.14912Z" fill="white"/>
<path d="M3.61641 9.07878H15.5024C16.9168 9.07878 16.9192 6.87598 15.5024 6.87598H3.61641C2.20195 6.87598 2.19961 9.07878 3.61641 9.07878Z" fill="white"/>
</svg>