<svg width="73" height="72" viewBox="0 0 73 72" fill="none" xmlns="http://www.w3.org/2000/svg">
<rect width="50.8795" height="29.5375" transform="matrix(0.707069 -0.707144 -0.707069 -0.707144 28.8516 64.3518)" fill="#4361EE"/>
<rect x="0.453125" y="35.9907" width="50.8957" height="13.0782" transform="rotate(-45 0.453125 35.9907)" fill="#3F37CA"/>
<rect width="50.9188" height="13.0443" transform="matrix(0.707069 -0.707144 0.707069 0.707144 27.2344 62.7758)" fill="#4895EF"/>
<path d="M28.8431 46.44C29.4405 46.44 29.9725 46.5567 30.4391 46.79C30.9151 47.0233 31.2885 47.3827 31.5591 47.868C31.8298 48.344 31.9651 48.96 31.9651 49.716V54H30.2151V49.94C30.2151 49.2773 30.0565 48.7827 29.7391 48.456C29.4311 48.1293 28.9971 47.966 28.4371 47.966C28.0265 47.966 27.6625 48.05 27.3451 48.218C27.0278 48.386 26.7805 48.638 26.6031 48.974C26.4351 49.3007 26.3511 49.716 26.3511 50.22V54H24.6011V46.524H26.2671V48.54L25.9731 47.924C26.2345 47.448 26.6125 47.084 27.1071 46.832C27.6111 46.5707 28.1898 46.44 28.8431 46.44ZM37.4188 54.098C36.6534 54.098 35.9721 53.9347 35.3748 53.608C34.7774 53.272 34.3061 52.8147 33.9608 52.236C33.6154 51.6573 33.4428 50.9993 33.4428 50.262C33.4428 49.5153 33.6154 48.8573 33.9608 48.288C34.3061 47.7093 34.7774 47.2567 35.3748 46.93C35.9721 46.6033 36.6534 46.44 37.4188 46.44C38.1934 46.44 38.8794 46.6033 39.4768 46.93C40.0834 47.2567 40.5548 47.7047 40.8908 48.274C41.2361 48.8433 41.4088 49.506 41.4088 50.262C41.4088 50.9993 41.2361 51.6573 40.8908 52.236C40.5548 52.8147 40.0834 53.272 39.4768 53.608C38.8794 53.9347 38.1934 54.098 37.4188 54.098ZM37.4188 52.6C37.8481 52.6 38.2308 52.5067 38.5668 52.32C38.9028 52.1333 39.1641 51.8627 39.3508 51.508C39.5468 51.1533 39.6448 50.738 39.6448 50.262C39.6448 49.7767 39.5468 49.3613 39.3508 49.016C39.1641 48.6613 38.9028 48.3907 38.5668 48.204C38.2308 48.0173 37.8528 47.924 37.4328 47.924C37.0034 47.924 36.6208 48.0173 36.2848 48.204C35.9581 48.3907 35.6968 48.6613 35.5008 49.016C35.3048 49.3613 35.2068 49.7767 35.2068 50.262C35.2068 50.738 35.3048 51.1533 35.5008 51.508C35.6968 51.8627 35.9581 52.1333 36.2848 52.32C36.6208 52.5067 36.9988 52.6 37.4188 52.6ZM44.7251 54L41.5191 46.524H43.3391L46.0971 53.118H45.2011L48.0571 46.524H49.7371L46.5311 54H44.7251Z" fill="white"/>
</svg>
