<svg width="311" height="173" viewBox="0 0 311 173" fill="none" xmlns="http://www.w3.org/2000/svg">
<g clip-path="url(#clip0_273_3160)">
<path d="M19.1585 28.7538C44.0766 55.6381 68.9948 82.5224 93.9129 109.407L101.249 81.5638C65.0479 95.8085 32.3139 116.807 4.86243 144.509C-10.2312 159.741 13.2679 183.311 28.3725 168.068C51.5849 144.644 79.363 125.781 110.087 113.691C121.72 109.114 126.547 95.6913 117.423 85.8479C92.5049 58.9635 67.5867 32.0792 42.6686 5.19484C28.0757 -10.5496 4.60509 13.052 19.1585 28.7538Z" fill="white"/>
<path d="M115.166 172.947H294.941C316.335 172.947 316.37 139.63 294.941 139.63H115.166C93.7723 139.63 93.7368 172.947 115.166 172.947Z" fill="white"/>
</g>
<defs>
<clipPath id="clip0_273_3160">
<rect width="311" height="173" fill="white"/>
</clipPath>
</defs>
</svg>
