<svg width="311" height="229" viewBox="0 0 311 229" fill="none" xmlns="http://www.w3.org/2000/svg">
<g clip-path="url(#clip0_273_3162)">
<path d="M64.3835 49.0745C44.2078 70.6732 24.0321 92.2719 3.85635 113.871C-3.53076 121.779 0.377514 132.562 9.79594 136.239C34.6724 145.952 57.1645 161.107 75.9589 179.926C88.1836 192.166 107.221 173.241 94.9946 160.999C72.7674 138.743 46.2637 121.873 16.9525 110.429L22.8921 132.798C43.0678 111.199 63.2436 89.6003 83.4193 68.0015C95.1979 55.3922 76.2042 36.4201 64.3835 49.0745Z" fill="white"/>
<path d="M227.581 68.0014C247.756 89.6002 267.932 111.199 288.108 132.798C290.088 125.341 292.068 117.885 294.047 110.429C264.736 121.873 238.232 138.743 216.005 160.999C203.784 173.236 222.811 192.172 235.041 179.926C253.836 161.107 276.327 145.952 301.204 136.239C310.622 132.562 314.531 121.779 307.144 113.87C286.968 92.2718 266.792 70.6731 246.616 49.0744C234.801 36.4254 215.797 55.3867 227.581 68.0014Z" fill="white"/>
<path d="M132.937 219.152C159.403 151.756 185.868 84.3598 212.334 16.9636C214.979 10.2286 209.426 2.27437 202.933 0.500368C195.309 -1.58237 189.029 3.0883 186.375 9.84791C159.909 77.2441 133.444 144.64 106.978 212.036C104.333 218.771 109.886 226.726 116.379 228.5C124.003 230.582 130.282 225.912 132.937 219.152Z" fill="white"/>
</g>
<defs>
<clipPath id="clip0_273_3162">
<rect width="311" height="229" fill="white"/>
</clipPath>
</defs>
</svg>
