<svg width="311" height="219" viewBox="0 0 311 219" fill="none" xmlns="http://www.w3.org/2000/svg">
<g clip-path="url(#clip0_273_3159)">
<path d="M43.0108 46.8006C42.9229 74.2362 43.2799 102.412 54.1216 128.066C64.0023 151.446 81.8883 170.288 106.511 177.657C119.257 181.472 132.879 182.307 146.109 182.512C159.465 182.72 173.127 182.199 186.113 178.785C210.392 172.402 229.305 154.462 239.704 131.821C252.776 103.358 252.689 71.9799 251.815 41.2653C251.596 33.6017 243.551 25.4027 235.361 28.6729C180.028 50.7658 118.494 50.3051 63.4657 27.4758C56.9741 24.7827 49.1736 30.39 47.476 36.5967C45.4241 44.0991 50.0387 49.9574 56.5547 52.6607C115.204 76.9921 183.311 77.3993 242.272 53.8577L225.818 41.2653C226.87 78.2166 228.225 133.7 187.041 151.059C177.316 155.158 166.599 156.144 156.171 156.38C145.312 156.625 134.081 156.635 123.352 154.788C103.199 151.318 88.8884 140.133 79.74 121.888C68.2384 98.9504 68.9277 71.805 69.0078 46.8006C69.0617 29.9929 43.0647 29.9697 43.0108 46.8006Z" fill="white"/>
<path d="M250.617 86.2457C248.487 87.973 252.292 85.3601 252.744 85.0792C254.102 84.4265 254.115 84.3951 252.783 84.9852C253.32 84.7795 253.865 84.5965 254.417 84.436C255.035 84.247 259.019 83.4854 256.017 83.8542C257.346 83.691 258.693 83.6647 260.029 83.7175C260.603 83.7317 261.176 83.7709 261.747 83.8351C260.206 83.6288 260.168 83.6658 261.634 83.9459C262.226 84.1539 266.386 85.8183 263.684 84.466C264.666 84.9576 265.59 85.5621 266.565 86.0577C267.773 86.9039 267.787 86.8645 266.608 85.9397C267.176 86.4021 267.726 86.8865 268.256 87.3925C269.05 88.1508 269.801 88.9573 270.499 89.8057C268.629 87.5333 271.198 91.2115 271.499 91.7372C273.098 94.5353 271.105 89.7338 271.936 92.8251C272.095 93.4146 273.051 98.0729 272.648 94.8965C272.791 96.0246 272.84 97.1714 272.844 98.3084C272.847 98.9542 272.295 103.607 272.837 100.549C272.636 101.687 272.4 102.816 272.101 103.932C271.963 104.449 270.346 108.887 271.481 106.26C270.42 108.716 269.017 111.054 267.433 113.204C269.064 110.99 266.571 114.092 266.186 114.504C265.278 115.476 264.33 116.408 263.343 117.299C262.778 117.809 262.201 118.305 261.613 118.789C262.753 117.934 262.723 117.951 261.522 118.839C260.573 119.486 259.639 120.148 258.667 120.762C256.387 122.202 254.006 123.418 251.594 124.61C250.216 125.225 250.197 125.247 251.538 124.676C250.83 124.965 250.118 125.243 249.402 125.51C248.117 125.99 246.818 126.435 245.512 126.853C242.466 127.829 239.367 128.637 236.248 129.338C229.54 130.846 222.73 131.831 215.931 132.818C209.177 133.798 204.878 142.754 206.852 148.882C209.243 156.306 215.604 159.053 222.842 158.003C247.93 154.362 273.6 148.431 289.537 126.842C304.742 106.243 301.047 73.1198 276.306 61.6881C261.159 54.6894 245.065 57.3713 232.235 67.7777C226.921 72.0878 227.436 81.8207 232.235 86.2457C237.877 91.4497 244.948 90.8436 250.617 86.2457Z" fill="white"/>
<path d="M68.184 46.6025C84.7646 22.3607 124.001 26.1 149.278 26.1151C177.947 26.1322 209.194 29.5562 229.338 52.3944C240.456 64.9997 258.786 46.4724 247.72 33.9264C222.419 5.24027 182.858 -0.155241 146.779 0.0033462C110.537 0.162612 68.5264 0.100086 45.7364 33.4203C41.7588 39.2358 44.6542 47.9113 50.3996 51.2873C56.8417 55.0728 64.1972 52.4314 68.184 46.6025Z" fill="white"/>
<path d="M66.9809 128.359C48.1705 126.085 28.2458 125.668 13.1017 138.913C0.0365551 150.34 -4.59563 169.691 5.40529 184.691C13.8088 197.295 28.8718 203.279 43.0098 206.663C62.3279 211.286 82.0848 214.349 101.824 216.448C140.292 220.538 179.025 219.621 217.329 214.353C235.632 211.836 254.49 208.866 272.165 203.318C287.349 198.551 302.634 190.222 308.703 174.563C315.74 156.407 305.753 137.647 290.375 127.701C271.366 115.408 247.638 120.31 227.223 125.582C211.031 129.763 217.894 154.96 234.134 150.767C246.319 147.62 261.865 142.65 274.031 148.396C281.064 151.718 288.288 159.835 283.398 167.418C278.666 174.756 267.335 177.753 259.233 179.825C244.764 183.525 230.025 186.323 215.254 188.485C185.034 192.908 154.197 193.928 123.726 192.137C108.632 191.249 93.584 189.652 78.6646 187.183C65.4801 185.001 51.4482 183.051 38.9065 178.232C31.5438 175.402 21.6684 169.56 27.9123 161.002C36.3611 149.422 54.9573 153.023 66.9809 154.477C73.9622 155.321 79.9793 147.871 79.9793 141.418C79.9793 133.658 73.9826 129.206 66.9809 128.359Z" fill="white"/>
</g>
<defs>
<clipPath id="clip0_273_3159">
<rect width="311" height="219" fill="white"/>
</clipPath>
</defs>
</svg>
