<svg width="306" height="311" viewBox="0 0 306 311" fill="none" xmlns="http://www.w3.org/2000/svg">
<g clip-path="url(#clip0_273_3156)">
<path d="M136.565 255.572C104.458 273.286 69.9672 284.959 32.9629 283.155L42.6933 306.749C64.3373 287.229 79.9014 264.677 89.8799 237.215C92.5637 229.828 86.8009 222.562 80.2687 220.213C43.1797 206.879 21.5955 162.37 28.4255 124.346C36.3331 80.3227 72.2285 45.5436 114.179 33.11C161.401 19.1138 213.54 31.3223 247.227 67.9581C277.978 101.401 287.576 150.106 269.532 192.25C259.321 216.098 241.188 235.093 217.973 246.401C195.37 257.411 171.471 258.22 147.169 254.179C139.845 252.961 132.355 256.105 130.241 263.832C128.432 270.445 132.479 279.607 139.852 280.833C152.639 282.959 165.132 285.037 178.157 284.309C192.686 283.496 207.133 280.546 220.672 275.163C247.397 264.537 269.898 246.191 285.137 221.622C314.924 173.601 312.537 110.512 279.757 64.6555C244.293 15.0446 184.697 -7.60281 125.068 2.26635C71 11.2152 21.8864 50.3095 5.23062 103.412C-12.5583 160.127 16.2593 226.486 72.9524 246.868L63.3413 229.866C54.9969 252.831 41.243 270.96 23.2325 287.203C13.8633 295.653 21.741 310.25 32.9629 310.797C74.6744 312.83 114.288 299.395 150.456 279.44C165.983 270.873 152.113 246.994 136.565 255.572Z" fill="white"/>
</g>
<defs>
<clipPath id="clip0_273_3156">
<rect width="306" height="311" fill="white"/>
</clipPath>
</defs>
</svg>
