<svg width="232" height="311" viewBox="0 0 232 311" fill="none" xmlns="http://www.w3.org/2000/svg">
<g clip-path="url(#clip0_273_3158)">
<path d="M34.445 294.565C32.8333 201.148 31.2216 107.731 29.6098 14.315L4.33836 24.7609C71.7148 83.1394 139.091 141.518 206.468 199.896L220.871 175.205C197.075 169.057 173.259 162.988 149.42 157.009C128.413 151.74 103.309 142.806 87.0006 162.658C80.0138 171.163 75.2772 181.585 69.923 191.138C63.6785 202.279 57.434 213.42 51.1895 224.561C39.1808 245.987 27.1721 267.412 15.1634 288.837C5.85218 305.45 31.4161 320.364 40.7284 303.749C62.3424 265.187 83.7009 226.469 105.575 188.053C108.937 182.149 110.329 178.76 117.56 179.701C127.523 180.998 137.542 184.49 147.27 186.936C169.199 192.45 191.108 198.039 213 203.696C226.569 207.202 239.01 189.061 227.403 179.005C160.027 120.626 92.6504 62.2475 25.2739 3.86905C15.9997 -4.1667 -0.23076 0.79424 0.00248675 14.315C1.61425 107.731 3.22595 201.148 4.83772 294.565C5.16535 313.556 34.7737 313.616 34.445 294.565Z" fill="white"/>
</g>
<defs>
<clipPath id="clip0_273_3158">
<rect width="232" height="311" fill="white"/>
</clipPath>
</defs>
</svg>
