<svg width="266" height="311" viewBox="0 0 266 311" fill="none" xmlns="http://www.w3.org/2000/svg">
<g clip-path="url(#clip0_273_3157)">
<path d="M150.72 236.245C184.407 184.733 218.095 133.22 251.783 81.707C259.994 69.1512 266.588 57.9417 265.958 42.4872C265.643 34.7319 266.294 26.9978 264.509 19.3464C259.649 -1.4839 238.385 -2.37248 221.245 2.346C215.243 3.99834 209.13 5.17481 203.486 8.08686C197.791 11.0252 192.819 15.6597 188.421 20.2628C178.216 30.9439 168.307 41.9216 158.193 52.6903C137.575 74.6411 116.805 96.4485 96.1368 118.352C85.505 129.619 74.8997 140.912 64.3557 152.261C59.1832 157.829 54.8319 161.801 48.384 165.819C42.2381 169.648 35.148 173.102 29.8728 178.132C18.496 188.98 22.6234 203.708 33.6665 212.708C39.6399 217.576 45.7038 222.336 51.7344 227.132C68.3157 240.32 84.9318 253.465 101.491 266.681C110.902 274.193 122.049 285.602 134.989 278.505C142.488 274.393 144.474 266.328 146.197 258.641C148.092 250.195 149.986 241.748 151.88 233.302L148.475 239.152L148.65 238.928C153.045 233.291 154.14 225.678 148.65 220.18C144.073 215.597 134.353 214.505 129.928 220.18C125.471 225.897 124.781 233.247 123.224 240.19C122.467 243.568 121.709 246.947 120.951 250.326C120.572 252.015 120.206 253.707 119.815 255.393C118.612 260.582 118.748 255.668 122.96 254.697H129.998C126.488 254.217 121.4 248.879 117.573 245.828C111.625 241.087 105.669 236.355 99.7133 231.624C87.0816 221.591 74.439 211.571 61.8269 201.513C60.4099 200.383 50.0923 190.496 48.7403 190.89C48.0444 191.093 48.5331 197.585 48.0121 197.365C47.997 197.359 50.4432 195.759 50.7734 195.551C53.3252 193.941 55.8945 192.359 58.4549 190.764C64.0454 187.28 70.4481 184.139 75.1787 179.536C92.9903 162.207 109.295 142.966 126.382 124.905C143.827 106.467 161.311 88.065 178.681 69.5562C187.223 60.4548 195.724 51.3165 204.205 42.1587C207.264 38.8557 210.329 35.175 214.041 32.5961C217.765 30.0088 221.995 29.7517 226.286 28.4863C229.729 27.4707 234.13 26.3375 236.32 26.1693C236.974 26.1191 241.023 25.9518 239.409 26.0073C237.364 26.0776 239.864 26.0148 239.711 26.0967C240.878 26.4702 240.932 26.4428 239.874 26.0145C239 25.6001 238.872 25.555 239.489 25.8793C239.685 26.0627 237.796 24.092 239.612 26.0893C238.344 24.6948 238.559 24.9331 238.362 24.2146C238.647 25.2515 238.915 26.2837 239.17 27.3295C239.341 28.0309 239.375 29.7936 239.116 26.8025C239.178 27.5166 239.264 28.2341 239.287 28.9508C239.49 35.2074 240.62 42.7397 239.638 48.8422C238.875 53.5913 235.676 57.9158 233.141 61.8632C229.627 67.3326 226.028 72.7486 222.47 78.1892C190.933 126.414 159.396 174.639 127.858 222.863C118.496 237.179 141.412 250.479 150.72 236.245Z" fill="white"/>
<path d="M117.119 98.0422C94.9778 98.7868 72.8363 99.5315 50.6948 100.276C40.0353 100.635 28.923 100.876 19.8248 107.216C11.7688 112.831 6.44505 120.979 1.71774 129.424C-0.871937 134.05 -0.801564 141.873 3.78769 145.489C18.0664 156.739 32.3451 167.988 46.6237 179.238C52.2372 183.661 59.8679 184.723 65.3451 179.238C69.9366 174.64 70.9952 164.942 65.3451 160.49C51.0665 149.24 36.7878 137.991 22.5091 126.741L24.579 142.806C27.572 137.459 30.9761 130.614 35.807 128.455C42.2715 125.567 51.7811 126.753 58.9979 126.511C78.3717 125.859 97.7455 125.207 117.119 124.556C124.267 124.315 130.357 118.635 130.357 111.299C130.357 104.302 124.298 97.8007 117.119 98.0422Z" fill="white"/>
<path d="M170.406 165.698L182.17 220.605C183.114 225.011 184.062 229.416 185.003 233.823C185.778 237.457 187.095 241.712 186.339 245.495C185.275 250.818 179.058 255.979 174.981 259.828H193.702C179.342 248.684 164.981 237.54 150.62 226.395C144.974 222.014 137.402 220.884 131.898 226.395C127.337 230.964 126.215 240.733 131.898 245.143C146.259 256.288 160.62 267.432 174.981 278.576C180.77 283.069 187.955 284.003 193.702 278.576C201.011 271.675 208.134 264.049 211.245 254.247C214.671 243.456 211.734 232.383 209.444 221.691C204.941 200.677 200.439 179.663 195.936 158.649C194.436 151.646 186.261 147.571 179.652 149.39C172.42 151.38 168.901 158.674 170.406 165.698Z" fill="white"/>
<path d="M72.535 224.832C56.2078 227.125 40.1828 231.708 30.4669 246.14C25.8135 253.052 25.0947 261.327 23.9733 269.332C22.812 277.621 21.6508 285.909 20.4895 294.198C19.8089 299.056 20.228 303.425 23.8939 307.096C27.1826 310.39 32.2683 311.842 36.7738 310.506C37.8514 310.186 38.929 309.903 40.0322 309.686C43.5002 309.004 38.0443 309.673 40.8075 309.571C42.7581 309.499 44.699 309.358 46.6533 309.349C50.88 309.33 55.1117 309.544 59.3349 309.286C69.8072 308.645 80.3579 305.429 87.4621 297.234C94.3742 289.26 97.8319 279.606 98.5882 269.147C99.3524 258.578 96.5741 247.899 93.8586 237.777C92.0622 231.08 84.3482 226.322 77.5742 228.517C70.7132 230.741 66.4031 237.649 68.3282 244.825C69.4566 249.031 70.5828 253.243 71.4113 257.521C71.6267 258.634 71.8003 259.752 71.9919 260.868C72.2679 262.476 71.8823 258.664 71.9997 261.264C72.1019 263.525 72.2774 265.75 72.1764 268.018C72.1356 268.934 71.9162 269.997 71.9446 270.914L72.1626 269.155C72.0629 269.743 71.9488 270.329 71.8201 270.911C71.4627 272.527 70.9206 274.053 70.4214 275.626C69.937 277.152 71.7133 273.217 70.522 275.317C70.0862 276.086 69.7084 276.884 69.2453 277.639C69.0183 278.015 68.7794 278.383 68.5289 278.744C67.9666 279.553 68.2238 279.244 69.3003 277.818C68.6861 278.303 68.1154 279.196 67.5536 279.756L66.9263 280.357C65.8518 281.281 66.0724 281.141 67.5883 279.937C67.5965 280.212 65.9545 281.007 65.7487 281.125C65.3479 281.364 64.9376 281.585 64.5177 281.789C66.0982 281.173 66.4285 281.039 65.5084 281.386C64.7628 281.619 64.0338 281.9 63.2786 282.106C62.9404 282.199 60.8763 282.967 60.5313 282.714C62.3401 282.503 62.7332 282.454 61.7106 282.569C61.2379 282.624 60.7641 282.67 60.2894 282.705C58.3634 282.86 56.4295 282.896 54.4981 282.9C46.1849 282.913 37.8161 282.543 29.7352 284.939L46.0196 301.247C47.0459 293.922 48.0721 286.597 49.0983 279.272C49.6076 275.637 50.0888 271.996 50.6316 268.366C50.8783 266.716 51.1471 265.065 51.5589 263.447C51.6577 263.06 52.3959 260.029 51.8894 261.974C51.4621 263.614 52.1895 261.406 52.397 261.035C52.6871 260.517 53.0174 260.027 53.328 259.522C54.7838 257.155 52.0177 260.791 53.1636 259.747C53.7967 259.17 55.8061 257.705 56.0441 256.936C54.6511 257.973 54.3511 258.204 55.1443 257.628C55.386 257.448 55.6327 257.276 55.8844 257.11C56.508 256.687 57.1445 256.282 57.7958 255.903C58.3164 255.6 58.8456 255.309 59.3809 255.033C59.5055 254.968 62.1527 253.736 60.3312 254.53C58.4674 255.343 61.2861 254.206 61.6736 254.073C62.5193 253.784 63.3744 253.522 64.2339 253.277C65.7844 252.835 67.3529 252.461 68.9307 252.131C72.45 251.395 76.0146 250.898 79.5732 250.398C82.6155 249.971 86.0135 246.824 87.4847 244.306C89.1452 241.465 89.8487 237.277 88.8192 234.091C87.7826 230.883 85.7976 227.788 82.7355 226.168C79.3664 224.386 76.271 224.307 72.535 224.832Z" fill="white"/>
<path d="M204.904 70.3382C206.424 71.3069 208.065 71.8317 209.827 71.9117C211.586 72.3063 213.346 72.2274 215.105 71.6749C216.828 71.2648 218.329 70.4738 219.607 69.3021C221.048 68.3673 222.185 67.1275 223.017 65.5826L224.351 62.4158C224.982 60.0663 224.982 57.7169 224.351 55.3674L223.017 52.2006C221.84 50.2085 220.257 48.6232 218.268 47.4447C216.748 46.4759 215.107 45.9512 213.345 45.8711C211.586 45.4765 209.826 45.5555 208.066 46.1079C206.344 46.5181 204.843 47.309 203.565 48.4808C202.123 49.4156 200.987 50.6554 200.155 52.2002L198.821 55.367C198.19 57.7165 198.19 60.066 198.821 62.4154L200.155 65.5822C201.332 67.5743 202.915 69.1596 204.904 70.3382Z" fill="white"/>
</g>
<defs>
<clipPath id="clip0_273_3157">
<rect width="266" height="311" fill="white"/>
</clipPath>
</defs>
</svg>
