<svg width="311" height="311" viewBox="0 0 311 311" fill="none" xmlns="http://www.w3.org/2000/svg">
<g clip-path="url(#clip0_273_3161)">
<path d="M156.475 3.50778e-06C92.8097 0.0399601 33.2514 40.762 10.0089 99.9327C-12.9515 158.385 4.59454 231.647 52.3594 272.631C100.878 314.261 173.588 323.738 229.993 292.545C285.736 261.718 318.426 197.138 309.557 134.146C304.363 97.2586 285.443 61.6226 256.565 37.8233C226.495 13.0421 187.865 -0.307094 148.821 2.07752C130.491 3.19699 130.364 31.868 148.821 30.7408C206.748 27.2029 260.378 63.5981 277.113 119.465C292.302 170.174 273.224 225.476 231.302 257.584C189.563 289.551 131.004 289.901 86.809 262.598C42.2184 235.049 20.3783 178.623 31.5159 127.804C44.0654 70.544 98.175 28.6998 156.475 28.6632C174.921 28.6517 174.953 -0.0115764 156.475 3.50778e-06Z" fill="white"/>
<path d="M81.5077 207.72C100.623 227.195 127.136 238.236 154.352 239.003C182.9 239.809 210.046 228.098 229.86 207.72C242.727 194.487 222.477 174.197 209.588 187.452C194.745 202.718 175.536 210.938 154.352 210.34C134.711 209.786 115.642 201.576 101.779 187.452C88.8357 174.265 68.5691 194.538 81.5077 207.72Z" fill="white"/>
<path d="M107.034 92.1838C104.11 92.9299 101.755 94.4589 99.5841 96.504C98.5732 97.4566 97.6789 98.6206 97.0103 99.844C96.6503 100.503 96.4603 101.066 96.1291 101.85C95.8927 102.411 95.451 103.274 95.2523 103.985C94.8491 105.427 94.6116 106.976 94.6358 108.462C94.6383 108.614 94.6487 108.758 94.6576 108.91C94.7182 109.954 94.9258 111.944 95.2095 112.941C95.5822 114.25 96.225 115.73 96.8569 116.926C97.5595 118.255 98.5526 119.456 99.575 120.544C100.8 121.847 102.277 123.023 103.905 123.779C105.177 124.37 106.557 125.083 107.932 125.417C108.663 125.594 109.531 125.656 110.209 125.747C110.946 125.846 111.86 126.031 112.668 126.049C114.633 126.091 116.691 125.804 118.56 125.175C120.202 124.622 122.306 123.819 123.867 122.779C126.907 120.753 129.92 118.138 131.513 114.764C132.93 111.761 133.793 109.41 133.755 105.991C133.748 105.318 133.515 104.088 133.479 103.821C133.396 103.206 133.325 102.247 133.151 101.522C132.794 100.039 132.137 98.5527 131.38 97.2556C131.292 97.1034 131.197 96.9656 131.101 96.8198C130.45 95.8391 129.487 94.5843 128.698 93.7153C127.719 92.6389 126.279 91.6936 125.236 90.9247C124.985 90.7404 124.743 90.5634 124.467 90.4171C123.814 90.0717 123.03 89.7893 122.399 89.5232C121.697 89.2271 120.906 88.8322 120.137 88.6055C116.368 87.4948 111.9 87.6779 108.155 88.7696C107.797 88.8737 107.451 89.0021 107.104 89.1379C105.706 89.6863 104.258 90.2323 102.926 90.9368C102.641 91.0876 102.365 91.2551 102.1 91.4389C100.853 92.3035 99.5645 93.2522 98.444 94.2786C98.1703 94.5294 97.9313 94.8044 97.6959 95.0902C96.7893 96.1904 95.7955 97.3337 95.0673 98.5682C94.1028 100.203 93.2856 102.059 92.9109 103.938C92.6617 105.187 92.4537 106.752 92.3627 108.021C92.3495 108.204 92.3347 108.383 92.336 108.569C92.3465 110.024 92.6334 111.641 92.9071 113.06C93.0876 113.996 93.4906 114.758 93.8747 115.668C94.2436 116.542 94.5404 117.427 95.0489 118.223C96.5982 120.65 97.6487 121.691 99.717 123.288C101.979 125.035 103.15 125.62 106.061 126.719C107.246 127.166 108.355 127.266 109.638 127.438C111.107 127.635 112.354 127.845 113.804 127.682C115.748 127.463 117.763 127.295 119.642 126.698C121.59 126.079 123.468 125.2 125.331 124.372C126.668 123.778 128.005 123.142 129.204 122.298C130.633 121.293 132.132 120.247 133.375 119.003C134.006 118.371 134.527 117.607 135.065 116.911C135.598 116.22 136.282 115.471 136.702 114.659C138.232 111.711 138.942 109.151 139.136 105.837C139.248 103.921 138.993 101.894 138.324 100.094C137.149 96.9299 136.043 94.8436 133.686 92.3308C132.396 90.9561 130.82 89.7407 129.152 88.8578C127.544 88.0061 125.734 87.1205 123.905 86.7673C122.335 86.4642 120.664 86.2136 119.064 86.1353C118.577 86.1115 118.088 86.13 117.603 86.1798C115.475 86.3986 113.29 86.6175 111.226 87.223C110.218 87.5186 109.235 87.8902 108.254 88.2642C106.388 88.7076 104.763 89.5627 103.379 90.8294C101.819 91.84 100.588 93.1803 99.6872 94.8504C98.6398 96.4954 98.0728 98.2716 97.9863 100.179C97.5596 102.084 97.6449 103.989 98.2423 105.894C99.3647 109.362 101.514 112.707 104.83 114.459L108.254 115.904C110.794 116.586 113.334 116.586 115.875 115.904C117.524 115.275 119.18 114.672 120.929 114.391L117.118 114.903C117.989 114.787 118.842 114.762 119.716 114.856L115.905 114.344C116.51 114.435 117.073 114.595 117.639 114.827L114.215 113.383C114.691 113.6 115.131 113.855 115.556 114.162L112.655 111.921C113.059 112.238 113.415 112.582 113.74 112.98L111.499 110.079C111.748 110.415 111.952 110.757 112.125 111.137L110.68 107.713C110.8 108.023 110.888 108.326 110.95 108.652L110.438 104.842C110.491 105.262 110.49 105.66 110.438 106.079L110.95 102.269C110.892 102.586 110.81 102.884 110.7 103.187L112.145 99.7634C111.955 100.208 111.719 100.606 111.431 100.994L113.673 98.0934C113.251 98.6162 112.774 99.0661 112.249 99.4832L115.15 97.2423C113.667 98.3622 111.967 99.153 110.266 99.8807L113.69 98.4359C112.492 98.9314 111.278 99.334 109.993 99.5308L113.804 99.0189C113.044 99.1105 112.302 99.1296 111.543 99.0308L115.353 99.5427C114.774 99.4466 114.228 99.296 113.682 99.0795L117.106 100.524C116.576 100.291 116.096 100.013 115.637 99.6589L118.538 101.9C118.228 101.639 117.955 101.363 117.701 101.049L119.943 103.949C119.704 103.62 119.512 103.286 119.351 102.913L120.796 106.337C120.672 105.997 120.587 105.663 120.529 105.305L121.041 109.115C120.995 108.651 121.005 108.209 121.067 107.747L120.555 111.557C120.641 111.096 120.77 110.665 120.948 110.231L119.503 113.654C119.702 113.228 119.932 112.838 120.208 112.458L117.967 115.358C118.318 114.923 118.702 114.544 119.136 114.192L116.235 116.432C116.832 115.985 117.465 115.629 118.149 115.333L114.725 116.777C115.549 116.449 116.39 116.224 117.266 116.088L113.455 116.6C114.104 116.523 114.734 116.505 115.385 116.567L111.575 116.055C112.093 116.13 112.579 116.249 113.066 116.44L109.642 114.995C110.048 115.182 110.412 115.402 110.766 115.675L107.865 113.434C108.133 113.666 108.367 113.909 108.588 114.187L106.346 111.287C106.498 111.505 106.623 111.716 106.742 111.953L105.297 108.53C105.434 108.862 105.523 109.181 105.579 109.536L105.067 105.726C105.087 105.997 105.087 106.244 105.066 106.516L105.578 102.706C105.524 103.059 105.437 103.385 105.314 103.72L106.759 100.297C106.575 100.717 106.354 101.096 106.088 101.468L108.329 98.5678C107.92 99.0889 107.466 99.5348 106.948 99.9472L109.849 97.7063C109.21 98.1791 108.532 98.5613 107.801 98.8718L111.225 97.4271C110.744 97.6092 110.267 97.746 109.761 97.8368L113.572 97.3249C113.079 97.3864 112.607 97.3975 112.114 97.3398L115.924 97.8517C115.586 97.791 115.271 97.7042 114.95 97.584L118.374 99.0288C118.061 98.8898 117.777 98.7316 117.496 98.5371L120.397 100.778C120.131 100.568 119.904 100.347 119.689 100.085L121.931 102.985C121.784 102.776 121.668 102.578 121.557 102.347L123.002 105.771C122.915 105.542 122.857 105.34 122.813 105.1L123.325 108.91C123.304 108.678 123.303 108.469 123.321 108.237L122.809 112.047C122.857 111.742 122.933 111.467 123.05 111.182L121.605 114.606C121.709 114.4 121.817 114.223 121.952 114.037L119.711 116.938C119.861 116.766 120.004 116.627 120.183 116.486L117.282 118.727C117.4 118.642 117.525 118.57 117.658 118.511L114.234 119.956C114.369 119.896 114.51 119.852 114.655 119.823C116.52 119.38 118.145 118.525 119.529 117.258C121.09 116.247 122.32 114.907 123.221 113.237C124.269 111.592 124.836 109.816 124.922 107.908C125.349 106.003 125.263 104.099 124.666 102.194C123.544 98.7258 121.394 95.38 118.079 93.6285C114.629 91.806 110.874 91.204 107.034 92.1838Z" fill="white"/>
<path d="M187.844 92.1838C184.92 92.9299 182.564 94.4589 180.394 96.504C179.383 97.4566 178.489 98.6206 177.82 99.844C177.46 100.503 177.27 101.066 176.939 101.85C176.702 102.411 176.261 103.274 176.062 103.985C175.659 105.427 175.421 106.976 175.445 108.462C175.448 108.614 175.458 108.758 175.467 108.91C175.528 109.954 175.735 111.944 176.019 112.941C176.392 114.25 177.035 115.73 177.666 116.926C178.369 118.255 179.362 119.456 180.385 120.544C181.61 121.847 183.087 123.023 184.714 123.779C185.987 124.37 187.366 125.083 188.741 125.417C189.473 125.594 190.341 125.656 191.018 125.747C191.756 125.846 192.67 126.031 193.477 126.049C195.443 126.091 197.501 125.804 199.37 125.175C201.011 124.622 203.116 123.819 204.676 122.779C207.717 120.753 210.73 118.138 212.323 114.764C213.74 111.761 214.602 109.41 214.565 105.991C214.557 105.318 214.324 104.088 214.288 103.821C214.206 103.206 214.134 102.247 213.96 101.522C213.604 100.039 212.946 98.5527 212.19 97.2556C212.101 97.1034 212.007 96.9656 211.91 96.8198C211.259 95.8391 210.297 94.5843 209.507 93.7153C208.529 92.6389 207.089 91.6936 206.045 90.9247C205.795 90.7404 205.553 90.5634 205.276 90.4171C204.623 90.0717 203.839 89.7893 203.209 89.5232C202.507 89.2271 201.716 88.8322 200.947 88.6055C197.178 87.4948 192.709 87.6779 188.964 88.7696C188.607 88.8737 188.26 89.0021 187.914 89.1379C186.516 89.6863 185.068 90.2323 183.736 90.9368C183.45 91.0876 183.174 91.2551 182.909 91.4389C181.663 92.3035 180.374 93.2522 179.254 94.2786C178.98 94.5294 178.741 94.8044 178.505 95.0902C177.599 96.1904 176.605 97.3337 175.877 98.5682C174.912 100.203 174.095 102.059 173.721 103.938C173.471 105.187 173.263 106.752 173.172 108.021C173.159 108.204 173.144 108.383 173.146 108.569C173.156 110.024 173.443 111.641 173.717 113.06C173.897 113.996 174.3 114.758 174.684 115.668C175.053 116.542 175.35 117.427 175.858 118.223C177.408 120.65 178.458 121.691 180.527 123.288C182.788 125.035 183.959 125.62 186.871 126.719C188.056 127.166 189.164 127.266 190.447 127.438C191.916 127.635 193.164 127.845 194.613 127.682C196.557 127.463 198.572 127.295 200.451 126.698C202.4 126.079 204.278 125.2 206.141 124.372C207.477 123.778 208.815 123.142 210.014 122.298C211.442 121.293 212.942 120.247 214.184 119.003C214.815 118.371 215.336 117.607 215.874 116.911C216.408 116.22 217.091 115.471 217.512 114.659C219.041 111.711 219.751 109.151 219.945 105.837C220.058 103.921 219.802 101.894 219.134 100.094C217.958 96.9299 216.853 94.8436 214.495 92.3308C213.205 90.9561 211.629 89.7407 209.962 88.8578C208.354 88.0061 206.544 87.1205 204.714 86.7673C203.145 86.4642 201.474 86.2136 199.874 86.1353C199.386 86.1115 198.898 86.13 198.413 86.1798C196.285 86.3986 194.1 86.6175 192.035 87.223C191.027 87.5186 190.044 87.8902 189.063 88.2642C187.198 88.7076 185.573 89.5627 184.189 90.8294C182.628 91.84 181.398 93.1803 180.497 94.8504C179.449 96.4954 178.882 98.2716 178.796 100.179C178.369 102.084 178.455 103.989 179.052 105.894C180.174 109.362 182.324 112.707 185.639 114.459L189.063 115.904C191.604 116.586 194.144 116.586 196.684 115.904C198.334 115.275 199.989 114.672 201.739 114.391L197.928 114.903C198.799 114.787 199.651 114.762 200.525 114.856L196.715 114.344C197.32 114.435 197.883 114.595 198.449 114.827L195.024 113.383C195.501 113.6 195.941 113.855 196.366 114.162L193.465 111.921C193.869 112.238 194.225 112.582 194.55 112.98L192.309 110.079C192.557 110.415 192.762 110.757 192.935 111.137L191.49 107.713C191.61 108.023 191.697 108.326 191.76 108.652L191.248 104.842C191.301 105.262 191.299 105.66 191.247 106.079L191.759 102.269C191.701 102.586 191.62 102.884 191.509 103.187L192.954 99.7634C192.765 100.208 192.529 100.606 192.241 100.994L194.482 98.0934C194.061 98.6162 193.584 99.0661 193.058 99.4832L195.959 97.2423C194.476 98.3622 192.777 99.153 191.075 99.8807L194.499 98.4359C193.301 98.9314 192.087 99.334 190.803 99.5308L194.613 99.0189C193.854 99.1105 193.111 99.1296 192.352 99.0308L196.163 99.5427C195.584 99.4466 195.038 99.296 194.492 99.0795L197.916 100.524C197.385 100.291 196.906 100.013 196.446 99.6589L199.347 101.9C199.038 101.639 198.765 101.363 198.511 101.049L200.752 103.949C200.514 103.62 200.322 103.286 200.161 102.913L201.606 106.337C201.481 105.997 201.396 105.663 201.339 105.305L201.851 109.115C201.805 108.651 201.815 108.209 201.876 107.747L201.364 111.557C201.451 111.096 201.58 110.665 201.757 110.231L200.312 113.654C200.511 113.228 200.741 112.838 201.018 112.458L198.777 115.358C199.127 114.923 199.511 114.544 199.945 114.192L197.044 116.432C197.642 115.985 198.274 115.629 198.959 115.333L195.535 116.777C196.358 116.449 197.2 116.224 198.076 116.088L194.265 116.6C194.914 116.523 195.544 116.505 196.195 116.567L192.384 116.055C192.902 116.13 193.388 116.249 193.875 116.44L190.451 114.995C190.858 115.182 191.222 115.402 191.576 115.675L188.675 113.434C188.943 113.666 189.177 113.909 189.397 114.187L187.156 111.287C187.307 111.505 187.433 111.716 187.552 111.953L186.107 108.53C186.244 108.862 186.333 109.181 186.388 109.536L185.876 105.726C185.897 105.997 185.897 106.244 185.875 106.516L186.387 102.706C186.333 103.059 186.247 103.385 186.124 103.72L187.569 100.297C187.385 100.717 187.164 101.096 186.897 101.468L189.138 98.5678C188.729 99.0889 188.276 99.5348 187.758 99.9472L190.659 97.7063C190.02 98.1791 189.342 98.5613 188.611 98.8718L192.035 97.4271C191.554 97.6092 191.077 97.746 190.571 97.8368L194.382 97.3249C193.889 97.3864 193.416 97.3975 192.923 97.3398L196.734 97.8517C196.396 97.791 196.081 97.7042 195.759 97.584L199.183 99.0288C198.871 98.8898 198.587 98.7316 198.305 98.5371L201.206 100.778C200.941 100.568 200.714 100.347 200.499 100.085L202.74 102.985C202.593 102.776 202.477 102.578 202.367 102.347L203.811 105.771C203.725 105.542 203.666 105.34 203.623 105.1L204.135 108.91C204.114 108.678 204.113 108.469 204.13 108.237L203.618 112.047C203.666 111.742 203.743 111.467 203.86 111.182L202.415 114.606C202.519 114.4 202.626 114.223 202.762 114.037L200.521 116.938C200.67 116.766 200.814 116.627 200.993 116.486L198.091 118.727C198.209 118.642 198.335 118.57 198.468 118.511L195.044 119.956C195.179 119.896 195.319 119.852 195.464 119.823C197.33 119.38 198.954 118.525 200.339 117.258C201.899 116.247 203.13 114.907 204.031 113.237C205.078 111.592 205.645 109.816 205.732 107.908C206.158 106.003 206.073 104.099 205.476 102.194C204.353 98.7258 202.204 95.38 198.888 93.6285C195.438 91.806 191.683 91.204 187.844 92.1838Z" fill="white"/>
</g>
<defs>
<clipPath id="clip0_273_3161">
<rect width="311" height="311" fill="white"/>
</clipPath>
</defs>
</svg>
