<svg width="842" height="1090" viewBox="0 0 842 1090" fill="none" xmlns="http://www.w3.org/2000/svg">
<rect width="842" height="1090" fill="#3A0CA3"/>
<path fill-rule="evenodd" clip-rule="evenodd" d="M535.237 604.708L407.49 731.726L470.555 792.823L597.494 666.608V666.609L659.751 604.708L600.324 545.62L600.325 545.619L498.45 444.326L436.194 506.228L535.238 604.706L535.237 604.708Z" fill="#000043"/>
<path fill-rule="evenodd" clip-rule="evenodd" d="M308.856 506.227L436.602 379.21L374.346 317.309L246.599 444.327L246.598 444.326L184.343 506.227L246.598 568.129L246.599 568.128L345.644 666.608L407.901 604.707L308.856 506.227ZM308.855 506.229V506.227L308.841 506.242L308.855 506.229Z" fill="#000043"/>
<path fill-rule="evenodd" clip-rule="evenodd" d="M290.644 488.116L418.389 361.099L356.133 299.197L228.386 426.216V426.215L166.129 488.116L228.386 550.018L327.431 648.496L389.687 586.596L290.644 488.116ZM290.642 488.117L290.641 488.116L290.628 488.13L290.642 488.117Z" fill="#3A0CA3"/>
<path fill-rule="evenodd" clip-rule="evenodd" d="M517.029 586.595L389.282 713.614L452.347 774.712L579.285 648.497H579.286L641.541 586.597L582.114 527.508L579.286 524.695L480.24 426.214L417.983 488.116L517.029 586.595Z" fill="#3A0CA3"/>
</svg>
