<svg width="1280" height="748" viewBox="0 0 1280 748" fill="none" xmlns="http://www.w3.org/2000/svg">
<rect width="1280" height="440" transform="translate(0 169)" fill="#FAFAFA"/>
<path d="M1281.29 608.472L1135.01 472L1427.56 472L1281.29 608.472Z" fill="#4361EE"/>
<path d="M1278.87 748L1132.72 608.472L1425.02 608.472L1278.87 748Z" fill="#4361EE"/>
<path d="M556.605 266.047L354.42 282.388L395.135 335.314L552.279 308.992L556.605 266.047Z" fill="#4361EE"/>
<path d="M447.132 302.927C448.366 302.731 449.495 302.809 450.52 303.16C451.56 303.489 452.432 304.121 453.134 305.057C453.852 305.97 454.337 307.218 454.589 308.798L456.005 317.705L451.493 318.422L450.188 310.21C449.988 308.957 449.581 308.073 448.966 307.558C448.35 307.043 447.57 306.86 446.625 307.011C445.97 307.115 445.406 307.363 444.935 307.754C444.46 308.126 444.126 308.634 443.932 309.277C443.738 309.921 443.714 310.705 443.861 311.631L445.103 319.438L440.591 320.156L439.286 311.943C439.086 310.69 438.679 309.806 438.063 309.291C437.467 308.773 436.697 308.589 435.752 308.739C435.097 308.844 434.533 309.091 434.062 309.482C433.587 309.854 433.253 310.362 433.059 311.006C432.864 311.649 432.841 312.434 432.988 313.359L434.229 321.167L429.718 321.884L427.245 306.326L431.554 305.641L432.229 309.892L431.222 308.778C431.593 307.631 432.227 306.71 433.125 306.014C434.038 305.296 435.131 304.835 436.404 304.633C437.83 304.406 439.132 304.575 440.309 305.139C441.502 305.681 442.39 306.666 442.973 308.095L441.314 307.914C441.641 306.617 442.317 305.521 443.341 304.627C444.384 303.73 445.648 303.163 447.132 302.927ZM466.36 316.296C465.068 316.501 463.872 316.435 462.77 316.096C461.688 315.754 460.786 315.117 460.065 314.184C459.34 313.232 458.851 311.955 458.596 310.355L457.199 301.564L461.71 300.847L463.002 308.973C463.207 310.265 463.629 311.176 464.267 311.707C464.921 312.216 465.749 312.391 466.752 312.231C467.446 312.121 468.039 311.878 468.533 311.503C469.024 311.109 469.375 310.579 469.585 309.913C469.792 309.228 469.821 308.413 469.671 307.468L468.448 299.776L472.959 299.059L475.432 314.616L471.153 315.297L470.472 311.017L471.451 312.136C471.102 313.299 470.461 314.241 469.528 314.962C468.611 315.661 467.555 316.106 466.36 316.296ZM479.323 313.998L476.849 298.44L481.36 297.723L483.834 313.281L479.323 313.998ZM478.76 295.913C477.931 296.045 477.218 295.911 476.621 295.512C476.024 295.112 475.668 294.556 475.555 293.843C475.441 293.13 475.607 292.491 476.051 291.926C476.494 291.361 477.131 291.013 477.96 290.881C478.789 290.749 479.5 290.873 480.095 291.253C480.686 291.614 481.038 292.151 481.151 292.864C481.271 293.616 481.11 294.284 480.669 294.868C480.245 295.43 479.608 295.778 478.76 295.913ZM494.13 311.881C492.299 312.172 490.798 311.936 489.63 311.173C488.458 310.391 487.724 309.075 487.43 307.224L485.26 293.575L489.771 292.858L491.932 306.449C492.036 307.104 492.291 307.588 492.696 307.899C493.099 308.191 493.598 308.289 494.196 308.194C494.909 308.081 495.486 307.791 495.926 307.326L497.646 310.314C497.236 310.715 496.716 311.055 496.089 311.332C495.477 311.588 494.824 311.771 494.13 311.881ZM484.014 301.215L483.462 297.745L494.249 296.03L494.8 299.5L484.014 301.215ZM509.552 309.192L509.069 306.156L508.674 305.537L507.81 300.1C507.657 299.136 507.238 298.432 506.555 297.987C505.891 297.539 504.951 297.412 503.737 297.605C502.908 297.737 502.11 298.002 501.343 298.4C500.593 298.777 499.973 299.231 499.484 299.763L497.364 296.869C498.117 296.136 499.065 295.511 500.208 294.993C501.352 294.476 502.54 294.119 503.774 293.922C506.145 293.545 508.075 293.812 509.564 294.722C511.053 295.631 511.985 297.272 512.362 299.643L513.774 308.521L509.552 309.192ZM504.846 310.177C503.632 310.37 502.558 310.334 501.626 310.067C500.692 309.78 499.936 309.317 499.36 308.678C498.784 308.038 498.425 307.275 498.284 306.388C498.137 305.462 498.23 304.618 498.563 303.853C498.916 303.085 499.553 302.431 500.475 301.889C501.393 301.328 502.643 300.921 504.224 300.67L508.359 300.013L508.778 302.644L505.134 303.223C504.074 303.392 503.369 303.682 503.019 304.093C502.689 304.502 502.565 304.966 502.648 305.487C502.74 306.065 503.035 306.492 503.533 306.769C504.048 307.023 504.701 307.087 505.491 306.962C506.243 306.842 506.89 306.561 507.433 306.119C507.972 305.658 508.322 305.059 508.481 304.322L509.506 306.294C509.338 307.348 508.861 308.205 508.076 308.863C507.292 309.522 506.215 309.96 504.846 310.177Z" fill="white"/>
<path d="M416.781 290.088C416.89 290.508 417.127 290.844 417.493 291.095C417.863 291.342 418.335 291.436 418.908 291.38C419.357 291.336 419.74 291.228 420.055 291.058C420.375 290.883 420.643 290.668 420.86 290.413L421.663 291.317C421.303 291.756 420.905 292.072 420.47 292.263C420.04 292.453 419.561 292.575 419.031 292.627C418.551 292.674 418.097 292.638 417.667 292.519C417.238 292.4 416.858 292.213 416.528 291.958C416.197 291.699 415.925 291.38 415.713 291.002C415.505 290.623 415.377 290.191 415.329 289.706C415.282 289.235 415.317 288.794 415.434 288.382C415.555 287.966 415.743 287.6 415.999 287.283C416.259 286.961 416.581 286.7 416.966 286.501C417.349 286.297 417.784 286.171 418.268 286.123C418.771 286.073 419.235 286.115 419.661 286.248C420.087 286.377 420.46 286.589 420.781 286.885C421.107 287.181 421.375 287.556 421.586 288.011C421.797 288.462 421.931 288.983 421.99 289.574L416.781 290.088ZM420.309 288.514C420.199 288.121 419.96 287.821 419.594 287.615C419.228 287.404 418.827 287.32 418.391 287.363C417.955 287.406 417.576 287.567 417.253 287.846C416.93 288.12 416.753 288.461 416.721 288.868L420.309 288.514ZM429.09 289.601C429.13 290.005 429.072 290.343 428.914 290.615C428.757 290.886 428.542 291.114 428.268 291.298C427.999 291.482 427.689 291.62 427.339 291.713C426.994 291.81 426.652 291.875 426.315 291.908C425.75 291.964 425.179 291.937 424.603 291.828C424.026 291.719 423.52 291.551 423.085 291.325L423.547 290.134C424.064 290.371 424.531 290.529 424.947 290.609C425.368 290.684 425.782 290.702 426.192 290.661C426.747 290.606 427.146 290.509 427.388 290.368C427.63 290.223 427.74 290.046 427.72 289.837C427.71 289.735 427.666 289.654 427.588 289.594C427.51 289.534 427.387 289.486 427.217 289.449C427.047 289.407 426.823 289.373 426.547 289.347C426.274 289.315 425.935 289.288 425.528 289.265C425.203 289.243 424.892 289.209 424.596 289.162C424.303 289.11 424.041 289.024 423.809 288.903C423.577 288.782 423.384 288.619 423.229 288.415C423.078 288.209 422.987 287.942 422.955 287.613C422.922 287.28 422.978 286.983 423.122 286.721C423.271 286.455 423.476 286.229 423.735 286.041C424 285.854 424.302 285.707 424.642 285.602C424.981 285.496 425.325 285.426 425.672 285.392C426.161 285.344 426.641 285.362 427.111 285.445C427.586 285.524 428.008 285.664 428.378 285.866L427.937 286.987C427.569 286.803 427.216 286.69 426.88 286.647C426.547 286.599 426.185 286.594 425.794 286.633C425.629 286.649 425.459 286.675 425.283 286.71C425.107 286.745 424.946 286.797 424.8 286.866C424.654 286.929 424.534 287.011 424.44 287.11C424.351 287.204 424.312 287.313 424.324 287.438C424.341 287.602 424.499 287.724 424.798 287.802C425.102 287.875 425.61 287.928 426.322 287.961C426.71 287.977 427.066 288.011 427.39 288.065C427.714 288.113 427.996 288.198 428.237 288.318C428.477 288.433 428.67 288.596 428.817 288.806C428.967 289.011 429.058 289.276 429.09 289.601ZM436.547 288.865C436.587 289.269 436.528 289.607 436.371 289.879C436.214 290.15 435.998 290.378 435.724 290.562C435.455 290.746 435.146 290.884 434.796 290.977C434.451 291.074 434.109 291.139 433.771 291.173C433.206 291.228 432.636 291.202 432.059 291.092C431.483 290.983 430.977 290.815 430.542 290.589L431.003 289.398C431.52 289.635 431.987 289.793 432.404 289.873C432.824 289.948 433.239 289.966 433.648 289.925C434.204 289.871 434.603 289.773 434.845 289.632C435.086 289.487 435.197 289.31 435.176 289.101C435.166 288.999 435.122 288.918 435.044 288.858C434.967 288.799 434.843 288.75 434.673 288.713C434.503 288.671 434.28 288.637 434.003 288.611C433.731 288.579 433.391 288.552 432.985 288.529C432.66 288.508 432.349 288.473 432.052 288.426C431.76 288.374 431.498 288.288 431.266 288.167C431.034 288.046 430.84 287.884 430.685 287.679C430.535 287.474 430.444 287.207 430.411 286.878C430.378 286.544 430.434 286.247 430.579 285.985C430.728 285.719 430.932 285.493 431.192 285.305C431.456 285.118 431.758 284.971 432.098 284.866C432.438 284.76 432.781 284.691 433.128 284.656C433.617 284.608 434.097 284.626 434.568 284.71C435.042 284.789 435.465 284.929 435.835 285.13L435.393 286.251C435.025 286.068 434.673 285.954 434.336 285.911C434.004 285.863 433.642 285.858 433.25 285.897C433.086 285.913 432.916 285.939 432.74 285.974C432.563 286.01 432.402 286.061 432.257 286.13C432.11 286.194 431.99 286.275 431.897 286.374C431.807 286.468 431.769 286.577 431.781 286.702C431.797 286.866 431.955 286.988 432.255 287.066C432.558 287.139 433.066 287.192 433.779 287.225C434.167 287.241 434.522 287.275 434.846 287.329C435.17 287.378 435.452 287.462 435.693 287.582C435.933 287.697 436.127 287.86 436.273 288.07C436.424 288.275 436.515 288.54 436.547 288.865ZM439.15 287.881C439.259 288.301 439.497 288.637 439.863 288.888C440.233 289.134 440.704 289.229 441.278 289.172C441.727 289.128 442.109 289.021 442.425 288.85C442.744 288.675 443.012 288.46 443.23 288.205L444.033 289.109C443.672 289.549 443.275 289.864 442.84 290.055C442.41 290.246 441.93 290.367 441.401 290.42C440.921 290.467 440.466 290.431 440.037 290.312C439.607 290.193 439.228 290.006 438.897 289.751C438.566 289.492 438.295 289.173 438.082 288.794C437.874 288.415 437.746 287.983 437.698 287.499C437.652 287.027 437.687 286.586 437.803 286.175C437.924 285.759 438.112 285.393 438.368 285.075C438.628 284.753 438.951 284.493 439.335 284.293C439.719 284.089 440.153 283.963 440.638 283.915C441.14 283.866 441.605 283.908 442.031 284.041C442.457 284.169 442.83 284.381 443.151 284.678C443.477 284.973 443.745 285.349 443.956 285.804C444.166 286.254 444.301 286.775 444.359 287.367L439.15 287.881ZM442.679 286.307C442.568 285.914 442.33 285.614 441.964 285.408C441.597 285.197 441.196 285.113 440.76 285.156C440.325 285.199 439.945 285.36 439.623 285.639C439.3 285.913 439.122 286.254 439.091 286.661L442.679 286.307ZM452.848 287.33C452.812 286.966 452.878 286.638 453.047 286.348C453.216 286.053 453.449 285.798 453.746 285.585C454.048 285.371 454.4 285.2 454.8 285.07C455.204 284.936 455.62 284.848 456.047 284.806C456.282 284.783 456.485 284.767 456.655 284.759C456.825 284.751 456.997 284.748 457.172 284.749L457.148 284.502C457.116 284.177 456.965 283.947 456.696 283.812C456.431 283.677 456.094 283.629 455.685 283.67C455.312 283.706 454.937 283.797 454.561 283.942C454.184 284.083 453.832 284.27 453.505 284.504L452.838 283.479C453.224 283.203 453.644 282.975 454.097 282.796C454.555 282.612 455.044 282.494 455.564 282.442C455.902 282.409 456.237 282.414 456.569 282.458C456.906 282.501 457.211 282.596 457.486 282.744C457.766 282.892 457.997 283.098 458.181 283.363C458.363 283.623 458.475 283.958 458.515 284.367L458.927 288.535L457.559 288.67L457.469 287.756C457.285 288.116 456.988 288.41 456.58 288.639C456.176 288.867 455.729 289.006 455.24 289.054C454.938 289.084 454.647 289.07 454.367 289.012C454.093 288.958 453.849 288.859 453.638 288.714C453.426 288.569 453.248 288.382 453.104 288.154C452.964 287.92 452.879 287.646 452.848 287.33ZM455.472 287.785C455.743 287.758 455.993 287.7 456.222 287.61C456.456 287.515 456.657 287.399 456.828 287.261C456.998 287.118 457.125 286.955 457.21 286.772C457.3 286.588 457.335 286.391 457.314 286.182L457.291 285.949C457.07 285.935 456.863 285.935 456.671 285.95C456.48 285.964 456.311 285.978 456.164 285.993C455.488 286.06 454.985 286.199 454.656 286.411C454.331 286.623 454.182 286.86 454.208 287.122C454.259 287.642 454.681 287.863 455.472 287.785ZM466.397 287.798L465.016 287.934L464.638 284.099C464.59 283.615 464.465 283.288 464.265 283.119C464.064 282.951 463.79 282.883 463.443 282.918C462.932 282.968 462.534 283.216 462.251 283.662C461.971 284.107 461.868 284.694 461.94 285.423L462.215 288.211L460.834 288.347L460.221 282.131L461.601 281.995L461.755 283.556C461.84 283.004 462.055 282.561 462.399 282.226C462.742 281.887 463.188 281.69 463.734 281.636C464.37 281.573 464.889 281.731 465.29 282.109C465.691 282.487 465.933 283.105 466.018 283.963L466.397 287.798ZM474.034 283.913C474.082 284.398 474.047 284.846 473.931 285.257C473.819 285.667 473.632 286.031 473.372 286.349C473.115 286.662 472.795 286.918 472.411 287.117C472.026 287.317 471.587 287.441 471.094 287.49C470.609 287.537 470.159 287.501 469.743 287.38C469.327 287.26 468.96 287.072 468.643 286.815C468.33 286.555 468.076 286.234 467.882 285.854C467.691 285.473 467.572 285.04 467.524 284.555C467.478 284.084 467.511 283.641 467.622 283.226C467.738 282.806 467.924 282.437 468.18 282.12C468.44 281.798 468.762 281.54 469.147 281.345C469.531 281.145 469.966 281.021 470.451 280.973C470.944 280.925 471.399 280.961 471.815 281.081C472.23 281.197 472.595 281.388 472.908 281.654C473.226 281.914 473.48 282.239 473.671 282.629C473.867 283.014 473.987 283.442 474.034 283.913ZM472.66 284.049C472.632 283.768 472.562 283.508 472.448 283.268C472.339 283.023 472.193 282.82 472.011 282.658C471.829 282.496 471.615 282.376 471.369 282.297C471.127 282.213 470.862 282.185 470.573 282.214C470.28 282.243 470.023 282.322 469.802 282.452C469.581 282.577 469.399 282.736 469.256 282.93C469.114 283.123 469.011 283.351 468.947 283.614C468.887 283.871 468.871 284.14 468.898 284.42C468.927 284.713 468.996 284.976 469.104 285.208C469.217 285.439 469.362 285.638 469.54 285.804C469.718 285.971 469.928 286.094 470.169 286.173C470.41 286.248 470.677 286.271 470.971 286.242C471.26 286.214 471.515 286.139 471.736 286.019C471.962 285.893 472.148 285.731 472.295 285.533C472.441 285.334 472.545 285.111 472.606 284.862C472.671 284.613 472.689 284.342 472.66 284.049ZM488.772 284.694C488.411 285.134 488.016 285.449 487.586 285.64C487.16 285.83 486.689 285.951 486.173 286.001C485.653 286.053 485.172 286.022 484.73 285.908C484.292 285.794 483.91 285.612 483.585 285.361C483.263 285.106 483.003 284.786 482.803 284.401C482.608 284.016 482.486 283.577 482.437 283.084C482.391 282.612 482.426 282.169 482.542 281.753C482.662 281.333 482.841 280.967 483.08 280.657C483.323 280.341 483.619 280.085 483.967 279.889C484.316 279.688 484.695 279.568 485.104 279.527C485.53 279.485 485.91 279.538 486.244 279.684C486.577 279.831 486.832 280.069 487.008 280.397L486.919 279.497L488.153 279.375L488.438 282.269L487.204 282.391C487.15 281.844 486.956 281.423 486.622 281.129C486.292 280.829 485.886 280.703 485.406 280.75C485.215 280.769 485.017 280.829 484.811 280.93C484.609 281.026 484.428 281.166 484.266 281.348C484.109 281.529 483.985 281.752 483.895 282.017C483.804 282.282 483.776 282.592 483.811 282.948C483.846 283.295 483.931 283.59 484.067 283.832C484.203 284.07 484.368 284.263 484.562 284.41C484.76 284.552 484.985 284.653 485.238 284.713C485.495 284.769 485.755 284.783 486.017 284.758C486.466 284.713 486.848 284.606 487.164 284.436C487.483 284.26 487.752 284.045 487.969 283.791L488.772 284.694ZM496.403 281.706C496.451 282.19 496.417 282.638 496.3 283.049C496.188 283.46 496.002 283.824 495.741 284.141C495.485 284.454 495.164 284.71 494.78 284.91C494.396 285.109 493.957 285.233 493.463 285.282C492.979 285.33 492.528 285.294 492.112 285.173C491.696 285.052 491.33 284.864 491.013 284.608C490.7 284.347 490.446 284.026 490.251 283.646C490.061 283.265 489.942 282.833 489.894 282.348C489.847 281.877 489.88 281.433 489.992 281.018C490.107 280.598 490.293 280.23 490.549 279.913C490.809 279.591 491.132 279.332 491.517 279.137C491.901 278.938 492.336 278.814 492.82 278.766C493.314 278.717 493.768 278.753 494.184 278.874C494.6 278.99 494.965 279.181 495.278 279.446C495.596 279.707 495.85 280.032 496.041 280.421C496.236 280.806 496.357 281.234 496.403 281.706ZM495.03 281.841C495.002 281.561 494.931 281.301 494.818 281.061C494.708 280.816 494.563 280.612 494.38 280.451C494.198 280.289 493.984 280.169 493.739 280.09C493.497 280.006 493.232 279.978 492.943 280.007C492.649 280.036 492.392 280.115 492.171 280.244C491.95 280.369 491.768 280.529 491.626 280.722C491.483 280.916 491.38 281.144 491.316 281.406C491.256 281.664 491.24 281.932 491.268 282.212C491.297 282.506 491.365 282.768 491.474 283C491.586 283.232 491.732 283.43 491.91 283.597C492.088 283.763 492.297 283.886 492.539 283.966C492.78 284.041 493.047 284.064 493.34 284.035C493.629 284.006 493.884 283.932 494.106 283.811C494.332 283.686 494.518 283.524 494.664 283.325C494.811 283.127 494.914 282.903 494.975 282.655C495.04 282.406 495.058 282.135 495.03 281.841ZM504.006 284.087L502.625 284.223L502.205 279.961C502.176 279.668 502.123 279.455 502.048 279.324C501.976 279.187 501.864 279.126 501.713 279.141C501.437 279.168 501.277 279.341 501.232 279.66C501.191 279.974 501.2 280.426 501.258 281.018L501.585 284.326L500.204 284.462L499.784 280.2C499.755 279.907 499.702 279.694 499.627 279.562C499.55 279.426 499.434 279.366 499.279 279.381C499.007 279.408 498.852 279.581 498.811 279.899C498.775 280.212 498.786 280.665 498.844 281.256L499.171 284.564L497.79 284.7L497.177 278.484L498.57 278.347L498.659 279.247C498.723 278.895 498.842 278.621 499.016 278.424C499.189 278.227 499.436 278.113 499.756 278.082C500.023 278.055 500.254 278.116 500.448 278.263C500.646 278.405 500.792 278.615 500.887 278.893C501.012 278.566 501.149 278.321 501.3 278.158C501.454 277.99 501.704 277.889 502.051 277.855C502.478 277.813 502.82 277.939 503.078 278.232C503.34 278.52 503.502 278.982 503.565 279.618L504.006 284.087Z" fill="white"/>
<path d="M458.816 388.88C454.643 388.88 451.393 387.826 449.065 385.718C446.737 383.565 445.573 380.381 445.573 376.165V345.068H455.851V376.033C455.851 377.526 456.246 378.69 457.037 379.525C457.828 380.315 458.904 380.711 460.265 380.711C461.89 380.711 463.274 380.271 464.416 379.393L467.183 386.64C466.129 387.387 464.855 387.958 463.362 388.353C461.912 388.704 460.397 388.88 458.816 388.88ZM440.105 361.605V353.699H464.679V361.605H440.105ZM488.131 388.88C484.091 388.88 480.533 388.089 477.458 386.508C474.428 384.927 472.078 382.775 470.409 380.052C468.74 377.285 467.905 374.144 467.905 370.631C467.905 367.073 468.718 363.932 470.343 361.209C472.012 358.442 474.274 356.29 477.129 354.753C479.984 353.172 483.212 352.381 486.814 352.381C490.284 352.381 493.402 353.128 496.169 354.621C498.98 356.071 501.198 358.179 502.823 360.946C504.448 363.669 505.261 366.941 505.261 370.762C505.261 371.158 505.239 371.619 505.195 372.146C505.151 372.629 505.107 373.09 505.063 373.529H476.273V367.534H499.661L495.708 369.313C495.708 367.468 495.335 365.865 494.588 364.503C493.841 363.142 492.809 362.088 491.491 361.341C490.174 360.551 488.636 360.155 486.88 360.155C485.123 360.155 483.564 360.551 482.202 361.341C480.884 362.088 479.852 363.164 479.106 364.569C478.359 365.931 477.986 367.556 477.986 369.445V371.026C477.986 372.958 478.403 374.671 479.237 376.165C480.116 377.614 481.324 378.734 482.861 379.525C484.442 380.271 486.287 380.645 488.395 380.645C490.284 380.645 491.931 380.359 493.336 379.788C494.786 379.217 496.103 378.361 497.289 377.219L502.757 383.148C501.132 384.993 499.09 386.42 496.63 387.431C494.171 388.397 491.338 388.88 488.131 388.88ZM527.915 388.88C524.094 388.88 520.69 388.111 517.703 386.574C514.717 384.993 512.367 382.819 510.654 380.052C508.985 377.285 508.15 374.144 508.15 370.631C508.15 367.073 508.985 363.932 510.654 361.209C512.367 358.442 514.717 356.29 517.703 354.753C520.69 353.172 524.094 352.381 527.915 352.381C531.648 352.381 534.899 353.172 537.666 354.753C540.433 356.29 542.475 358.508 543.793 361.407L535.821 365.689C534.899 364.02 533.735 362.791 532.329 362C530.968 361.209 529.474 360.814 527.849 360.814C526.092 360.814 524.511 361.209 523.106 362C521.7 362.791 520.58 363.911 519.746 365.36C518.955 366.809 518.56 368.566 518.56 370.631C518.56 372.695 518.955 374.452 519.746 375.901C520.58 377.351 521.7 378.471 523.106 379.261C524.511 380.052 526.092 380.447 527.849 380.447C529.474 380.447 530.968 380.074 532.329 379.327C533.735 378.536 534.899 377.285 535.821 375.572L543.793 379.92C542.475 382.775 540.433 384.993 537.666 386.574C534.899 388.111 531.648 388.88 527.915 388.88ZM569.936 352.381C572.747 352.381 575.251 352.952 577.447 354.094C579.687 355.192 581.444 356.905 582.717 359.233C583.991 361.517 584.628 364.46 584.628 368.061V388.353H574.35V369.642C574.35 366.787 573.713 364.679 572.44 363.318C571.21 361.956 569.453 361.275 567.169 361.275C565.544 361.275 564.073 361.627 562.755 362.329C561.481 362.988 560.471 364.02 559.724 365.426C559.022 366.831 558.67 368.632 558.67 370.828V388.353H548.393V352.908H558.209V362.725L556.364 359.76C557.638 357.388 559.461 355.565 561.833 354.292C564.204 353.018 566.906 352.381 569.936 352.381ZM609.75 388.88C605.973 388.88 602.613 388.089 599.67 386.508C596.771 384.927 594.465 382.775 592.752 380.052C591.083 377.285 590.249 374.144 590.249 370.631C590.249 367.073 591.083 363.932 592.752 361.209C594.465 358.442 596.771 356.29 599.67 354.753C602.613 353.172 605.973 352.381 609.75 352.381C613.483 352.381 616.821 353.172 619.764 354.753C622.707 356.29 625.013 358.42 626.682 361.143C628.351 363.867 629.185 367.029 629.185 370.631C629.185 374.144 628.351 377.285 626.682 380.052C625.013 382.775 622.707 384.927 619.764 386.508C616.821 388.089 613.483 388.88 609.75 388.88ZM609.75 380.447C611.463 380.447 613 380.052 614.362 379.261C615.723 378.471 616.799 377.351 617.59 375.901C618.38 374.408 618.776 372.651 618.776 370.631C618.776 368.566 618.38 366.809 617.59 365.36C616.799 363.911 615.723 362.791 614.362 362C613 361.209 611.463 360.814 609.75 360.814C608.037 360.814 606.5 361.209 605.138 362C603.776 362.791 602.678 363.911 601.844 365.36C601.053 366.809 600.658 368.566 600.658 370.631C600.658 372.651 601.053 374.408 601.844 375.901C602.678 377.351 603.776 378.471 605.138 379.261C606.5 380.052 608.037 380.447 609.75 380.447ZM634.737 388.353V339.468H645.015V388.353H634.737ZM670.102 388.88C666.324 388.88 662.964 388.089 660.022 386.508C657.123 384.927 654.817 382.775 653.104 380.052C651.435 377.285 650.6 374.144 650.6 370.631C650.6 367.073 651.435 363.932 653.104 361.209C654.817 358.442 657.123 356.29 660.022 354.753C662.964 353.172 666.324 352.381 670.102 352.381C673.835 352.381 677.173 353.172 680.116 354.753C683.059 356.29 685.364 358.42 687.033 361.143C688.702 363.867 689.537 367.029 689.537 370.631C689.537 374.144 688.702 377.285 687.033 380.052C685.364 382.775 683.059 384.927 680.116 386.508C677.173 388.089 673.835 388.88 670.102 388.88ZM670.102 380.447C671.815 380.447 673.352 380.052 674.713 379.261C676.075 378.471 677.151 377.351 677.942 375.901C678.732 374.408 679.128 372.651 679.128 370.631C679.128 368.566 678.732 366.809 677.942 365.36C677.151 363.911 676.075 362.791 674.713 362C673.352 361.209 671.815 360.814 670.102 360.814C668.389 360.814 666.851 361.209 665.49 362C664.128 362.791 663.03 363.911 662.196 365.36C661.405 366.809 661.01 368.566 661.01 370.631C661.01 372.651 661.405 374.408 662.196 375.901C663.03 377.351 664.128 378.471 665.49 379.261C666.851 380.052 668.389 380.447 670.102 380.447ZM711.757 401.661C708.419 401.661 705.191 401.244 702.073 400.409C698.998 399.619 696.429 398.411 694.364 396.786L698.449 389.407C699.942 390.637 701.831 391.603 704.115 392.306C706.443 393.053 708.727 393.426 710.967 393.426C714.612 393.426 717.248 392.613 718.873 390.988C720.542 389.363 721.376 386.947 721.376 383.741V378.405L722.035 369.511L721.903 360.551V352.908H731.654V382.423C731.654 389.012 729.941 393.865 726.515 396.984C723.089 400.102 718.17 401.661 711.757 401.661ZM710.176 386.64C706.882 386.64 703.895 385.937 701.216 384.532C698.581 383.082 696.451 381.084 694.826 378.536C693.244 375.945 692.454 372.936 692.454 369.511C692.454 366.041 693.244 363.032 694.826 360.485C696.451 357.893 698.581 355.895 701.216 354.489C703.895 353.084 706.882 352.381 710.176 352.381C713.163 352.381 715.798 352.996 718.082 354.226C720.366 355.412 722.145 357.278 723.419 359.826C724.692 362.329 725.329 365.558 725.329 369.511C725.329 373.42 724.692 376.648 723.419 379.195C722.145 381.699 720.366 383.565 718.082 384.795C715.798 386.025 713.163 386.64 710.176 386.64ZM712.219 378.207C714.019 378.207 715.622 377.856 717.028 377.153C718.433 376.406 719.531 375.374 720.322 374.056C721.113 372.739 721.508 371.223 721.508 369.511C721.508 367.754 721.113 366.238 720.322 364.965C719.531 363.647 718.433 362.637 717.028 361.934C715.622 361.187 714.019 360.814 712.219 360.814C710.418 360.814 708.815 361.187 707.409 361.934C706.004 362.637 704.884 363.647 704.049 364.965C703.259 366.238 702.863 367.754 702.863 369.511C702.863 371.223 703.259 372.739 704.049 374.056C704.884 375.374 706.004 376.406 707.409 377.153C708.815 377.856 710.418 378.207 712.219 378.207ZM739.902 388.353V352.908H750.18V388.353H739.902ZM745.041 347.967C743.152 347.967 741.615 347.418 740.429 346.32C739.243 345.222 738.65 343.86 738.65 342.235C738.65 340.61 739.243 339.249 740.429 338.151C741.615 337.052 743.152 336.503 745.041 336.503C746.929 336.503 748.467 337.031 749.653 338.085C750.838 339.095 751.431 340.412 751.431 342.038C751.431 343.751 750.838 345.178 749.653 346.32C748.511 347.418 746.973 347.967 745.041 347.967ZM780.142 388.353V381.435L779.483 379.92V367.534C779.483 365.338 778.802 363.625 777.441 362.395C776.123 361.165 774.081 360.551 771.313 360.551C769.425 360.551 767.558 360.858 765.713 361.473C763.913 362.044 762.375 362.834 761.102 363.845L757.412 356.663C759.345 355.302 761.673 354.248 764.396 353.501C767.119 352.754 769.886 352.381 772.697 352.381C778.099 352.381 782.294 353.655 785.281 356.202C788.267 358.75 789.761 362.725 789.761 368.127V388.353H780.142ZM769.337 388.88C766.57 388.88 764.198 388.419 762.222 387.496C760.245 386.53 758.73 385.234 757.676 383.609C756.622 381.984 756.095 380.162 756.095 378.141C756.095 376.033 756.6 374.188 757.61 372.607C758.664 371.026 760.311 369.796 762.551 368.918C764.791 367.995 767.712 367.534 771.313 367.534H780.735V373.529H772.433C770.018 373.529 768.349 373.925 767.426 374.715C766.548 375.506 766.109 376.494 766.109 377.68C766.109 378.998 766.614 380.052 767.624 380.842C768.678 381.589 770.106 381.962 771.906 381.962C773.619 381.962 775.157 381.567 776.518 380.776C777.88 379.942 778.868 378.734 779.483 377.153L781.064 381.896C780.317 384.18 778.956 385.915 776.979 387.101C775.003 388.287 772.455 388.88 769.337 388.88ZM465.865 418.381C468.676 418.381 471.18 418.952 473.376 420.094C475.616 421.192 477.373 422.905 478.646 425.233C479.92 427.517 480.557 430.46 480.557 434.061V454.353H470.279V435.642C470.279 432.787 469.642 430.679 468.369 429.318C467.139 427.956 465.382 427.275 463.098 427.275C461.473 427.275 460.002 427.627 458.684 428.329C457.41 428.988 456.4 430.02 455.653 431.426C454.951 432.831 454.599 434.632 454.599 436.828V454.353H444.322V418.908H454.138V428.725L452.293 425.76C453.567 423.388 455.39 421.565 457.762 420.292C460.133 419.018 462.835 418.381 465.865 418.381ZM506.403 454.88C502.363 454.88 498.805 454.089 495.731 452.508C492.7 450.927 490.35 448.775 488.681 446.052C487.012 443.285 486.178 440.144 486.178 436.631C486.178 433.073 486.99 429.932 488.615 427.209C490.284 424.442 492.546 422.29 495.401 420.753C498.256 419.172 501.484 418.381 505.086 418.381C508.556 418.381 511.674 419.128 514.441 420.621C517.252 422.071 519.47 424.179 521.095 426.946C522.72 429.669 523.533 432.941 523.533 436.762C523.533 437.158 523.511 437.619 523.467 438.146C523.423 438.629 523.379 439.09 523.335 439.529H494.545V433.534H517.933L513.98 435.313C513.98 433.468 513.607 431.865 512.86 430.503C512.113 429.142 511.081 428.088 509.763 427.341C508.446 426.551 506.909 426.155 505.152 426.155C503.395 426.155 501.836 426.551 500.474 427.341C499.156 428.088 498.124 429.164 497.378 430.569C496.631 431.931 496.258 433.556 496.258 435.445V437.026C496.258 438.958 496.675 440.671 497.509 442.165C498.388 443.614 499.596 444.734 501.133 445.525C502.714 446.271 504.559 446.645 506.667 446.645C508.556 446.645 510.203 446.359 511.608 445.788C513.058 445.217 514.375 444.361 515.561 443.219L521.029 449.148C519.404 450.993 517.362 452.42 514.902 453.431C512.443 454.397 509.61 454.88 506.403 454.88ZM543.552 454.88C539.379 454.88 536.129 453.826 533.801 451.718C531.473 449.565 530.31 446.381 530.31 442.165V411.068H540.587V442.033C540.587 443.526 540.982 444.69 541.773 445.525C542.564 446.315 543.64 446.711 545.001 446.711C546.626 446.711 548.01 446.271 549.152 445.393L551.919 452.64C550.865 453.387 549.591 453.958 548.098 454.353C546.648 454.704 545.133 454.88 543.552 454.88ZM524.841 427.605V419.699H549.415V427.605H524.841ZM563.831 454.353L551.05 418.908H560.734L571.341 449.412H566.73L577.798 418.908H586.494L597.233 449.412H592.621L603.558 418.908H612.65L599.803 454.353H589.854L580.433 428.198H583.464L573.713 454.353H563.831ZM632.011 454.88C628.234 454.88 624.874 454.089 621.931 452.508C619.032 450.927 616.726 448.775 615.013 446.052C613.344 443.285 612.51 440.144 612.51 436.631C612.51 433.073 613.344 429.932 615.013 427.209C616.726 424.442 619.032 422.29 621.931 420.753C624.874 419.172 628.234 418.381 632.011 418.381C635.744 418.381 639.082 419.172 642.025 420.753C644.968 422.29 647.274 424.42 648.943 427.143C650.612 429.867 651.446 433.029 651.446 436.631C651.446 440.144 650.612 443.285 648.943 446.052C647.274 448.775 644.968 450.927 642.025 452.508C639.082 454.089 635.744 454.88 632.011 454.88ZM632.011 446.447C633.724 446.447 635.261 446.052 636.623 445.261C637.984 444.471 639.06 443.351 639.851 441.901C640.641 440.408 641.037 438.651 641.037 436.631C641.037 434.566 640.641 432.809 639.851 431.36C639.06 429.911 637.984 428.791 636.623 428C635.261 427.209 633.724 426.814 632.011 426.814C630.298 426.814 628.761 427.209 627.399 428C626.038 428.791 624.939 429.911 624.105 431.36C623.314 432.809 622.919 434.566 622.919 436.631C622.919 438.651 623.314 440.408 624.105 441.901C624.939 443.351 626.038 444.471 627.399 445.261C628.761 446.052 630.298 446.447 632.011 446.447ZM656.998 454.353V418.908H666.815V428.922L665.431 426.023C666.485 423.52 668.176 421.631 670.504 420.358C672.832 419.04 675.665 418.381 679.003 418.381V427.868C678.564 427.824 678.168 427.802 677.817 427.802C677.466 427.758 677.092 427.736 676.697 427.736C673.886 427.736 671.602 428.549 669.845 430.174C668.132 431.755 667.276 434.237 667.276 437.619V454.353H656.998ZM692.36 447.106L692.623 434.588L709.16 418.908H721.414L705.536 435.049L700.2 439.398L692.36 447.106ZM683.861 454.353V405.468H694.138V454.353H683.861ZM710.28 454.353L698.289 439.463L704.746 431.492L722.731 454.353H710.28ZM726.036 454.353V418.908H736.313V454.353H726.036ZM731.175 413.967C729.286 413.967 727.749 413.418 726.563 412.32C725.377 411.222 724.784 409.86 724.784 408.235C724.784 406.61 725.377 405.249 726.563 404.151C727.749 403.052 729.286 402.503 731.175 402.503C733.063 402.503 734.601 403.031 735.786 404.085C736.972 405.095 737.565 406.412 737.565 408.038C737.565 409.751 736.972 411.178 735.786 412.32C734.644 413.418 733.107 413.967 731.175 413.967ZM766.078 418.381C768.889 418.381 771.392 418.952 773.589 420.094C775.829 421.192 777.585 422.905 778.859 425.233C780.133 427.517 780.77 430.46 780.77 434.061V454.353H770.492V435.642C770.492 432.787 769.855 430.679 768.581 429.318C767.352 427.956 765.595 427.275 763.311 427.275C761.686 427.275 760.214 427.627 758.897 428.329C757.623 428.988 756.613 430.02 755.866 431.426C755.163 432.831 754.812 434.632 754.812 436.828V454.353H744.534V418.908H754.351V428.725L752.506 425.76C753.78 423.388 755.603 421.565 757.974 420.292C760.346 419.018 763.047 418.381 766.078 418.381ZM805.694 467.661C802.356 467.661 799.128 467.244 796.009 466.409C792.935 465.619 790.365 464.411 788.301 462.786L792.386 455.407C793.879 456.637 795.768 457.603 798.051 458.306C800.379 459.053 802.663 459.426 804.903 459.426C808.549 459.426 811.184 458.613 812.809 456.988C814.478 455.363 815.313 452.947 815.313 449.741V444.405L815.971 435.511L815.84 426.551V418.908H825.59V448.423C825.59 455.012 823.877 459.865 820.451 462.984C817.026 466.102 812.106 467.661 805.694 467.661ZM804.113 452.64C800.819 452.64 797.832 451.937 795.153 450.532C792.517 449.082 790.387 447.084 788.762 444.536C787.181 441.945 786.39 438.936 786.39 435.511C786.39 432.041 787.181 429.032 788.762 426.485C790.387 423.893 792.517 421.895 795.153 420.489C797.832 419.084 800.819 418.381 804.113 418.381C807.099 418.381 809.735 418.996 812.019 420.226C814.302 421.412 816.081 423.278 817.355 425.826C818.629 428.329 819.266 431.558 819.266 435.511C819.266 439.42 818.629 442.648 817.355 445.195C816.081 447.699 814.302 449.565 812.019 450.795C809.735 452.025 807.099 452.64 804.113 452.64ZM806.155 444.207C807.956 444.207 809.559 443.856 810.964 443.153C812.37 442.406 813.468 441.374 814.259 440.056C815.049 438.739 815.444 437.223 815.444 435.511C815.444 433.754 815.049 432.238 814.259 430.965C813.468 429.647 812.37 428.637 810.964 427.934C809.559 427.187 807.956 426.814 806.155 426.814C804.354 426.814 802.751 427.187 801.346 427.934C799.94 428.637 798.82 429.647 797.986 430.965C797.195 432.238 796.8 433.754 796.8 435.511C796.8 437.223 797.195 438.739 797.986 440.056C798.82 441.374 799.94 442.406 801.346 443.153C802.751 443.856 804.354 444.207 806.155 444.207ZM466.063 520.353V513.435L465.404 511.92V499.534C465.404 497.338 464.723 495.625 463.362 494.395C462.044 493.165 460.002 492.551 457.235 492.551C455.346 492.551 453.479 492.858 451.635 493.473C449.834 494.044 448.297 494.834 447.023 495.845L443.333 488.663C445.266 487.302 447.594 486.248 450.317 485.501C453.04 484.754 455.807 484.381 458.618 484.381C464.02 484.381 468.215 485.655 471.202 488.202C474.188 490.75 475.682 494.725 475.682 500.127V520.353H466.063ZM455.258 520.88C452.491 520.88 450.119 520.419 448.143 519.496C446.166 518.53 444.651 517.234 443.597 515.609C442.543 513.984 442.016 512.162 442.016 510.141C442.016 508.033 442.521 506.188 443.531 504.607C444.585 503.026 446.232 501.796 448.472 500.918C450.712 499.995 453.633 499.534 457.235 499.534H466.656V505.529H458.355C455.939 505.529 454.27 505.925 453.348 506.715C452.469 507.506 452.03 508.494 452.03 509.68C452.03 510.998 452.535 512.052 453.545 512.842C454.599 513.589 456.027 513.962 457.828 513.962C459.54 513.962 461.078 513.567 462.439 512.776C463.801 511.942 464.789 510.734 465.404 509.153L466.985 513.896C466.239 516.18 464.877 517.915 462.9 519.101C460.924 520.287 458.377 520.88 455.258 520.88ZM504.616 520.88C501.63 520.88 499.016 520.221 496.776 518.903C494.536 517.586 492.78 515.587 491.506 512.908C490.276 510.185 489.661 506.759 489.661 502.631C489.661 498.458 490.254 495.032 491.44 492.353C492.626 489.674 494.339 487.675 496.579 486.358C498.819 485.04 501.498 484.381 504.616 484.381C507.954 484.381 510.941 485.15 513.576 486.687C516.256 488.18 518.364 490.289 519.901 493.012C521.482 495.735 522.273 498.941 522.273 502.631C522.273 506.364 521.482 509.592 519.901 512.315C518.364 515.038 516.256 517.147 513.576 518.64C510.941 520.133 507.954 520.88 504.616 520.88ZM483.666 533.134V484.908H493.482V492.155L493.285 502.696L493.943 513.172V533.134H483.666ZM502.838 512.447C504.551 512.447 506.066 512.052 507.383 511.261C508.745 510.471 509.821 509.351 510.612 507.901C511.446 506.408 511.863 504.651 511.863 502.631C511.863 500.566 511.446 498.809 510.612 497.36C509.821 495.911 508.745 494.791 507.383 494C506.066 493.209 504.551 492.814 502.838 492.814C501.125 492.814 499.587 493.209 498.226 494C496.864 494.791 495.788 495.911 494.998 497.36C494.207 498.809 493.812 500.566 493.812 502.631C493.812 504.651 494.207 506.408 494.998 507.901C495.788 509.351 496.864 510.471 498.226 511.261C499.587 512.052 501.125 512.447 502.838 512.447ZM527.835 520.353V484.908H537.652V494.922L536.268 492.023C537.322 489.52 539.013 487.631 541.341 486.358C543.669 485.04 546.502 484.381 549.84 484.381V493.868C549.401 493.824 549.006 493.802 548.654 493.802C548.303 493.758 547.929 493.736 547.534 493.736C544.723 493.736 542.439 494.549 540.682 496.174C538.969 497.755 538.113 500.237 538.113 503.619V520.353H527.835ZM571.967 520.88C567.926 520.88 564.368 520.089 561.294 518.508C558.263 516.927 555.913 514.775 554.244 512.052C552.575 509.285 551.741 506.144 551.741 502.631C551.741 499.073 552.553 495.932 554.179 493.209C555.848 490.442 558.109 488.29 560.964 486.753C563.819 485.172 567.048 484.381 570.649 484.381C574.119 484.381 577.237 485.128 580.004 486.621C582.815 488.071 585.033 490.179 586.659 492.946C588.284 495.669 589.096 498.941 589.096 502.762C589.096 503.158 589.074 503.619 589.03 504.146C588.986 504.629 588.942 505.09 588.899 505.529H560.108V499.534H583.496L579.543 501.313C579.543 499.468 579.17 497.865 578.423 496.503C577.677 495.142 576.644 494.088 575.327 493.341C574.009 492.551 572.472 492.155 570.715 492.155C568.958 492.155 567.399 492.551 566.037 493.341C564.72 494.088 563.688 495.164 562.941 496.569C562.194 497.931 561.821 499.556 561.821 501.445V503.026C561.821 504.958 562.238 506.671 563.073 508.165C563.951 509.614 565.159 510.734 566.696 511.525C568.277 512.271 570.122 512.645 572.23 512.645C574.119 512.645 575.766 512.359 577.171 511.788C578.621 511.217 579.939 510.361 581.124 509.219L586.593 515.148C584.968 516.993 582.925 518.42 580.466 519.431C578.006 520.397 575.173 520.88 571.967 520.88ZM616.165 484.381C618.976 484.381 621.479 484.952 623.675 486.094C625.915 487.192 627.672 488.905 628.946 491.233C630.219 493.517 630.856 496.46 630.856 500.061V520.353H620.579V501.642C620.579 498.787 619.942 496.679 618.668 495.318C617.438 493.956 615.681 493.275 613.398 493.275C611.772 493.275 610.301 493.627 608.983 494.329C607.71 494.988 606.699 496.02 605.953 497.426C605.25 498.831 604.899 500.632 604.899 502.828V520.353H594.621V484.908H604.438V494.725L602.593 491.76C603.867 489.388 605.689 487.565 608.061 486.292C610.433 485.018 613.134 484.381 616.165 484.381ZM654.331 520.88C650.993 520.88 647.984 520.133 645.305 518.64C642.626 517.103 640.496 514.973 638.915 512.249C637.377 509.526 636.609 506.32 636.609 502.631C636.609 498.897 637.377 495.669 638.915 492.946C640.496 490.223 642.626 488.114 645.305 486.621C647.984 485.128 650.993 484.381 654.331 484.381C657.318 484.381 659.931 485.04 662.171 486.358C664.411 487.675 666.146 489.674 667.376 492.353C668.606 495.032 669.22 498.458 669.22 502.631C669.22 506.759 668.628 510.185 667.442 512.908C666.256 515.587 664.543 517.586 662.303 518.903C660.107 520.221 657.449 520.88 654.331 520.88ZM656.11 512.447C657.779 512.447 659.294 512.052 660.656 511.261C662.017 510.471 663.093 509.351 663.884 507.901C664.719 506.408 665.136 504.651 665.136 502.631C665.136 500.566 664.719 498.809 663.884 497.36C663.093 495.911 662.017 494.791 660.656 494C659.294 493.209 657.779 492.814 656.11 492.814C654.397 492.814 652.86 493.209 651.498 494C650.137 494.791 649.039 495.911 648.204 497.36C647.413 498.809 647.018 500.566 647.018 502.631C647.018 504.651 647.413 506.408 648.204 507.901C649.039 509.351 650.137 510.471 651.498 511.261C652.86 512.052 654.397 512.447 656.11 512.447ZM665.399 520.353V513.106L665.597 502.565L664.938 492.089V471.468H675.216V520.353H665.399ZM683.41 520.353V484.908H693.688V520.353H683.41ZM688.549 479.967C686.661 479.967 685.123 479.418 683.937 478.32C682.752 477.222 682.159 475.86 682.159 474.235C682.159 472.61 682.752 471.249 683.937 470.151C685.123 469.052 686.661 468.503 688.549 468.503C690.438 468.503 691.975 469.031 693.161 470.085C694.347 471.095 694.94 472.412 694.94 474.038C694.94 475.751 694.347 477.178 693.161 478.32C692.019 479.418 690.482 479.967 688.549 479.967ZM699.471 520.353V514.16L720.422 489.388L722.201 492.814H699.932V484.908H730.502V491.101L709.551 515.873L707.707 512.447H731.095V520.353H699.471ZM758.105 520.353V513.435L757.446 511.92V499.534C757.446 497.338 756.765 495.625 755.403 494.395C754.086 493.165 752.043 492.551 749.276 492.551C747.388 492.551 745.521 492.858 743.676 493.473C741.876 494.044 740.338 494.834 739.065 495.845L735.375 488.663C737.308 487.302 739.636 486.248 742.359 485.501C745.082 484.754 747.849 484.381 750.66 484.381C756.062 484.381 760.257 485.655 763.243 488.202C766.23 490.75 767.723 494.725 767.723 500.127V520.353H758.105ZM747.3 520.88C744.533 520.88 742.161 520.419 740.185 519.496C738.208 518.53 736.693 517.234 735.639 515.609C734.585 513.984 734.058 512.162 734.058 510.141C734.058 508.033 734.563 506.188 735.573 504.607C736.627 503.026 738.274 501.796 740.514 500.918C742.754 499.995 745.675 499.534 749.276 499.534H758.698V505.529H750.396C747.981 505.529 746.312 505.925 745.389 506.715C744.511 507.506 744.072 508.494 744.072 509.68C744.072 510.998 744.577 512.052 745.587 512.842C746.641 513.589 748.069 513.962 749.869 513.962C751.582 513.962 753.119 513.567 754.481 512.776C755.843 511.942 756.831 510.734 757.446 509.153L759.027 513.896C758.28 516.18 756.919 517.915 754.942 519.101C752.966 520.287 750.418 520.88 747.3 520.88ZM792.633 533.661C789.295 533.661 786.067 533.244 782.948 532.409C779.874 531.619 777.305 530.411 775.24 528.786L779.325 521.407C780.818 522.637 782.707 523.603 784.991 524.306C787.319 525.053 789.603 525.426 791.843 525.426C795.488 525.426 798.123 524.613 799.748 522.988C801.417 521.363 802.252 518.947 802.252 515.741V510.405L802.911 501.511L802.779 492.551V484.908H812.53V514.423C812.53 521.012 810.817 525.865 807.391 528.984C803.965 532.102 799.046 533.661 792.633 533.661ZM791.052 518.64C787.758 518.64 784.771 517.937 782.092 516.532C779.457 515.082 777.326 513.084 775.701 510.536C774.12 507.945 773.33 504.936 773.33 501.511C773.33 498.041 774.12 495.032 775.701 492.485C777.326 489.893 779.457 487.895 782.092 486.489C784.771 485.084 787.758 484.381 791.052 484.381C794.039 484.381 796.674 484.996 798.958 486.226C801.242 487.412 803.021 489.278 804.294 491.826C805.568 494.329 806.205 497.558 806.205 501.511C806.205 505.42 805.568 508.648 804.294 511.195C803.021 513.699 801.242 515.565 798.958 516.795C796.674 518.025 794.039 518.64 791.052 518.64ZM793.094 510.207C794.895 510.207 796.498 509.856 797.904 509.153C799.309 508.406 800.407 507.374 801.198 506.056C801.988 504.739 802.384 503.223 802.384 501.511C802.384 499.754 801.988 498.238 801.198 496.965C800.407 495.647 799.309 494.637 797.904 493.934C796.498 493.187 794.895 492.814 793.094 492.814C791.294 492.814 789.69 493.187 788.285 493.934C786.879 494.637 785.759 495.647 784.925 496.965C784.134 498.238 783.739 499.754 783.739 501.511C783.739 503.223 784.134 504.739 784.925 506.056C785.759 507.374 786.879 508.406 788.285 509.153C789.69 509.856 791.294 510.207 793.094 510.207ZM838.368 520.88C834.328 520.88 830.77 520.089 827.695 518.508C824.665 516.927 822.315 514.775 820.646 512.052C818.977 509.285 818.143 506.144 818.143 502.631C818.143 499.073 818.955 495.932 820.58 493.209C822.249 490.442 824.511 488.29 827.366 486.753C830.221 485.172 833.449 484.381 837.051 484.381C840.521 484.381 843.639 485.128 846.406 486.621C849.217 488.071 851.435 490.179 853.06 492.946C854.685 495.669 855.498 498.941 855.498 502.762C855.498 503.158 855.476 503.619 855.432 504.146C855.388 504.629 855.344 505.09 855.3 505.529H826.51V499.534H849.898L845.945 501.313C845.945 499.468 845.572 497.865 844.825 496.503C844.078 495.142 843.046 494.088 841.728 493.341C840.411 492.551 838.874 492.155 837.117 492.155C835.36 492.155 833.801 492.551 832.439 493.341C831.121 494.088 830.089 495.164 829.343 496.569C828.596 497.931 828.223 499.556 828.223 501.445V503.026C828.223 504.958 828.64 506.671 829.474 508.165C830.353 509.614 831.561 510.734 833.098 511.525C834.679 512.271 836.524 512.645 838.632 512.645C840.521 512.645 842.168 512.359 843.573 511.788C845.023 511.217 846.34 510.361 847.526 509.219L852.994 515.148C851.369 516.993 849.327 518.42 846.867 519.431C844.408 520.397 841.575 520.88 838.368 520.88ZM906.416 484.381C909.227 484.381 911.708 484.952 913.86 486.094C916.056 487.192 917.769 488.905 918.999 491.233C920.273 493.517 920.91 496.46 920.91 500.061V520.353H910.632V501.642C910.632 498.787 910.039 496.679 908.853 495.318C907.667 493.956 905.998 493.275 903.846 493.275C902.353 493.275 901.013 493.627 899.827 494.329C898.642 494.988 897.719 495.998 897.06 497.36C896.402 498.722 896.072 500.456 896.072 502.565V520.353H885.794V501.642C885.794 498.787 885.202 496.679 884.016 495.318C882.874 493.956 881.227 493.275 879.074 493.275C877.581 493.275 876.242 493.627 875.056 494.329C873.87 494.988 872.947 495.998 872.289 497.36C871.63 498.722 871.3 500.456 871.3 502.565V520.353H861.023V484.908H870.839V494.593L868.994 491.76C870.224 489.344 871.959 487.522 874.199 486.292C876.483 485.018 879.074 484.381 881.973 484.381C885.223 484.381 888.056 485.216 890.472 486.885C892.932 488.51 894.557 491.013 895.347 494.395L891.724 493.407C892.91 490.64 894.798 488.444 897.39 486.819C900.025 485.194 903.034 484.381 906.416 484.381Z" fill="black"/>
<path d="M812.964 389.143C809.582 389.143 806.573 388.594 803.938 387.496C801.302 386.398 799.216 384.905 797.679 383.016C796.142 381.128 795.373 378.954 795.373 376.494C795.373 374.21 795.878 372.168 796.888 370.367C797.898 368.522 799.502 366.809 801.698 365.228C803.894 363.603 806.683 362.022 810.065 360.485C812.524 359.343 814.457 358.332 815.862 357.454C817.268 356.576 818.256 355.741 818.827 354.951C819.398 354.116 819.684 353.282 819.684 352.447C819.684 351.305 819.288 350.383 818.498 349.68C817.751 348.977 816.631 348.626 815.138 348.626C813.556 348.626 812.327 349.021 811.448 349.812C810.57 350.602 810.131 351.612 810.131 352.842C810.131 353.501 810.262 354.16 810.526 354.819C810.789 355.434 811.295 356.158 812.041 356.993C812.788 357.783 813.842 358.816 815.204 360.089L839.514 382.621L833.914 389.143L807.1 364.24C805.563 362.834 804.333 361.517 803.411 360.287C802.488 359.057 801.807 357.849 801.368 356.663C800.973 355.478 800.775 354.248 800.775 352.974C800.775 350.734 801.368 348.758 802.554 347.045C803.74 345.332 805.409 344.014 807.561 343.092C809.713 342.125 812.239 341.642 815.138 341.642C817.817 341.642 820.123 342.081 822.055 342.96C824.032 343.794 825.569 345.002 826.667 346.583C827.809 348.165 828.38 350.053 828.38 352.249C828.38 354.182 827.897 355.961 826.931 357.586C825.964 359.167 824.449 360.66 822.385 362.066C820.364 363.471 817.707 364.899 814.413 366.348C812.173 367.358 810.394 368.347 809.076 369.313C807.803 370.235 806.88 371.18 806.309 372.146C805.738 373.112 805.453 374.188 805.453 375.374C805.453 376.472 805.782 377.46 806.441 378.339C807.144 379.217 808.11 379.898 809.34 380.381C810.57 380.864 812.019 381.106 813.688 381.106C816.367 381.106 818.827 380.491 821.067 379.261C823.307 377.987 825.196 376.121 826.733 373.661C828.314 371.158 829.434 368.127 830.093 364.569L838.328 367.139C837.406 371.619 835.759 375.506 833.387 378.8C831.015 382.094 828.095 384.642 824.625 386.442C821.155 388.243 817.268 389.143 812.964 389.143ZM849.057 455.143C845.675 455.143 842.667 454.594 840.031 453.496C837.396 452.398 835.31 450.905 833.773 449.016C832.235 447.128 831.467 444.954 831.467 442.494C831.467 440.21 831.972 438.168 832.982 436.367C833.992 434.522 835.595 432.809 837.791 431.228C839.987 429.603 842.777 428.022 846.158 426.485C848.618 425.343 850.551 424.332 851.956 423.454C853.362 422.576 854.35 421.741 854.921 420.951C855.492 420.116 855.777 419.282 855.777 418.447C855.777 417.305 855.382 416.383 854.591 415.68C853.845 414.977 852.725 414.626 851.231 414.626C849.65 414.626 848.42 415.021 847.542 415.812C846.664 416.602 846.224 417.612 846.224 418.842C846.224 419.501 846.356 420.16 846.62 420.819C846.883 421.434 847.388 422.158 848.135 422.993C848.882 423.783 849.936 424.816 851.297 426.089L875.608 448.621L870.008 455.143L843.194 430.24C841.657 428.834 840.427 427.517 839.504 426.287C838.582 425.057 837.901 423.849 837.462 422.663C837.067 421.478 836.869 420.248 836.869 418.974C836.869 416.734 837.462 414.758 838.648 413.045C839.834 411.332 841.503 410.014 843.655 409.092C845.807 408.125 848.333 407.642 851.231 407.642C853.911 407.642 856.217 408.081 858.149 408.96C860.126 409.794 861.663 411.002 862.761 412.583C863.903 414.165 864.474 416.053 864.474 418.249C864.474 420.182 863.991 421.961 863.024 423.586C862.058 425.167 860.543 426.66 858.478 428.066C856.458 429.471 853.801 430.899 850.507 432.348C848.267 433.358 846.488 434.347 845.17 435.313C843.897 436.235 842.974 437.18 842.403 438.146C841.832 439.112 841.547 440.188 841.547 441.374C841.547 442.472 841.876 443.46 842.535 444.339C843.238 445.217 844.204 445.898 845.434 446.381C846.664 446.864 848.113 447.106 849.782 447.106C852.461 447.106 854.921 446.491 857.161 445.261C859.401 443.987 861.289 442.121 862.827 439.661C864.408 437.158 865.528 434.127 866.187 430.569L874.422 433.139C873.5 437.619 871.853 441.506 869.481 444.8C867.109 448.094 864.188 450.642 860.718 452.442C857.249 454.243 853.362 455.143 849.057 455.143Z" fill="#4BC9F1"/>
<rect x="-201.566" y="0.68457" width="402.417" height="400" rx="200" fill="#F72585"/>
</svg>
