<svg width="481" height="196" viewBox="0 0 481 196" fill="none" xmlns="http://www.w3.org/2000/svg">
<path d="M474.347 61.042L0.797445 40.9758L45.9911 160.349L460.869 132.213L474.347 61.042Z" fill="#4361EE"/>
<path d="M45 66.1096L459 27L392.028 162L61.1719 131.427L45 66.1096Z" fill="#F72585"/>
<g clip-path="url(#clip0_1591_1501)">
<path d="M398.575 192.614C394.769 184.444 390.964 176.275 387.158 168.105L385.352 170.013C393.55 172.526 401.749 175.039 409.948 177.552L410.242 174.814C407.914 175.201 405.588 175.597 403.263 176.001C401.214 176.357 398.662 176.55 398.01 178.937C397.731 179.959 397.724 181.063 397.629 182.114C397.519 183.339 397.408 184.565 397.298 185.791C397.085 188.148 396.872 190.505 396.659 192.862C396.494 194.69 399.321 195.006 399.486 193.178C399.869 188.935 400.224 184.689 400.635 180.449C400.698 179.798 400.687 179.444 401.359 179.245C402.283 178.97 403.299 178.887 404.248 178.722C406.387 178.352 408.528 177.988 410.67 177.632C411.997 177.411 412.377 175.326 410.964 174.893C402.766 172.38 394.567 169.867 386.368 167.354C385.24 167.008 384.011 168.079 384.562 169.261C388.367 177.431 392.173 185.601 395.979 193.77C396.752 195.431 399.351 194.28 398.575 192.614Z" fill="#F72585"/>
</g>
<g clip-path="url(#clip1_1591_1501)">
<path d="M56.2735 30.9653C62.0494 32.6203 67.8254 34.2753 73.6014 35.9303L72.5338 37.3194C70.0239 32.1801 67.5139 27.0408 65.004 21.9015L66.7763 21.4217C66.764 22.9959 66.7463 24.57 66.7228 26.144C66.702 27.5311 66.841 29.2326 65.3377 29.9107C64.6937 30.2013 63.9678 30.3207 63.2857 30.4929C62.4902 30.6936 61.6947 30.8943 60.8992 31.0951C59.3694 31.4811 57.8396 31.8672 56.3098 32.2532C55.1236 32.5526 54.6207 30.7231 55.807 30.4237C58.5605 29.7289 61.3194 29.0524 64.0681 28.3391C64.4905 28.2294 64.7241 28.1998 64.7854 27.7368C64.8699 27.099 64.819 26.4212 64.8282 25.7788C64.8491 24.3306 64.8649 22.8824 64.8762 21.4342C64.8832 20.5366 66.2162 20.0691 66.6485 20.9544C69.1585 26.0937 71.6685 31.233 74.1784 36.3723C74.5239 37.0798 73.9468 38.001 73.1109 37.7615C67.3349 36.1065 61.5589 34.4515 55.7829 32.7965C54.6087 32.4601 55.0955 30.6278 56.2735 30.9653Z" fill="#4361EE"/>
</g>
<defs>
<clipPath id="clip0_1591_1501">
<rect width="22.2726" height="30" fill="white" transform="matrix(0.913498 -0.406842 0.406631 0.913592 384 168)"/>
</clipPath>
<clipPath id="clip1_1591_1501">
<rect width="14.8555" height="20" fill="white" transform="matrix(0.258744 -0.965946 -0.965906 -0.258894 74 38)"/>
</clipPath>
</defs>
</svg>
