<svg width="36" height="38" viewBox="0 0 36 38" fill="none" xmlns="http://www.w3.org/2000/svg">
<rect width="36" height="38" fill="#4361EE"/>
<path d="M22 15C23.5913 15 25.1174 15.6321 26.2426 16.7574C27.3679 17.8826 28 19.4087 28 21V28H24V21C24 20.4696 23.7893 19.9609 23.4142 19.5858C23.0391 19.2107 22.5304 19 22 19C21.4696 19 20.9609 19.2107 20.5858 19.5858C20.2107 19.9609 20 20.4696 20 21V28H16V21C16 19.4087 16.6321 17.8826 17.7574 16.7574C18.8826 15.6321 20.4087 15 22 15Z" stroke="white" stroke-width="2" stroke-linecap="round" stroke-linejoin="round"/>
<path d="M12 16H8V28H12V16Z" stroke="white" stroke-width="2" stroke-linecap="round" stroke-linejoin="round"/>
<path d="M10 13C11.1046 13 12 12.1046 12 11C12 9.89543 11.1046 9 10 9C8.89543 9 8 9.89543 8 11C8 12.1046 8.89543 13 10 13Z" stroke="white" stroke-width="2" stroke-linecap="round" stroke-linejoin="round"/>
</svg>
