<svg width="36" height="38" viewBox="0 0 36 38" fill="none" xmlns="http://www.w3.org/2000/svg">
<rect width="36" height="38" fill="#4361EE"/>
<path d="M23 9H13C10.2386 9 8 11.2386 8 14V24C8 26.7614 10.2386 29 13 29H23C25.7614 29 28 26.7614 28 24V14C28 11.2386 25.7614 9 23 9Z" stroke="white" stroke-width="2" stroke-linecap="round" stroke-linejoin="round"/>
<path d="M21.9997 18.3698C22.1231 19.2021 21.981 20.052 21.5935 20.7988C21.206 21.5456 20.5929 22.1512 19.8413 22.5295C19.0898 22.9077 18.2382 23.0394 17.4075 22.9057C16.5768 22.7721 15.8095 22.3799 15.2145 21.785C14.6196 21.1901 14.2274 20.4227 14.0938 19.592C13.9601 18.7614 14.0918 17.9097 14.47 17.1582C14.8483 16.4067 15.4539 15.7936 16.2007 15.4061C16.9475 15.0186 17.7975 14.8764 18.6297 14.9998C19.4786 15.1257 20.2646 15.5213 20.8714 16.1281C21.4782 16.735 21.8738 17.5209 21.9997 18.3698Z" stroke="white" stroke-width="2" stroke-linecap="round" stroke-linejoin="round"/>
<path d="M23.5 13.5H23.51" stroke="white" stroke-width="2" stroke-linecap="round" stroke-linejoin="round"/>
</svg>
