<svg width="46" height="48" viewBox="0 0 46 48" fill="none" xmlns="http://www.w3.org/2000/svg">
<path d="M35.4025 14.7844C36.1059 14.7844 36.7327 14.9377 37.2828 15.2444C37.8419 15.551 38.2793 15.9838 38.5949 16.543C38.9106 17.1021 39.0684 17.7469 39.0684 18.4774C39.0684 19.2078 38.9106 19.8571 38.5949 20.4253C38.2793 20.9844 37.8419 21.4173 37.2828 21.7239C36.7327 22.0305 36.1059 22.1838 35.4025 22.1838C34.4285 22.1838 33.6575 21.8592 33.0893 21.2099V24.7134H31.3984V14.8656H33.0082V15.8125C33.2877 15.4698 33.6304 15.2128 34.0363 15.0414C34.4511 14.8701 34.9065 14.7844 35.4025 14.7844ZM35.2131 20.7364C35.8354 20.7364 36.3449 20.529 36.7417 20.1142C37.1475 19.6993 37.3504 19.1537 37.3504 18.4774C37.3504 17.801 37.1475 17.2554 36.7417 16.8406C36.3449 16.4257 35.8354 16.2183 35.2131 16.2183C34.8073 16.2183 34.4421 16.313 34.1174 16.5024C33.7928 16.6827 33.5357 16.9443 33.3464 17.287C33.157 17.6297 33.0623 18.0265 33.0623 18.4774C33.0623 18.9283 33.157 19.3251 33.3464 19.6678C33.5357 20.0105 33.7928 20.2765 34.1174 20.4659C34.4421 20.6462 34.8073 20.7364 35.2131 20.7364Z" fill="black"/>
<path d="M26.2775 14.7844C27.1884 14.7844 27.9098 15.0505 28.4419 15.5825C28.974 16.1056 29.24 16.8947 29.24 17.9498V22.0891H27.5491V18.1662C27.5491 17.535 27.4093 17.0615 27.1297 16.7459C26.8502 16.4212 26.4489 16.2589 25.9258 16.2589C25.3577 16.2589 24.9023 16.4483 24.5596 16.827C24.2169 17.1968 24.0455 17.7289 24.0455 18.4233V22.0891H22.3546V18.1662C22.3546 17.535 22.2148 17.0615 21.9353 16.7459C21.6557 16.4212 21.2544 16.2589 20.7314 16.2589C20.1542 16.2589 19.6943 16.4438 19.3516 16.8135C19.0179 17.1833 18.8511 17.7198 18.8511 18.4233V22.0891H17.1602V14.8656H18.7699V15.7854C19.0404 15.4608 19.3786 15.2128 19.7844 15.0414C20.1903 14.8701 20.6412 14.7844 21.1372 14.7844C21.6783 14.7844 22.1562 14.8881 22.5711 15.0956C22.9949 15.294 23.3286 15.5916 23.5721 15.9883C23.8697 15.6096 24.2529 15.3165 24.7219 15.1091C25.1908 14.8926 25.7094 14.7844 26.2775 14.7844Z" fill="black"/>
<path d="M11.6855 22.1838C10.955 22.1838 10.2967 22.026 9.71051 21.7104C9.12433 21.3947 8.66441 20.9574 8.33073 20.3982C8.00608 19.8301 7.84375 19.1898 7.84375 18.4774C7.84375 17.7649 8.00608 17.1291 8.33073 16.57C8.66441 16.0109 9.12433 15.5735 9.71051 15.2579C10.2967 14.9422 10.955 14.7844 11.6855 14.7844C12.425 14.7844 13.0878 14.9422 13.674 15.2579C14.2602 15.5735 14.7156 16.0109 15.0403 16.57C15.3739 17.1291 15.5408 17.7649 15.5408 18.4774C15.5408 19.1898 15.3739 19.8301 15.0403 20.3982C14.7156 20.9574 14.2602 21.3947 13.674 21.7104C13.0878 22.026 12.425 22.1838 11.6855 22.1838ZM11.6855 20.7364C12.3077 20.7364 12.8218 20.529 13.2276 20.1142C13.6334 19.6993 13.8363 19.1537 13.8363 18.4774C13.8363 17.801 13.6334 17.2554 13.2276 16.8406C12.8218 16.4257 12.3077 16.2183 11.6855 16.2183C11.0632 16.2183 10.5492 16.4257 10.1434 16.8406C9.74659 17.2554 9.54819 17.801 9.54819 18.4774C9.54819 19.1537 9.74659 19.6993 10.1434 20.1142C10.5492 20.529 11.0632 20.7364 11.6855 20.7364Z" fill="black"/>
<path d="M3.99922 22.1838C3.25071 22.1838 2.57886 22.026 1.98366 21.7104C1.38846 21.3947 0.924025 20.9574 0.590353 20.3982C0.25668 19.8301 0.0898438 19.1898 0.0898438 18.4774C0.0898438 17.7649 0.25668 17.1291 0.590353 16.57C0.924025 16.0109 1.38395 15.5735 1.97013 15.2579C2.56533 14.9422 3.2417 14.7844 3.99922 14.7844C4.71166 14.7844 5.33391 14.9287 5.86598 15.2173C6.40707 15.5059 6.81289 15.9207 7.08344 16.4618L5.78482 17.2193C5.5774 16.8857 5.31588 16.6377 5.00024 16.4753C4.69362 16.304 4.35544 16.2183 3.9857 16.2183C3.35442 16.2183 2.83137 16.4257 2.41653 16.8406C2.0017 17.2464 1.79428 17.792 1.79428 18.4774C1.79428 19.1627 1.99719 19.7129 2.40301 20.1277C2.81784 20.5335 3.34541 20.7364 3.9857 20.7364C4.35544 20.7364 4.69362 20.6553 5.00024 20.4929C5.31588 20.3216 5.5774 20.0691 5.78482 19.7354L7.08344 20.4929C6.80387 21.034 6.39355 21.4534 5.85246 21.751C5.32039 22.0395 4.70264 22.1838 3.99922 22.1838Z" fill="black"/>
<path d="M18.5259 12.4905C17.9397 12.4905 17.3671 12.4138 16.8079 12.2605C16.2488 12.1072 15.8024 11.9133 15.4688 11.6788L16.1181 10.3938C16.4427 10.6102 16.8305 10.786 17.2814 10.9213C17.7413 11.0476 18.1922 11.1107 18.6341 11.1107C19.6442 11.1107 20.1492 10.8447 20.1492 10.3126C20.1492 10.0601 20.0184 9.88422 19.7569 9.78502C19.5044 9.68582 19.0941 9.59113 18.5259 9.50095C17.9307 9.41077 17.4437 9.30706 17.065 9.18983C16.6952 9.07259 16.3706 8.86968 16.091 8.5811C15.8205 8.2835 15.6852 7.87317 15.6852 7.35012C15.6852 6.66474 15.9693 6.11914 16.5374 5.71332C17.1146 5.29848 17.8901 5.09106 18.8641 5.09106C19.3601 5.09106 19.8561 5.14968 20.3521 5.26692C20.8481 5.37514 21.2539 5.52394 21.5695 5.71332L20.9202 6.99841C20.307 6.63768 19.6171 6.45732 18.8506 6.45732C18.3546 6.45732 17.9758 6.53397 17.7143 6.68728C17.4618 6.83157 17.3355 7.02546 17.3355 7.26895C17.3355 7.5395 17.4708 7.73339 17.7413 7.85063C18.0209 7.95884 18.4493 8.06255 19.0264 8.16175C19.6036 8.25193 20.077 8.35564 20.4468 8.47288C20.8165 8.59012 21.1322 8.78852 21.3937 9.06808C21.6642 9.34764 21.7995 9.74444 21.7995 10.2585C21.7995 10.9348 21.5064 11.4759 20.9202 11.8817C20.3341 12.2876 19.5359 12.4905 18.5259 12.4905Z" fill="black"/>
<path d="M14.6671 8.82459C14.6671 8.94182 14.6581 9.10866 14.6401 9.3251H8.97216C9.07136 9.85717 9.32838 10.281 9.74321 10.5967C10.1671 10.9033 10.6901 11.0566 11.3124 11.0566C12.106 11.0566 12.7598 10.7951 13.2738 10.272L14.1802 11.3136C13.8555 11.7014 13.4452 11.9945 12.9492 12.1929C12.4532 12.3913 11.894 12.4905 11.2718 12.4905C10.4782 12.4905 9.77928 12.3327 9.17507 12.017C8.57085 11.7014 8.1019 11.264 7.76823 10.7049C7.44358 10.1367 7.28125 9.49644 7.28125 8.78401C7.28125 8.08059 7.43907 7.44932 7.7547 6.89019C8.07936 6.32205 8.52576 5.88016 9.0939 5.56452C9.66205 5.24888 10.3023 5.09106 11.0148 5.09106C11.7182 5.09106 12.345 5.24888 12.8951 5.56452C13.4542 5.87114 13.8871 6.30852 14.1937 6.87666C14.5093 7.43579 14.6671 8.0851 14.6671 8.82459ZM11.0148 6.44379C10.4737 6.44379 10.0138 6.60612 9.63499 6.93077C9.26525 7.24641 9.03979 7.67026 8.95863 8.20233H13.0574C12.9852 7.67928 12.7643 7.25543 12.3946 6.93077C12.0248 6.60612 11.5649 6.44379 11.0148 6.44379Z" fill="black"/>
<path d="M3.147 12.4905C2.56082 12.4905 1.98817 12.4138 1.42904 12.2605C0.869916 12.1072 0.423516 11.9133 0.0898438 11.6788L0.739152 10.3938C1.06381 10.6102 1.45159 10.786 1.9025 10.9213C2.36242 11.0476 2.81333 11.1107 3.25522 11.1107C4.26526 11.1107 4.77028 10.8447 4.77028 10.3126C4.77028 10.0601 4.63951 9.88422 4.37799 9.78502C4.12548 9.68582 3.71515 9.59113 3.147 9.50095C2.55181 9.41077 2.06482 9.30706 1.68606 9.18983C1.31632 9.07259 0.991661 8.86968 0.712098 8.5811C0.441552 8.2835 0.30628 7.87317 0.30628 7.35012C0.30628 6.66474 0.590352 6.11914 1.1585 5.71332C1.73566 5.29848 2.51122 5.09106 3.48519 5.09106C3.98119 5.09106 4.47719 5.14968 4.97319 5.26692C5.46918 5.37514 5.875 5.52394 6.19064 5.71332L5.54133 6.99841C4.92809 6.63768 4.2382 6.45732 3.47166 6.45732C2.97566 6.45732 2.5969 6.53397 2.33537 6.68728C2.08286 6.83157 1.95661 7.02546 1.95661 7.26895C1.95661 7.5395 2.09188 7.73339 2.36242 7.85063C2.64199 7.95884 3.07035 8.06255 3.64751 8.16175C4.22468 8.25193 4.69813 8.35564 5.06788 8.47288C5.43762 8.59012 5.75326 8.78852 6.01478 9.06808C6.28533 9.34764 6.4206 9.74444 6.4206 10.2585C6.4206 10.9348 6.12751 11.4759 5.54133 11.8817C4.95515 12.2876 4.15704 12.4905 3.147 12.4905Z" fill="black"/>
<path d="M20.0147 39.9129H16.9453V35.1101H17.4495V39.4823H20.0147V39.9129Z" fill="black"/>
<path d="M15.3932 39.9129H13.3359V39.4823H14.1125V35.5407H13.3359V35.1101H15.3932V35.5407H14.6204V39.4823H15.3932V39.9129Z" fill="black"/>
<path d="M12.0087 39.9129H11.3684L9.96615 37.8556H9.21905V39.9129H8.71484V35.1101H10.2974C10.8249 35.1101 11.2334 35.2254 11.5229 35.4561C11.8124 35.6842 11.9572 36.0265 11.9572 36.4829C11.9572 36.6841 11.9216 36.8656 11.8505 37.0276C11.7793 37.187 11.6824 37.3232 11.5597 37.4361C11.4371 37.5489 11.2898 37.6397 11.1181 37.7084C10.9488 37.7771 10.7636 37.8188 10.5624 37.8335L12.0087 39.9129ZM11.4346 36.4829C11.4346 36.1565 11.3328 35.9186 11.1291 35.7689C10.9279 35.6168 10.6507 35.5407 10.2974 35.5407H9.21905V37.425H10.2974C10.6507 37.425 10.9279 37.3514 11.1291 37.2042C11.3328 37.0545 11.4346 36.8141 11.4346 36.4829Z" fill="black"/>
<path d="M7.84392 38.5402C7.84392 38.999 7.69548 39.3425 7.3986 39.5707C7.10172 39.7988 6.67971 39.9129 6.13257 39.9129H4.60156V35.1101H6.04793C6.24912 35.1101 6.44663 35.1273 6.64046 35.1616C6.83429 35.1935 7.00726 35.2549 7.15938 35.3456C7.31395 35.4364 7.43909 35.5628 7.53477 35.7247C7.63046 35.8842 7.67831 36.094 7.67831 36.3541C7.67831 36.8521 7.42927 37.1919 6.9312 37.3735C7.53968 37.56 7.84392 37.9489 7.84392 38.5402ZM7.1741 36.3541C7.1741 36.1848 7.13853 36.0461 7.06737 35.9382C6.99622 35.8302 6.90544 35.748 6.79503 35.6916C6.68462 35.6327 6.56317 35.5935 6.43068 35.5738C6.29819 35.5517 6.1706 35.5407 6.04793 35.5407H5.10577V37.1711H6.04793C6.18532 37.1711 6.32027 37.1613 6.45276 37.1416C6.58525 37.1196 6.70425 37.0791 6.80975 37.0202C6.91525 36.9589 7.00235 36.8754 7.07105 36.7699C7.13975 36.6644 7.1741 36.5258 7.1741 36.3541ZM7.33972 38.5402C7.33972 38.2089 7.23176 37.9685 7.01585 37.8188C6.80239 37.6667 6.50797 37.5906 6.13257 37.5906H5.10577V39.4823H6.13257C6.50797 39.4823 6.80239 39.4038 7.01585 39.2468C7.23176 39.0873 7.33972 38.8518 7.33972 38.5402Z" fill="black"/>
<path d="M3.9689 39.9129H3.42789L2.97521 38.5402H1.07617L0.63085 39.9129H0.0898438L1.6871 35.1101H2.37164L3.9689 39.9129ZM2.83168 38.0948L2.02569 35.618L1.2197 38.0948H2.83168Z" fill="black"/>
<path d="M33.4913 37.606L45.1702 48.0001H21.8125L33.4913 37.606Z" fill="#4361EE"/>
<path d="M33.4913 26.8613L45.1702 37.6059H21.8125L33.4913 26.8613Z" fill="#4361EE"/>
<path d="M19.8465 31.9475H19.1172V31.2183H19.8465V31.9475Z" fill="black"/>
<path d="M16.7356 31.9475H16.1945V31.6103C16.0403 31.7488 15.8704 31.8547 15.6848 31.9279C15.5018 32.0011 15.3136 32.0377 15.1202 32.0377C14.83 32.0377 14.57 31.9906 14.3399 31.8965C14.1099 31.8024 13.9152 31.6717 13.7557 31.5044C13.5989 31.3345 13.4773 31.132 13.3911 30.8967C13.3074 30.6615 13.2656 30.404 13.2656 30.1243C13.2656 29.8472 13.3074 29.5911 13.3911 29.3558C13.4773 29.118 13.5989 28.9154 13.7557 28.7481C13.9152 28.5782 14.1099 28.4462 14.3399 28.3521C14.57 28.2554 14.83 28.207 15.1202 28.207C15.3136 28.207 15.5018 28.2423 15.6848 28.3129C15.8704 28.3808 16.0403 28.4841 16.1945 28.6226V27.2895H15.4652V26.8308H16.7356V31.9475ZM16.1945 29.1441C16.0403 28.9742 15.8717 28.8513 15.6887 28.7755C15.5083 28.6997 15.3162 28.6618 15.1123 28.6618C14.898 28.6618 14.7085 28.6997 14.5438 28.7755C14.3818 28.8513 14.2458 28.9546 14.136 29.0853C14.0263 29.216 13.9426 29.3702 13.8851 29.5479C13.8302 29.7231 13.8028 29.9152 13.8028 30.1243C13.8028 30.3334 13.8302 30.5268 13.8851 30.7046C13.9426 30.8797 14.0263 31.0326 14.136 31.1633C14.2458 31.294 14.3818 31.3973 14.5438 31.4731C14.7085 31.5489 14.898 31.5868 15.1123 31.5868C15.5253 31.5868 15.886 31.4234 16.1945 31.0967V29.1441Z" fill="black"/>
<path d="M9.42393 30.3086C9.46314 30.6954 9.60429 31.0039 9.84738 31.2339C10.0905 31.4639 10.4067 31.5789 10.7962 31.5789C11.0707 31.5789 11.3151 31.5227 11.5294 31.4103C11.7437 31.2979 11.9045 31.1581 12.0117 30.9908L12.3881 31.2496C12.2051 31.5058 11.9868 31.7018 11.7333 31.8377C11.4797 31.971 11.1674 32.0377 10.7962 32.0377C10.5139 32.0377 10.2551 31.9906 10.0199 31.8965C9.78465 31.8024 9.58076 31.6717 9.40825 31.5044C9.23834 31.3345 9.10634 31.1333 9.01224 30.9006C8.91814 30.668 8.87109 30.4092 8.87109 30.1243C8.87109 29.8472 8.91292 29.5924 8.99656 29.3598C9.08282 29.1245 9.20567 28.9219 9.36512 28.752C9.52718 28.5795 9.72322 28.4462 9.95324 28.3521C10.1833 28.2554 10.4407 28.207 10.7256 28.207C11.0367 28.207 11.3085 28.2593 11.5412 28.3639C11.7738 28.4684 11.9672 28.6135 12.1215 28.7991C12.2783 28.982 12.3933 29.2016 12.4665 29.4578C12.5423 29.7139 12.5802 29.9975 12.5802 30.3086H9.42393ZM12.0117 29.8499C11.9516 29.4499 11.8065 29.1519 11.5765 28.9559C11.3464 28.7599 11.0628 28.6618 10.7256 28.6618C10.5531 28.6618 10.3937 28.6906 10.2473 28.7481C10.1009 28.803 9.97154 28.8827 9.85914 28.9873C9.74674 29.0918 9.65264 29.2186 9.57684 29.3676C9.50104 29.514 9.45268 29.6747 9.43177 29.8499H12.0117Z" fill="black"/>
<path d="M3.59349 27.2319C3.26364 27.589 2.9995 27.9407 2.80105 28.287C2.6026 28.6334 2.44975 28.9958 2.34248 29.3744C2.23521 29.7503 2.1628 30.153 2.12526 30.5825C2.08772 31.0094 2.06626 31.4819 2.0609 32.0001H1.48165C1.48701 31.5115 1.51249 31.051 1.55808 30.6188C1.60635 30.1865 1.68948 29.7744 1.80748 29.3824C1.92547 28.9878 2.08637 28.6119 2.29018 28.2548C2.49399 27.8977 2.75144 27.5514 3.06252 27.2158H0.560483L0.560483 28.2468H0.0898437L0.0898438 26.7446H3.59349V27.2319Z" fill="black"/>
<path d="M20.0562 46.2714C20.0562 46.5073 20.012 46.7285 19.9235 46.9349C19.835 47.1413 19.7134 47.322 19.5586 47.4768C19.4062 47.6291 19.2219 47.7496 19.0056 47.838C18.7894 47.9265 18.5535 47.9707 18.2979 47.9707C18.0669 47.9707 17.8531 47.9363 17.6565 47.8675C17.4599 47.7987 17.2866 47.7004 17.1367 47.5726C16.9893 47.4448 16.8701 47.2876 16.7792 47.1008C16.6882 46.914 16.6329 46.7002 16.6133 46.4594L17.1035 46.382C17.1183 46.5491 17.1576 46.7051 17.2215 46.8501C17.2854 46.9927 17.369 47.1143 17.4722 47.2151C17.5754 47.3158 17.697 47.3957 17.8371 47.4547C17.9772 47.5112 18.1308 47.5394 18.2979 47.5394C18.4945 47.5394 18.669 47.5075 18.8213 47.4436C18.9761 47.3772 19.1076 47.2863 19.2157 47.1708C19.3239 47.0529 19.4062 46.9177 19.4627 46.7653C19.5217 46.6105 19.5512 46.4459 19.5512 46.2714C19.5512 46.0895 19.5217 45.9212 19.4627 45.7664C19.4062 45.6091 19.3251 45.4739 19.2194 45.3609C19.1138 45.2478 18.9835 45.1594 18.8287 45.0955C18.6763 45.0291 18.5068 44.996 18.32 44.996C18.1234 44.996 17.9342 45.0377 17.7523 45.1213C17.5729 45.2024 17.4169 45.3216 17.2842 45.4788H16.7792V43.0754H19.7908V43.5067H17.2842V45.0107C17.4316 44.8682 17.5987 44.7588 17.7855 44.6826C17.9747 44.604 18.1676 44.5647 18.3642 44.5647C18.6124 44.5647 18.8398 44.6052 19.0462 44.6863C19.2526 44.765 19.4308 44.878 19.5807 45.0254C19.7306 45.1704 19.8473 45.3486 19.9309 45.5599C20.0144 45.7713 20.0562 46.0084 20.0562 46.2714Z" fill="black"/>
<path d="M15.7337 44.3214C15.7337 44.4541 15.7214 44.5733 15.6968 44.679C15.6747 44.7847 15.6329 44.8916 15.5715 44.9997C15.5125 45.1078 15.4339 45.2221 15.3356 45.3425C15.2373 45.4629 15.1132 45.6005 14.9633 45.7554L13.286 47.4547H15.3171V46.511H15.7484V47.886H12.6225V47.44L14.4951 45.5379C14.591 45.442 14.6819 45.3462 14.7679 45.2503C14.8564 45.1545 14.935 45.0574 15.0038 44.9591C15.0726 44.8608 15.1267 44.7589 15.166 44.6532C15.2053 44.5475 15.225 44.4369 15.225 44.3214C15.225 44.0265 15.1267 43.8041 14.9301 43.6542C14.736 43.5019 14.4951 43.4257 14.2076 43.4257C13.8046 43.4257 13.4998 43.5375 13.2934 43.7611C13.087 43.9847 12.9838 44.3079 12.9838 44.7306H12.5156C12.5156 44.1875 12.6606 43.7623 12.9506 43.4552C13.2406 43.148 13.6596 42.9944 14.2076 42.9944C14.414 42.9944 14.6082 43.0251 14.79 43.0865C14.9743 43.1455 15.1365 43.2315 15.2766 43.3446C15.4191 43.4576 15.5309 43.5965 15.612 43.7611C15.6931 43.9233 15.7337 44.1101 15.7337 44.3214Z" fill="black"/>
<path d="M11.7949 46.3378H8.35938V45.9065H11.7949V46.3378Z" fill="black"/>
<path d="M7.4915 44.3214C7.4915 44.4541 7.47921 44.5733 7.45464 44.679C7.43252 44.7847 7.39074 44.8916 7.32931 44.9997C7.27033 45.1078 7.19169 45.2221 7.09339 45.3425C6.99509 45.4629 6.87099 45.6005 6.72108 45.7554L5.04386 47.4547H7.07496V46.511H7.50625V47.886H4.38034V47.44L6.25293 45.5379C6.34877 45.442 6.4397 45.3462 6.52571 45.2503C6.61418 45.1545 6.69282 45.0574 6.76163 44.9591C6.83044 44.8608 6.8845 44.7589 6.92382 44.6532C6.96314 44.5475 6.9828 44.4369 6.9828 44.3214C6.9828 44.0265 6.8845 43.8041 6.68791 43.6542C6.49377 43.5019 6.25293 43.4257 5.96541 43.4257C5.56238 43.4257 5.25766 43.5375 5.05123 43.7611C4.8448 43.9847 4.74159 44.3079 4.74159 44.7306H4.27344C4.27344 44.1875 4.41843 43.7623 4.70841 43.4552C4.99839 43.148 5.41739 42.9944 5.96541 42.9944C6.17184 42.9944 6.36598 43.0251 6.54783 43.0865C6.73214 43.1455 6.89433 43.2315 7.03441 43.3446C7.17694 43.4576 7.28876 43.5965 7.36986 43.7611C7.45095 43.9233 7.4915 44.1101 7.4915 44.3214Z" fill="black"/>
<path d="M3.37041 44.3214C3.37041 44.4541 3.35812 44.5733 3.33354 44.679C3.31143 44.7847 3.26965 44.8916 3.20821 44.9997C3.14923 45.1078 3.07059 45.2221 2.9723 45.3425C2.874 45.4629 2.74989 45.6005 2.59999 45.7554L0.922762 47.4547H2.95386V46.511H3.38515V47.886H0.259244V47.44L2.13184 45.5379C2.22768 45.442 2.31861 45.3462 2.40462 45.2503C2.49309 45.1545 2.57173 45.0574 2.64054 44.9591C2.70935 44.8608 2.76341 44.7589 2.80273 44.6532C2.84205 44.5475 2.86171 44.4369 2.86171 44.3214C2.86171 44.0265 2.76341 43.8041 2.56681 43.6542C2.37267 43.5019 2.13184 43.4257 1.84431 43.4257C1.44129 43.4257 1.13656 43.5375 0.930134 43.7611C0.723707 43.9847 0.620493 44.3079 0.620493 44.7306H0.152344C0.152344 44.1875 0.297335 43.7623 0.587317 43.4552C0.877299 43.148 1.2963 42.9944 1.84431 42.9944C2.05074 42.9944 2.24488 43.0251 2.42674 43.0865C2.61105 43.1455 2.77324 43.2315 2.91332 43.3446C3.05585 43.4576 3.16766 43.5965 3.24876 43.7611C3.32986 43.9233 3.37041 44.1101 3.37041 44.3214Z" fill="black"/>
<path d="M36.0198 3.70289C36.2524 3.25269 36.44 2.87753 36.5825 2.57739C36.7251 2.26976 36.8414 1.98838 36.9314 1.73327C37.029 1.47065 37.1115 1.20804 37.179 0.94542C37.2541 0.682803 37.3328 0.367663 37.4154 0L40.3192 0.60777C40.2817 0.92291 40.2366 1.20804 40.1841 1.46315C40.1391 1.71826 40.0753 1.97338 39.9928 2.22849C39.9102 2.4761 39.8089 2.73496 39.6889 3.00508C39.5763 3.2677 39.4375 3.56033 39.2725 3.88297L36.1661 10.0845L39.6776 10.0845V7.59712L42.694 7.59712V10.0845H44.5848V12.3918H42.694V15.4756H39.6776V12.3918L32.7783 12.3918L32.3281 10.9961L36.0198 3.70289Z" fill="#4361EE"/>
<path d="M23.8451 1.24935C24.5429 0.911702 25.312 0.652837 26.1523 0.472757C26.9927 0.292677 27.8218 0.202637 28.6397 0.202637C29.2625 0.202637 29.844 0.262663 30.3842 0.382717C30.9245 0.495267 31.3934 0.68285 31.7911 0.945467C32.1888 1.20808 32.5002 1.55699 32.7253 1.99218C32.9504 2.42737 33.0629 2.96386 33.0629 3.60165C33.0629 4.21692 32.9804 4.7309 32.8153 5.14358C32.6502 5.55626 32.4064 5.91267 32.0837 6.21281C31.7611 6.51294 31.3559 6.78306 30.8682 7.02317C30.388 7.25577 29.8327 7.50713 29.2024 7.77725C28.8348 7.93482 28.5159 8.07363 28.2458 8.19369C27.9832 8.30624 27.7618 8.41503 27.5817 8.52008C27.4016 8.61762 27.2553 8.71892 27.1428 8.82397C27.0302 8.92151 26.9439 9.03406 26.8839 9.16162C26.8239 9.28917 26.7826 9.43549 26.7601 9.60056C26.7376 9.76563 26.7226 9.96447 26.7151 10.1971L32.8941 10.1971V12.3918L23.6875 12.3918L23.6875 10.8274C23.6875 10.0995 23.7813 9.473 23.9689 8.94777C24.1565 8.42254 24.4266 7.96859 24.7792 7.58592C25.1319 7.20325 25.5596 6.86935 26.0623 6.58422C26.565 6.29909 27.1315 6.03273 27.7618 5.78512C28.1145 5.64255 28.4296 5.515 28.7072 5.40245C28.9924 5.2899 29.2325 5.16234 29.4275 5.01978C29.6226 4.86971 29.7727 4.69338 29.8777 4.49079C29.9828 4.2807 30.0353 4.00683 30.0353 3.66918C30.0353 3.40656 29.9903 3.18896 29.9003 3.01639C29.8102 2.84381 29.6864 2.705 29.5288 2.59995C29.3713 2.4949 29.1874 2.42362 28.9773 2.38611C28.7673 2.34109 28.5422 2.31858 28.302 2.31858C28.0544 2.31858 27.7806 2.34109 27.4804 2.38611C27.1803 2.42362 26.8727 2.4799 26.5575 2.55493C26.2424 2.62996 25.9235 2.72376 25.6008 2.83631C25.2857 2.94886 24.9856 3.07641 24.7004 3.21898L23.8451 1.24935Z" fill="#4361EE"/>
</svg>
