<svg width="36" height="38" viewBox="0 0 36 38" fill="none" xmlns="http://www.w3.org/2000/svg">
<rect width="36" height="38" fill="#4361EE"/>
<path d="M28.5406 13.42C28.4218 12.9454 28.1799 12.5106 27.8392 12.1594C27.4986 11.8082 27.0713 11.5532 26.6006 11.42C24.8806 11 18.0006 11 18.0006 11C18.0006 11 11.1206 11 9.40057 11.46C8.92982 11.5932 8.50255 11.8482 8.16192 12.1994C7.82129 12.5506 7.57936 12.9854 7.46057 13.46C7.14579 15.2056 6.99181 16.9763 7.00057 18.75C6.98935 20.537 7.14334 22.3213 7.46057 24.08C7.59153 24.5398 7.83888 24.9581 8.17872 25.2945C8.51855 25.6308 8.93939 25.8738 9.40057 26C11.1206 26.46 18.0006 26.46 18.0006 26.46C18.0006 26.46 24.8806 26.46 26.6006 26C27.0713 25.8668 27.4986 25.6118 27.8392 25.2606C28.1799 24.9094 28.4218 24.4746 28.5406 24C28.8529 22.2676 29.0069 20.5103 29.0006 18.75C29.0118 16.963 28.8578 15.1787 28.5406 13.42Z" stroke="white" stroke-width="2" stroke-linecap="round" stroke-linejoin="round"/>
<path d="M15.75 22.02L21.5 18.75L15.75 15.48V22.02Z" stroke="white" stroke-width="2" stroke-linecap="round" stroke-linejoin="round"/>
</svg>
