<svg width="114" height="56" viewBox="0 0 114 56" fill="none" xmlns="http://www.w3.org/2000/svg">
<path d="M27.9524 56H28.0437C43.4814 56 55.9961 43.464 55.9961 28C55.9961 12.536 43.4814 0 28.0437 0H27.9524C12.5147 0 -1.14441e-05 12.536 -1.14441e-05 28C-1.14441e-05 43.464 12.5147 56 27.9524 56Z" fill="#4361EE"/>
<path fill-rule="evenodd" clip-rule="evenodd" d="M34.8903 31.2849L27.6445 38.4897L31.2215 41.9554L38.4214 34.7961V34.7961L41.9526 31.2849L38.5819 27.9332L38.582 27.9331L32.8037 22.1875L29.2726 25.6988L34.8903 31.2848L34.8903 31.2849Z" fill="#0A03C8"/>
<path fill-rule="evenodd" clip-rule="evenodd" d="M22.0506 25.699L29.2962 18.4942L25.7652 14.9829L18.5194 22.1878L18.5194 22.1877L14.9883 25.699L18.5194 29.2103L18.5194 29.2102L24.1372 34.7963L27.6683 31.2851L22.0506 25.699ZM22.0505 25.6991V25.699L22.0497 25.6998L22.0505 25.6991Z" fill="#0A03C8"/>
<path fill-rule="evenodd" clip-rule="evenodd" d="M21.0155 24.6717L28.2612 17.4668L24.73 13.9556L17.4843 21.1605V21.1604L13.9531 24.6717L17.4843 28.1829L23.1021 33.7689L26.6332 30.2577L21.0155 24.6717ZM21.0154 24.6717L21.0154 24.6717L21.0146 24.6725L21.0154 24.6717Z" fill="white"/>
<path fill-rule="evenodd" clip-rule="evenodd" d="M33.8551 30.2575L26.6094 37.4624L30.1864 40.9281L37.3862 33.7688H37.3862L40.9173 30.2576L37.5466 26.9059L37.3862 26.7463L31.7684 21.1602L28.2373 24.6714L33.8551 30.2575Z" fill="white"/>
<path d="M101.968 17.2485C102.789 17.2485 103.52 17.4274 104.161 17.7851C104.814 18.1428 105.324 18.6479 105.692 19.3002C106.06 19.9525 106.245 20.7048 106.245 21.557C106.245 22.4092 106.06 23.1667 105.692 23.8295C105.324 24.4819 104.814 24.9869 104.161 25.3446C103.52 25.7023 102.789 25.8812 101.968 25.8812C100.832 25.8812 99.9323 25.5024 99.2695 24.7449V28.8324H97.2969V17.3432H99.1748V18.448C99.5009 18.0481 99.9007 17.7483 100.374 17.5484C100.858 17.3485 101.389 17.2485 101.968 17.2485ZM101.747 24.1925C102.473 24.1925 103.067 23.9505 103.53 23.4666C104.004 22.9826 104.24 22.3461 104.24 21.557C104.24 20.7679 104.004 20.1313 103.53 19.6474C103.067 19.1634 102.473 18.9214 101.747 18.9214C101.274 18.9214 100.848 19.0319 100.469 19.2528C100.09 19.4632 99.7902 19.7684 99.5693 20.1682C99.3484 20.568 99.2379 21.0309 99.2379 21.557C99.2379 22.083 99.3484 22.546 99.5693 22.9458C99.7902 23.3456 100.09 23.6559 100.469 23.8769C100.848 24.0873 101.274 24.1925 101.747 24.1925Z" fill="black"/>
<path d="M91.3159 17.2485C92.3784 17.2485 93.2201 17.5589 93.8408 18.1797C94.4615 18.7899 94.7719 19.7105 94.7719 20.9415V25.7707H92.7993V21.194C92.7993 20.4575 92.6362 19.9051 92.3101 19.5369C91.9839 19.1581 91.5158 18.9688 90.9056 18.9688C90.2428 18.9688 89.7115 19.1897 89.3117 19.6316C88.912 20.063 88.7121 20.6837 88.7121 21.4938V25.7707H86.7395V21.194C86.7395 20.4575 86.5764 19.9051 86.2503 19.5369C85.9241 19.1581 85.456 18.9688 84.8458 18.9688C84.1725 18.9688 83.6359 19.1844 83.2362 19.6158C82.8469 20.0472 82.6523 20.6732 82.6523 21.4938V25.7707H80.6797V17.3432H82.5576V18.4164C82.8732 18.0376 83.2677 17.7483 83.7411 17.5484C84.2146 17.3485 84.7406 17.2485 85.3192 17.2485C85.9504 17.2485 86.508 17.3695 86.992 17.6115C87.4864 17.843 87.8757 18.1902 88.1597 18.6531C88.5069 18.2112 88.954 17.8693 89.5011 17.6273C90.0482 17.3748 90.6531 17.2485 91.3159 17.2485Z" fill="black"/>
<path d="M74.2981 25.8812C73.446 25.8812 72.678 25.6971 71.9941 25.3288C71.3103 24.9606 70.7738 24.4503 70.3845 23.798C70.0058 23.1351 69.8164 22.3881 69.8164 21.557C69.8164 20.7258 70.0058 19.984 70.3845 19.3317C70.7738 18.6794 71.3103 18.1691 71.9941 17.8009C72.678 17.4327 73.446 17.2485 74.2981 17.2485C75.1608 17.2485 75.9341 17.4327 76.6179 17.8009C77.3017 18.1691 77.833 18.6794 78.2117 19.3317C78.601 19.984 78.7956 20.7258 78.7956 21.557C78.7956 22.3881 78.601 23.1351 78.2117 23.798C77.833 24.4503 77.3017 24.9606 76.6179 25.3288C75.9341 25.6971 75.1608 25.8812 74.2981 25.8812ZM74.2981 24.1925C75.024 24.1925 75.6237 23.9505 76.0971 23.4666C76.5705 22.9826 76.8073 22.3461 76.8073 21.557C76.8073 20.7679 76.5705 20.1313 76.0971 19.6474C75.6237 19.1634 75.024 18.9214 74.2981 18.9214C73.5722 18.9214 72.9725 19.1634 72.4991 19.6474C72.0362 20.1313 71.8048 20.7679 71.8048 21.557C71.8048 22.3461 72.0362 22.9826 72.4991 23.4666C72.9725 23.9505 73.5722 24.1925 74.2981 24.1925Z" fill="black"/>
<path d="M65.3263 25.8812C64.4531 25.8812 63.6693 25.6971 62.9749 25.3288C62.2806 24.9606 61.7388 24.4503 61.3495 23.798C60.9603 23.1351 60.7656 22.3881 60.7656 21.557C60.7656 20.7258 60.9603 19.984 61.3495 19.3317C61.7388 18.6794 62.2753 18.1691 62.9591 17.8009C63.6535 17.4327 64.4425 17.2485 65.3263 17.2485C66.1574 17.2485 66.8833 17.4169 67.504 17.7536C68.1352 18.0902 68.6086 18.5742 68.9243 19.2055L67.4093 20.0893C67.1673 19.7 66.8622 19.4106 66.494 19.2213C66.1363 19.0214 65.7418 18.9214 65.3105 18.9214C64.574 18.9214 63.9638 19.1634 63.4799 19.6474C62.996 20.1208 62.754 20.7574 62.754 21.557C62.754 22.3566 62.9907 22.9984 63.4641 23.4823C63.9481 23.9558 64.5635 24.1925 65.3105 24.1925C65.7418 24.1925 66.1363 24.0978 66.494 23.9085C66.8622 23.7086 67.1673 23.414 67.4093 23.0247L68.9243 23.9085C68.5981 24.5397 68.1194 25.029 67.4882 25.3762C66.8675 25.7128 66.1468 25.8812 65.3263 25.8812Z" fill="black"/>
<path d="M82.2735 14.5721C81.5896 14.5721 80.9216 14.4827 80.2693 14.3038C79.6171 14.1249 79.0963 13.8987 78.707 13.6252L79.4645 12.1259C79.8432 12.3784 80.2956 12.5836 80.8216 12.7414C81.3582 12.8887 81.8842 12.9624 82.3997 12.9624C83.578 12.9624 84.1672 12.652 84.1672 12.0312C84.1672 11.7366 84.0146 11.5315 83.7095 11.4157C83.4149 11.3 82.9363 11.1895 82.2735 11.0843C81.5791 10.9791 81.011 10.8581 80.5692 10.7213C80.1378 10.5846 79.7591 10.3478 79.4329 10.0112C79.1173 9.66396 78.9595 9.18524 78.9595 8.57501C78.9595 7.7754 79.2909 7.13887 79.9537 6.66542C80.627 6.18144 81.5318 5.93945 82.668 5.93945C83.2466 5.93945 83.8252 6.00784 84.4039 6.14462C84.9825 6.27087 85.4559 6.44447 85.8241 6.66542L85.0667 8.16469C84.3513 7.74384 83.5464 7.53342 82.6522 7.53342C82.0736 7.53342 81.6317 7.62285 81.3266 7.80171C81.0321 7.97005 80.8848 8.19625 80.8848 8.48032C80.8848 8.79596 81.0426 9.02217 81.3582 9.15894C81.6843 9.2852 82.184 9.40619 82.8574 9.52192C83.5307 9.62714 84.083 9.74813 84.5143 9.8849C84.9457 10.0217 85.3139 10.2531 85.619 10.5793C85.9346 10.9055 86.0924 11.3684 86.0924 11.9681C86.0924 12.7572 85.7505 13.3885 85.0667 13.8619C84.3828 14.3354 83.4518 14.5721 82.2735 14.5721Z" fill="black"/>
<path d="M77.7764 10.2952C77.7764 10.432 77.7659 10.6266 77.7449 10.8792H71.1327C71.2485 11.4999 71.5483 11.9944 72.0322 12.3626C72.5267 12.7204 73.1369 12.8992 73.8628 12.8992C74.7886 12.8992 75.5513 12.5941 76.151 11.9839L77.2083 13.1991C76.8296 13.6515 76.3509 13.9934 75.7723 14.2249C75.1936 14.4564 74.5414 14.5721 73.8155 14.5721C72.8897 14.5721 72.0743 14.388 71.3695 14.0197C70.6646 13.6515 70.1175 13.1412 69.7283 12.4889C69.3495 11.8261 69.1602 11.0791 69.1602 10.2479C69.1602 9.42723 69.3443 8.69075 69.7125 8.03843C70.0912 7.3756 70.612 6.86006 71.2748 6.49182C71.9376 6.12357 72.6845 5.93945 73.5156 5.93945C74.3362 5.93945 75.0674 6.12357 75.7091 6.49182C76.3614 6.84954 76.8664 7.35982 77.2241 8.02265C77.5923 8.67497 77.7764 9.43249 77.7764 10.2952ZM73.5156 7.51763C72.8844 7.51763 72.3479 7.70702 71.906 8.08578C71.4747 8.45402 71.2116 8.94852 71.117 9.56927H75.8985C75.8144 8.95904 75.5566 8.46454 75.1253 8.08578C74.6939 7.70702 74.1574 7.51763 73.5156 7.51763Z" fill="black"/>
<path d="M64.3321 14.5721C63.6482 14.5721 62.9802 14.4827 62.3279 14.3038C61.6756 14.1249 61.1549 13.8987 60.7656 13.6252L61.5231 12.1259C61.9018 12.3784 62.3542 12.5836 62.8802 12.7414C63.4168 12.8887 63.9428 12.9624 64.4583 12.9624C65.6366 12.9624 66.2257 12.652 66.2257 12.0312C66.2257 11.7366 66.0732 11.5315 65.7681 11.4157C65.4735 11.3 64.9949 11.1895 64.3321 11.0843C63.6377 10.9791 63.0696 10.8581 62.6277 10.7213C62.1964 10.5846 61.8177 10.3478 61.4915 10.0112C61.1759 9.66396 61.0181 9.18524 61.0181 8.57501C61.0181 7.7754 61.3495 7.13887 62.0123 6.66542C62.6856 6.18144 63.5904 5.93945 64.7266 5.93945C65.3052 5.93945 65.8838 6.00784 66.4625 6.14462C67.0411 6.27087 67.5145 6.44447 67.8827 6.66542L67.1252 8.16469C66.4099 7.74384 65.605 7.53342 64.7108 7.53342C64.1322 7.53342 63.6903 7.62285 63.3852 7.80171C63.0906 7.97005 62.9434 8.19625 62.9434 8.48032C62.9434 8.79596 63.1012 9.02217 63.4168 9.15894C63.7429 9.2852 64.2426 9.40619 64.916 9.52192C65.5893 9.62713 66.1416 9.74813 66.5729 9.8849C67.0043 10.0217 67.3725 10.2531 67.6776 10.5793C67.9932 10.9055 68.151 11.3684 68.151 11.9681C68.151 12.7572 67.8091 13.3885 67.1252 13.8619C66.4414 14.3354 65.5104 14.5721 64.3321 14.5721Z" fill="black"/>
<path d="M84.0104 46.5652H80.4297V40.9619H81.0179V46.0628H84.0104V46.5652Z" fill="black"/>
<path d="M78.6188 46.5652H76.2188V46.0628H77.1247V41.4643H76.2188V40.9619H78.6188V41.4643H77.7171V46.0628H78.6188V46.5652Z" fill="black"/>
<path d="M74.6707 46.5652H73.9237L72.2879 44.165H71.4163V46.5652H70.8281V40.9619H72.6743C73.2897 40.9619 73.7662 41.0965 74.104 41.3655C74.4417 41.6317 74.6106 42.031 74.6106 42.5635C74.6106 42.7982 74.5691 43.01 74.4861 43.1989C74.4031 43.385 74.29 43.5439 74.1469 43.6755C74.0038 43.8072 73.8321 43.9131 73.6317 43.9933C73.4342 44.0734 73.2181 44.1221 72.9834 44.1393L74.6707 46.5652ZM74.0009 42.5635C74.0009 42.1828 73.8822 41.9051 73.6446 41.7305C73.4099 41.553 73.0865 41.4643 72.6743 41.4643H71.4163V43.6627H72.6743C73.0865 43.6627 73.4099 43.5768 73.6446 43.405C73.8822 43.2304 74.0009 42.9499 74.0009 42.5635Z" fill="black"/>
<path d="M69.8098 44.9636C69.8098 45.4989 69.6367 45.8997 69.2903 46.1659C68.944 46.4321 68.4517 46.5652 67.8134 46.5652H66.0273V40.9619H67.7147C67.9494 40.9619 68.1798 40.982 68.4059 41.022C68.632 41.0592 68.8338 41.1308 69.0113 41.2367C69.1916 41.3426 69.3376 41.49 69.4492 41.679C69.5608 41.865 69.6166 42.1098 69.6166 42.4132C69.6166 42.9943 69.3261 43.3907 68.7451 43.6025C69.4549 43.8201 69.8098 44.2738 69.8098 44.9636ZM69.0284 42.4132C69.0284 42.2157 68.9869 42.0539 68.9039 41.928C68.8209 41.802 68.715 41.7062 68.5862 41.6403C68.4574 41.5716 68.3157 41.5258 68.1612 41.5029C68.0066 41.4772 67.8578 41.4643 67.7147 41.4643H66.6155V43.3664H67.7147C67.8749 43.3664 68.0324 43.3549 68.1869 43.332C68.3415 43.3063 68.4803 43.259 68.6034 43.1903C68.7265 43.1188 68.8281 43.0215 68.9082 42.8984C68.9884 42.7753 69.0284 42.6136 69.0284 42.4132ZM69.2216 44.9636C69.2216 44.5772 69.0957 44.2967 68.8438 44.1221C68.5948 43.9446 68.2513 43.8559 67.8134 43.8559H66.6155V46.0628H67.8134C68.2513 46.0628 68.5948 45.9712 68.8438 45.788C69.0957 45.602 69.2216 45.3272 69.2216 44.9636Z" fill="black"/>
<path d="M65.2909 46.5652H64.6597L64.1317 44.9636H61.9163L61.3968 46.5652H60.7656L62.629 40.9619H63.4275L65.2909 46.5652ZM63.9642 44.4441L63.024 41.5544L62.0837 44.4441H63.9642Z" fill="black"/>
<path d="M99.7376 43.8735L113.362 56.0001H86.1133L99.7376 43.8735Z" fill="#4361EE"/>
<path d="M99.7376 31.3384L113.362 43.8737H86.1133L99.7376 31.3384Z" fill="#4361EE"/>
<path d="M83.8156 37.2722H82.9648V36.4214H83.8156V37.2722Z" fill="black"/>
<path d="M80.1847 37.2722H79.5535V36.8788C79.3736 37.0404 79.1754 37.1639 78.9589 37.2493C78.7454 37.3347 78.5259 37.3774 78.3002 37.3774C77.9617 37.3774 77.6583 37.3225 77.39 37.2127C77.1216 37.1029 76.8945 36.9505 76.7085 36.7553C76.5255 36.5571 76.3837 36.3207 76.2831 36.0463C76.1855 35.7718 76.1367 35.4714 76.1367 35.1451C76.1367 34.8219 76.1855 34.523 76.2831 34.2486C76.3837 33.9711 76.5255 33.7347 76.7085 33.5396C76.8945 33.3413 77.1216 33.1873 77.39 33.0776C77.6583 32.9647 77.9617 32.9083 78.3002 32.9083C78.5259 32.9083 78.7454 32.9495 78.9589 33.0318C79.1754 33.1111 79.3736 33.2316 79.5535 33.3932V31.8379H78.7027V31.3027H80.1847V37.2722ZM79.5535 34.0016C79.3736 33.8033 79.1769 33.66 78.9634 33.5716C78.753 33.4831 78.5289 33.4389 78.2911 33.4389C78.041 33.4389 77.8199 33.4831 77.6278 33.5716C77.4388 33.66 77.2802 33.7805 77.1521 33.933C77.0241 34.0854 76.9265 34.2654 76.8594 34.4727C76.7954 34.677 76.7634 34.9012 76.7634 35.1451C76.7634 35.3891 76.7954 35.6148 76.8594 35.8221C76.9265 36.0265 77.0241 36.2049 77.1521 36.3573C77.2802 36.5098 77.4388 36.6303 77.6278 36.7187C77.8199 36.8071 78.041 36.8514 78.2911 36.8514C78.7729 36.8514 79.1937 36.6608 79.5535 36.2796V34.0016Z" fill="black"/>
<path d="M71.6566 35.36C71.7024 35.8114 71.8671 36.1712 72.1506 36.4396C72.4342 36.7079 72.8032 36.8421 73.2575 36.8421C73.5777 36.8421 73.8628 36.7765 74.1129 36.6454C74.3629 36.5143 74.5505 36.3511 74.6755 36.156L75.1146 36.4579C74.9011 36.7567 74.6465 36.9854 74.3507 37.144C74.0549 37.2995 73.6905 37.3773 73.2575 37.3773C72.9282 37.3773 72.6263 37.3224 72.3519 37.2126C72.0775 37.1028 71.8396 36.9504 71.6384 36.7552C71.4401 36.557 71.2862 36.3222 71.1764 36.0507C71.0666 35.7793 71.0117 35.4774 71.0117 35.145C71.0117 34.8218 71.0605 34.5245 71.1581 34.253C71.2587 33.9786 71.402 33.7422 71.588 33.544C71.7771 33.3428 72.0058 33.1872 72.2741 33.0775C72.5425 32.9646 72.8428 32.9082 73.1752 32.9082C73.5381 32.9082 73.8552 32.9692 74.1266 33.0912C74.398 33.2132 74.6236 33.3824 74.8035 33.5989C74.9865 33.8124 75.1207 34.0685 75.2061 34.3674C75.2945 34.6663 75.3387 34.9971 75.3387 35.36H71.6566ZM74.6755 34.8248C74.6053 34.3583 74.4361 34.0106 74.1678 33.7819C73.8994 33.5532 73.5686 33.4388 73.1752 33.4388C72.974 33.4388 72.7879 33.4724 72.6172 33.5395C72.4464 33.6035 72.2955 33.6965 72.1644 33.8185C72.0332 33.9405 71.9235 34.0884 71.835 34.2622C71.7466 34.433 71.6902 34.6205 71.6658 34.8248H74.6755Z" fill="black"/>
<path d="M64.8529 31.7707C64.4681 32.1872 64.16 32.5976 63.9285 33.0016C63.697 33.4057 63.5187 33.8285 63.3935 34.2702C63.2684 34.7087 63.1839 35.1785 63.1401 35.6797C63.0963 36.1777 63.0713 36.729 63.065 37.3335H62.3893C62.3955 36.7635 62.4253 36.2263 62.4784 35.722C62.5348 35.2177 62.6317 34.7369 62.7694 34.2796C62.907 33.8191 63.0947 33.3806 63.3325 32.964C63.5703 32.5475 63.8706 32.1434 64.2335 31.7519H61.3147V32.9546H60.7656V31.2021H64.8529V31.7707Z" fill="black"/>
<path d="M84.0633 53.9835C84.0633 54.2587 84.0117 54.5168 83.9085 54.7576C83.8053 54.9984 83.6634 55.2091 83.4828 55.3898C83.3051 55.5675 83.09 55.708 82.8378 55.8112C82.5855 55.9144 82.3103 55.9661 82.0121 55.9661C81.7426 55.9661 81.4932 55.9259 81.2639 55.8456C81.0345 55.7654 80.8324 55.6507 80.6575 55.5016C80.4855 55.3525 80.3465 55.169 80.2404 54.9511C80.1343 54.7332 80.0698 54.4838 80.0469 54.2028L80.6188 54.1125C80.636 54.3075 80.6819 54.4895 80.7564 54.6587C80.831 54.825 80.9284 54.9669 81.0488 55.0844C81.1692 55.202 81.3112 55.2952 81.4746 55.364C81.638 55.4299 81.8172 55.4629 82.0121 55.4629C82.2415 55.4629 82.445 55.4256 82.6227 55.3511C82.8034 55.2737 82.9567 55.1676 83.0829 55.0328C83.209 54.8952 83.3051 54.7375 83.371 54.5598C83.4398 54.3791 83.4742 54.187 83.4742 53.9835C83.4742 53.7713 83.4398 53.5749 83.371 53.3943C83.3051 53.2108 83.2104 53.0531 83.0872 52.9212C82.9639 52.7894 82.812 52.6861 82.6313 52.6116C82.4536 52.5342 82.2558 52.4955 82.0379 52.4955C81.8086 52.4955 81.5878 52.5442 81.3757 52.6417C81.1664 52.7363 80.9843 52.8754 80.8295 53.0589H80.2404V50.2549H83.7537V50.7581H80.8295V52.5127C81.0015 52.3464 81.1965 52.2188 81.4144 52.1299C81.6351 52.0382 81.8602 51.9923 82.0895 51.9923C82.3791 51.9923 82.6442 52.0396 82.8851 52.1342C83.1259 52.226 83.3337 52.3579 83.5086 52.5299C83.6835 52.699 83.8197 52.9069 83.9171 53.1535C84.0146 53.4 84.0633 53.6767 84.0633 53.9835Z" fill="black"/>
<path d="M79.0198 51.7084C79.0198 51.8632 79.0054 52.0022 78.9768 52.1255C78.951 52.2488 78.9022 52.3735 78.8306 52.4997C78.7618 52.6258 78.67 52.7591 78.5553 52.8996C78.4407 53.0401 78.2959 53.2007 78.121 53.3813L76.1644 55.3639H78.5338V54.2629H79.037V55.867H75.3903V55.3467L77.5749 53.1276C77.6867 53.0157 77.7928 52.9039 77.8931 52.7921C77.9963 52.6803 78.088 52.567 78.1683 52.4524C78.2486 52.3377 78.3117 52.2187 78.3575 52.0954C78.4034 51.9721 78.4263 51.8431 78.4263 51.7084C78.4263 51.3643 78.3117 51.1049 78.0823 50.93C77.8558 50.7522 77.5749 50.6633 77.2395 50.6633C76.7693 50.6633 76.4138 50.7938 76.173 51.0547C75.9322 51.3156 75.8118 51.6926 75.8118 52.1857H75.2656C75.2656 51.5521 75.4348 51.0561 75.7731 50.6977C76.1113 50.3393 76.6001 50.1602 77.2395 50.1602C77.4803 50.1602 77.7068 50.196 77.9189 50.2677C78.1339 50.3365 78.3231 50.4368 78.4865 50.5687C78.6528 50.7006 78.7833 50.8626 78.8779 51.0547C78.9725 51.2439 79.0198 51.4618 79.0198 51.7084Z" fill="black"/>
<path d="M74.4258 54.0608H70.418V53.5576H74.4258V54.0608Z" fill="black"/>
<path d="M69.4065 51.7084C69.4065 51.8632 69.3922 52.0022 69.3635 52.1255C69.3377 52.2488 69.2889 52.3735 69.2173 52.4997C69.1485 52.6258 69.0567 52.7591 68.9421 52.8996C68.8274 53.0401 68.6826 53.2007 68.5077 53.3813L66.5511 55.3639H68.9206V54.2629H69.4237V55.867H65.7771V55.3467L67.9616 53.1276C68.0734 53.0157 68.1795 52.9039 68.2798 52.7921C68.383 52.6803 68.4748 52.567 68.555 52.4524C68.6353 52.3377 68.6984 52.2187 68.7442 52.0954C68.7901 51.9721 68.8131 51.8431 68.8131 51.7084C68.8131 51.3643 68.6984 51.1049 68.469 50.93C68.2425 50.7522 67.9616 50.6633 67.6262 50.6633C67.156 50.6633 66.8005 50.7938 66.5597 51.0547C66.3189 51.3156 66.1985 51.6926 66.1985 52.1857H65.6523C65.6523 51.5521 65.8215 51.0561 66.1598 50.6977C66.4981 50.3393 66.9869 50.1602 67.6262 50.1602C67.867 50.1602 68.0935 50.196 68.3056 50.2677C68.5206 50.3365 68.7098 50.4368 68.8733 50.5687C69.0395 50.7006 69.17 50.8626 69.2646 51.0547C69.3592 51.2439 69.4065 51.4618 69.4065 51.7084Z" fill="black"/>
<path d="M64.5979 51.7084C64.5979 51.8632 64.5836 52.0022 64.5549 52.1255C64.5291 52.2488 64.4804 52.3735 64.4087 52.4997C64.3399 52.6258 64.2481 52.7591 64.1335 52.8996C64.0188 53.0401 63.874 53.2007 63.6991 53.3813L61.7425 55.3639H64.112V54.2629H64.6151V55.867H60.9685V55.3467L63.153 53.1276C63.2648 53.0157 63.3709 52.9039 63.4712 52.7921C63.5744 52.6803 63.6662 52.567 63.7464 52.4524C63.8267 52.3377 63.8898 52.2187 63.9357 52.0954C63.9815 51.9721 64.0045 51.8431 64.0045 51.7084C64.0045 51.3643 63.8898 51.1049 63.6604 50.93C63.434 50.7522 63.153 50.6633 62.8176 50.6633C62.3474 50.6633 61.9919 50.7938 61.7511 51.0547C61.5103 51.3156 61.3899 51.6926 61.3899 52.1857H60.8438C60.8438 51.5521 61.0129 51.0561 61.3512 50.6977C61.6895 50.3393 62.1783 50.1602 62.8176 50.1602C63.0584 50.1602 63.2849 50.196 63.497 50.2677C63.712 50.3365 63.9012 50.4368 64.0647 50.5687C64.2309 50.7006 64.3614 50.8626 64.456 51.0547C64.5506 51.2439 64.5979 51.4618 64.5979 51.7084Z" fill="black"/>
<path d="M102.686 4.32004C102.957 3.79481 103.176 3.35712 103.342 3.00696C103.508 2.64805 103.644 2.31978 103.749 2.02215C103.863 1.71576 103.959 1.40938 104.038 1.10299C104.125 0.796604 104.217 0.42894 104.314 0L107.701 0.709065C107.657 1.07673 107.605 1.40938 107.544 1.70701C107.491 2.00464 107.417 2.30227 107.32 2.5999C107.224 2.88878 107.106 3.19079 106.966 3.50593C106.835 3.81232 106.673 4.15372 106.48 4.53014L102.856 11.7652L106.953 11.7652V8.86331H110.472V11.7652H112.677V14.457H110.472V18.0549L106.953 18.0549V14.457L98.9041 14.457L98.3789 12.8288L102.686 4.32004Z" fill="#4361EE"/>
<path d="M88.4807 1.4575C89.2947 1.06357 90.192 0.761561 91.1723 0.551468C92.1527 0.341375 93.1199 0.236328 94.074 0.236328C94.8006 0.236328 95.4789 0.306359 96.1092 0.446421C96.7394 0.57773 97.2865 0.796577 97.7504 1.10296C98.2143 1.40935 98.5776 1.8164 98.8402 2.32413C99.1028 2.83186 99.2341 3.45776 99.2341 4.20184C99.2341 4.91966 99.1378 5.5193 98.9452 6.00076C98.7527 6.48223 98.4682 6.89804 98.0918 7.24819C97.7154 7.59835 97.2427 7.91349 96.6738 8.19361C96.1136 8.46498 95.4658 8.75824 94.7305 9.07338C94.3016 9.25721 93.9296 9.41916 93.6145 9.55922C93.3081 9.69053 93.0499 9.81746 92.8398 9.94001C92.6297 10.0538 92.4591 10.172 92.3278 10.2945C92.1965 10.4083 92.0958 10.5397 92.0258 10.6885C91.9557 10.8373 91.9076 11.008 91.8813 11.2006C91.8551 11.3932 91.8376 11.6251 91.8288 11.8965L99.0371 11.8965V14.457L88.2969 14.457V12.6318C88.2969 11.7827 88.4063 11.0518 88.6251 10.439C88.844 9.82621 89.1591 9.2966 89.5705 8.85015C89.9819 8.4037 90.4808 8.01416 91.0673 7.68151C91.6538 7.34886 92.3146 7.0381 93.0499 6.74922C93.4613 6.5829 93.8289 6.43408 94.1528 6.30277C94.4854 6.17146 94.7655 6.02265 94.9931 5.85632C95.2207 5.68125 95.3958 5.47553 95.5183 5.23917C95.6409 4.99407 95.7021 4.67455 95.7021 4.28062C95.7021 3.97424 95.6496 3.72037 95.5446 3.51904C95.4396 3.3177 95.2951 3.15575 95.1113 3.03319C94.9275 2.91064 94.713 2.82748 94.4679 2.78371C94.2228 2.73119 93.9602 2.70492 93.6801 2.70492C93.3913 2.70492 93.0718 2.73119 92.7217 2.78371C92.3715 2.82748 92.0126 2.89313 91.645 2.98067C91.2774 3.06821 90.9054 3.17763 90.529 3.30894C90.1613 3.44025 89.8112 3.58907 89.4786 3.75539L88.4807 1.4575Z" fill="#4361EE"/>
</svg>
